G04 #@! TF.GenerationSoftware,KiCad,Pcbnew,(5.1.2)-1*
G04 #@! TF.CreationDate,2019-06-08T13:36:56+05:00*
G04 #@! TF.ProjectId,evend-adapter,6576656e-642d-4616-9461-707465722e6b,rev?*
G04 #@! TF.SameCoordinates,Original*
G04 #@! TF.FileFunction,Legend,Bot*
G04 #@! TF.FilePolarity,Positive*
%FSLAX46Y46*%
G04 Gerber Fmt 4.6, Leading zero omitted, Abs format (unit mm)*
G04 Created by KiCad (PCBNEW (5.1.2)-1) date 2019-06-08 13:36:56*
%MOMM*%
%LPD*%
G04 APERTURE LIST*
%ADD10C,0.120000*%
%ADD11C,0.150000*%
G04 APERTURE END LIST*
D10*
X23460000Y-118380000D02*
X145740000Y-118380000D01*
X145740000Y-162660000D02*
X145740000Y-118380000D01*
X100600000Y-163020000D02*
X102600000Y-163020000D01*
X145740000Y-162660000D02*
X23460000Y-162660000D01*
X23460000Y-162660000D02*
X23460000Y-118380000D01*
X133459000Y-174399800D02*
X133459000Y-179099800D01*
X133459000Y-179099800D02*
X143559000Y-179099800D01*
X143559000Y-179099800D02*
X143559000Y-174399800D01*
X143559000Y-174399800D02*
X133459000Y-174399800D01*
X136009000Y-174399800D02*
X136009000Y-174999800D01*
X136009000Y-174999800D02*
X134059000Y-174999800D01*
X134059000Y-174999800D02*
X134059000Y-178499800D01*
X134059000Y-178499800D02*
X142959000Y-178499800D01*
X142959000Y-178499800D02*
X142959000Y-174999800D01*
X142959000Y-174999800D02*
X141009000Y-174999800D01*
X141009000Y-174999800D02*
X141009000Y-174399800D01*
X133459000Y-175699800D02*
X134059000Y-175699800D01*
X133459000Y-176999800D02*
X134059000Y-176999800D01*
X143559000Y-175699800D02*
X142959000Y-175699800D01*
X143559000Y-176999800D02*
X142959000Y-176999800D01*
X135209000Y-174399800D02*
X135209000Y-174199800D01*
X135209000Y-174199800D02*
X134909000Y-174199800D01*
X134909000Y-174199800D02*
X134909000Y-174399800D01*
X135209000Y-174299800D02*
X134909000Y-174299800D01*
X136409000Y-178499800D02*
X136409000Y-177999800D01*
X136409000Y-177999800D02*
X136609000Y-177999800D01*
X136609000Y-177999800D02*
X136609000Y-178499800D01*
X136509000Y-178499800D02*
X136509000Y-177999800D01*
X138409000Y-178499800D02*
X138409000Y-177999800D01*
X138409000Y-177999800D02*
X138609000Y-177999800D01*
X138609000Y-177999800D02*
X138609000Y-178499800D01*
X138509000Y-178499800D02*
X138509000Y-177999800D01*
X140409000Y-178499800D02*
X140409000Y-177999800D01*
X140409000Y-177999800D02*
X140609000Y-177999800D01*
X140609000Y-177999800D02*
X140609000Y-178499800D01*
X140509000Y-178499800D02*
X140509000Y-177999800D01*
X134409000Y-174099800D02*
X133159000Y-174099800D01*
X133159000Y-174099800D02*
X133159000Y-175349800D01*
X69213600Y-155400400D02*
X72213600Y-155400400D01*
X72213600Y-153260400D02*
X69213600Y-153260400D01*
X91640000Y-138200000D02*
X91640000Y-141200000D01*
X93780000Y-141200000D02*
X93780000Y-138200000D01*
X75443600Y-142166900D02*
X76143600Y-142166900D01*
X76143600Y-140966900D02*
X75443600Y-140966900D01*
X72253500Y-143892400D02*
X72253500Y-140892400D01*
X70113500Y-140892400D02*
X70113500Y-143892400D01*
X58812000Y-161090000D02*
X61812000Y-161090000D01*
X61812000Y-158950000D02*
X58812000Y-158950000D01*
X81891000Y-148383600D02*
X78891000Y-148383600D01*
X78891000Y-150523600D02*
X81891000Y-150523600D01*
X77192000Y-157146600D02*
X74192000Y-157146600D01*
X74192000Y-159286600D02*
X77192000Y-159286600D01*
X61204500Y-138914000D02*
X61204500Y-135914000D01*
X59064500Y-135914000D02*
X59064500Y-138914000D01*
X74584000Y-162982200D02*
X74584000Y-163682200D01*
X75784000Y-163682200D02*
X75784000Y-162982200D01*
X75456300Y-145494300D02*
X76156300Y-145494300D01*
X76156300Y-144294300D02*
X75456300Y-144294300D01*
X75850000Y-156810000D02*
X76550000Y-156810000D01*
X76550000Y-155610000D02*
X75850000Y-155610000D01*
X80421000Y-163306200D02*
X79721000Y-163306200D01*
X79721000Y-164506200D02*
X80421000Y-164506200D01*
X80426000Y-164703200D02*
X79726000Y-164703200D01*
X79726000Y-165903200D02*
X80426000Y-165903200D01*
X74622100Y-149322000D02*
X74622100Y-150022000D01*
X75822100Y-150022000D02*
X75822100Y-149322000D01*
X72983800Y-149322000D02*
X72983800Y-150022000D01*
X74183800Y-150022000D02*
X74183800Y-149322000D01*
X75850000Y-160950200D02*
X76550000Y-160950200D01*
X76550000Y-159750200D02*
X75850000Y-159750200D01*
X77816000Y-162728200D02*
X78516000Y-162728200D01*
X78516000Y-161528200D02*
X77816000Y-161528200D01*
X75430900Y-143767100D02*
X76130900Y-143767100D01*
X76130900Y-142567100D02*
X75430900Y-142567100D01*
X79314600Y-140596100D02*
X79314600Y-139896100D01*
X78114600Y-139896100D02*
X78114600Y-140596100D01*
X76539800Y-153920900D02*
X75839800Y-153920900D01*
X75839800Y-155120900D02*
X76539800Y-155120900D01*
X76550000Y-151800000D02*
X75850000Y-151800000D01*
X75850000Y-153000000D02*
X76550000Y-153000000D01*
X56698400Y-151900000D02*
X57398400Y-151900000D01*
X57398400Y-150700000D02*
X56698400Y-150700000D01*
X56650000Y-153500000D02*
X57350000Y-153500000D01*
X57350000Y-152300000D02*
X56650000Y-152300000D01*
X54850000Y-146850000D02*
X54850000Y-146150000D01*
X53650000Y-146150000D02*
X53650000Y-146850000D01*
X55500000Y-149100000D02*
X54800000Y-149100000D01*
X54800000Y-150300000D02*
X55500000Y-150300000D01*
X56739000Y-146100000D02*
X57439000Y-146100000D01*
X57439000Y-144900000D02*
X56739000Y-144900000D01*
X54575000Y-140300000D02*
X55275000Y-140300000D01*
X55275000Y-139100000D02*
X54575000Y-139100000D01*
X59128500Y-142258000D02*
X60058500Y-142258000D01*
X62288500Y-142258000D02*
X61358500Y-142258000D01*
X62288500Y-142258000D02*
X62288500Y-144418000D01*
X59128500Y-142258000D02*
X59128500Y-143718000D01*
X55519200Y-142267400D02*
X56449200Y-142267400D01*
X58679200Y-142267400D02*
X57749200Y-142267400D01*
X58679200Y-142267400D02*
X58679200Y-144427400D01*
X55519200Y-142267400D02*
X55519200Y-143727400D01*
X31960000Y-131150000D02*
X34080000Y-131150000D01*
X31960000Y-134350000D02*
X31960000Y-131150000D01*
X34080000Y-131150000D02*
X34080000Y-134350000D01*
X81526500Y-154188700D02*
X80596500Y-154188700D01*
X78366500Y-154188700D02*
X79296500Y-154188700D01*
X78366500Y-154188700D02*
X78366500Y-152028700D01*
X81526500Y-154188700D02*
X81526500Y-152728700D01*
X81221700Y-144651000D02*
X80291700Y-144651000D01*
X78061700Y-144651000D02*
X78991700Y-144651000D01*
X78061700Y-144651000D02*
X78061700Y-142491000D01*
X81221700Y-144651000D02*
X81221700Y-143191000D01*
X75456000Y-168585000D02*
X75456000Y-167655000D01*
X75456000Y-165425000D02*
X75456000Y-166355000D01*
X75456000Y-165425000D02*
X77616000Y-165425000D01*
X75456000Y-168585000D02*
X76916000Y-168585000D01*
D11*
X71413619Y-156662380D02*
X71508857Y-156614761D01*
X71556476Y-156567142D01*
X71604095Y-156471904D01*
X71604095Y-156186190D01*
X71556476Y-156090952D01*
X71508857Y-156043333D01*
X71413619Y-155995714D01*
X71270761Y-155995714D01*
X71175523Y-156043333D01*
X71127904Y-156090952D01*
X71080285Y-156186190D01*
X71080285Y-156471904D01*
X71127904Y-156567142D01*
X71175523Y-156614761D01*
X71270761Y-156662380D01*
X71413619Y-156662380D01*
X70699333Y-155757619D02*
X70651714Y-155710000D01*
X70556476Y-155662380D01*
X70318380Y-155662380D01*
X70223142Y-155710000D01*
X70175523Y-155757619D01*
X70127904Y-155852857D01*
X70127904Y-155948095D01*
X70175523Y-156090952D01*
X70746952Y-156662380D01*
X70127904Y-156662380D01*
X95462380Y-139152380D02*
X95414761Y-139057142D01*
X95367142Y-139009523D01*
X95271904Y-138961904D01*
X94986190Y-138961904D01*
X94890952Y-139009523D01*
X94843333Y-139057142D01*
X94795714Y-139152380D01*
X94795714Y-139295238D01*
X94843333Y-139390476D01*
X94890952Y-139438095D01*
X94986190Y-139485714D01*
X95271904Y-139485714D01*
X95367142Y-139438095D01*
X95414761Y-139390476D01*
X95462380Y-139295238D01*
X95462380Y-139152380D01*
X94462380Y-139819047D02*
X94462380Y-140485714D01*
X95462380Y-140057142D01*
X75858666Y-140660380D02*
X76192000Y-140184190D01*
X76430095Y-140660380D02*
X76430095Y-139660380D01*
X76049142Y-139660380D01*
X75953904Y-139708000D01*
X75906285Y-139755619D01*
X75858666Y-139850857D01*
X75858666Y-139993714D01*
X75906285Y-140088952D01*
X75953904Y-140136571D01*
X76049142Y-140184190D01*
X76430095Y-140184190D01*
X75001523Y-139993714D02*
X75001523Y-140660380D01*
X75239619Y-139612761D02*
X75477714Y-140327047D01*
X74858666Y-140327047D01*
X69335880Y-141844780D02*
X69288261Y-141749542D01*
X69240642Y-141701923D01*
X69145404Y-141654304D01*
X68859690Y-141654304D01*
X68764452Y-141701923D01*
X68716833Y-141749542D01*
X68669214Y-141844780D01*
X68669214Y-141987638D01*
X68716833Y-142082876D01*
X68764452Y-142130495D01*
X68859690Y-142178114D01*
X69145404Y-142178114D01*
X69240642Y-142130495D01*
X69288261Y-142082876D01*
X69335880Y-141987638D01*
X69335880Y-141844780D01*
X68335880Y-143035257D02*
X68335880Y-142844780D01*
X68383500Y-142749542D01*
X68431119Y-142701923D01*
X68573976Y-142606685D01*
X68764452Y-142559066D01*
X69145404Y-142559066D01*
X69240642Y-142606685D01*
X69288261Y-142654304D01*
X69335880Y-142749542D01*
X69335880Y-142940019D01*
X69288261Y-143035257D01*
X69240642Y-143082876D01*
X69145404Y-143130495D01*
X68907309Y-143130495D01*
X68812071Y-143082876D01*
X68764452Y-143035257D01*
X68716833Y-142940019D01*
X68716833Y-142749542D01*
X68764452Y-142654304D01*
X68812071Y-142606685D01*
X68907309Y-142559066D01*
X60859619Y-158172380D02*
X60954857Y-158124761D01*
X61002476Y-158077142D01*
X61050095Y-157981904D01*
X61050095Y-157696190D01*
X61002476Y-157600952D01*
X60954857Y-157553333D01*
X60859619Y-157505714D01*
X60716761Y-157505714D01*
X60621523Y-157553333D01*
X60573904Y-157600952D01*
X60526285Y-157696190D01*
X60526285Y-157981904D01*
X60573904Y-158077142D01*
X60621523Y-158124761D01*
X60716761Y-158172380D01*
X60859619Y-158172380D01*
X59621523Y-157172380D02*
X60097714Y-157172380D01*
X60145333Y-157648571D01*
X60097714Y-157600952D01*
X60002476Y-157553333D01*
X59764380Y-157553333D01*
X59669142Y-157600952D01*
X59621523Y-157648571D01*
X59573904Y-157743809D01*
X59573904Y-157981904D01*
X59621523Y-158077142D01*
X59669142Y-158124761D01*
X59764380Y-158172380D01*
X60002476Y-158172380D01*
X60097714Y-158124761D01*
X60145333Y-158077142D01*
X142239904Y-151138000D02*
X142335142Y-151090380D01*
X142478000Y-151090380D01*
X142620857Y-151138000D01*
X142716095Y-151233238D01*
X142763714Y-151328476D01*
X142811333Y-151518952D01*
X142811333Y-151661809D01*
X142763714Y-151852285D01*
X142716095Y-151947523D01*
X142620857Y-152042761D01*
X142478000Y-152090380D01*
X142382761Y-152090380D01*
X142239904Y-152042761D01*
X142192285Y-151995142D01*
X142192285Y-151661809D01*
X142382761Y-151661809D01*
X141763714Y-152090380D02*
X141763714Y-151090380D01*
X141192285Y-152090380D01*
X141192285Y-151090380D01*
X140716095Y-152090380D02*
X140716095Y-151090380D01*
X140478000Y-151090380D01*
X140335142Y-151138000D01*
X140239904Y-151233238D01*
X140192285Y-151328476D01*
X140144666Y-151518952D01*
X140144666Y-151661809D01*
X140192285Y-151852285D01*
X140239904Y-151947523D01*
X140335142Y-152042761D01*
X140478000Y-152090380D01*
X140716095Y-152090380D01*
X143017714Y-146121428D02*
X142255809Y-146121428D01*
X142636761Y-146502380D02*
X142636761Y-145740476D01*
X141351047Y-145502380D02*
X141541523Y-145502380D01*
X141636761Y-145550000D01*
X141684380Y-145597619D01*
X141779619Y-145740476D01*
X141827238Y-145930952D01*
X141827238Y-146311904D01*
X141779619Y-146407142D01*
X141732000Y-146454761D01*
X141636761Y-146502380D01*
X141446285Y-146502380D01*
X141351047Y-146454761D01*
X141303428Y-146407142D01*
X141255809Y-146311904D01*
X141255809Y-146073809D01*
X141303428Y-145978571D01*
X141351047Y-145930952D01*
X141446285Y-145883333D01*
X141636761Y-145883333D01*
X141732000Y-145930952D01*
X141779619Y-145978571D01*
X141827238Y-146073809D01*
X140970095Y-145502380D02*
X140636761Y-146502380D01*
X140303428Y-145502380D01*
X81065619Y-148026380D02*
X81160857Y-147978761D01*
X81208476Y-147931142D01*
X81256095Y-147835904D01*
X81256095Y-147550190D01*
X81208476Y-147454952D01*
X81160857Y-147407333D01*
X81065619Y-147359714D01*
X80922761Y-147359714D01*
X80827523Y-147407333D01*
X80779904Y-147454952D01*
X80732285Y-147550190D01*
X80732285Y-147835904D01*
X80779904Y-147931142D01*
X80827523Y-147978761D01*
X80922761Y-148026380D01*
X81065619Y-148026380D01*
X79875142Y-147359714D02*
X79875142Y-148026380D01*
X80113238Y-146978761D02*
X80351333Y-147693047D01*
X79732285Y-147693047D01*
X71413619Y-158694380D02*
X71508857Y-158646761D01*
X71556476Y-158599142D01*
X71604095Y-158503904D01*
X71604095Y-158218190D01*
X71556476Y-158122952D01*
X71508857Y-158075333D01*
X71413619Y-158027714D01*
X71270761Y-158027714D01*
X71175523Y-158075333D01*
X71127904Y-158122952D01*
X71080285Y-158218190D01*
X71080285Y-158503904D01*
X71127904Y-158599142D01*
X71175523Y-158646761D01*
X71270761Y-158694380D01*
X71413619Y-158694380D01*
X70746952Y-157694380D02*
X70127904Y-157694380D01*
X70461238Y-158075333D01*
X70318380Y-158075333D01*
X70223142Y-158122952D01*
X70175523Y-158170571D01*
X70127904Y-158265809D01*
X70127904Y-158503904D01*
X70175523Y-158599142D01*
X70223142Y-158646761D01*
X70318380Y-158694380D01*
X70604095Y-158694380D01*
X70699333Y-158646761D01*
X70746952Y-158599142D01*
X58286880Y-136866380D02*
X58239261Y-136771142D01*
X58191642Y-136723523D01*
X58096404Y-136675904D01*
X57810690Y-136675904D01*
X57715452Y-136723523D01*
X57667833Y-136771142D01*
X57620214Y-136866380D01*
X57620214Y-137009238D01*
X57667833Y-137104476D01*
X57715452Y-137152095D01*
X57810690Y-137199714D01*
X58096404Y-137199714D01*
X58191642Y-137152095D01*
X58239261Y-137104476D01*
X58286880Y-137009238D01*
X58286880Y-136866380D01*
X58286880Y-138152095D02*
X58286880Y-137580666D01*
X58286880Y-137866380D02*
X57286880Y-137866380D01*
X57429738Y-137771142D01*
X57524976Y-137675904D01*
X57572595Y-137580666D01*
X73540857Y-163784580D02*
X73874190Y-163308390D01*
X74112285Y-163784580D02*
X74112285Y-162784580D01*
X73731333Y-162784580D01*
X73636095Y-162832200D01*
X73588476Y-162879819D01*
X73540857Y-162975057D01*
X73540857Y-163117914D01*
X73588476Y-163213152D01*
X73636095Y-163260771D01*
X73731333Y-163308390D01*
X74112285Y-163308390D01*
X73159904Y-162879819D02*
X73112285Y-162832200D01*
X73017047Y-162784580D01*
X72778952Y-162784580D01*
X72683714Y-162832200D01*
X72636095Y-162879819D01*
X72588476Y-162975057D01*
X72588476Y-163070295D01*
X72636095Y-163213152D01*
X73207523Y-163784580D01*
X72588476Y-163784580D01*
X71731333Y-163117914D02*
X71731333Y-163784580D01*
X71969428Y-162736961D02*
X72207523Y-163451247D01*
X71588476Y-163451247D01*
X78112857Y-146502380D02*
X78446190Y-146026190D01*
X78684285Y-146502380D02*
X78684285Y-145502380D01*
X78303333Y-145502380D01*
X78208095Y-145550000D01*
X78160476Y-145597619D01*
X78112857Y-145692857D01*
X78112857Y-145835714D01*
X78160476Y-145930952D01*
X78208095Y-145978571D01*
X78303333Y-146026190D01*
X78684285Y-146026190D01*
X77731904Y-145597619D02*
X77684285Y-145550000D01*
X77589047Y-145502380D01*
X77350952Y-145502380D01*
X77255714Y-145550000D01*
X77208095Y-145597619D01*
X77160476Y-145692857D01*
X77160476Y-145788095D01*
X77208095Y-145930952D01*
X77779523Y-146502380D01*
X77160476Y-146502380D01*
X76827142Y-145502380D02*
X76208095Y-145502380D01*
X76541428Y-145883333D01*
X76398571Y-145883333D01*
X76303333Y-145930952D01*
X76255714Y-145978571D01*
X76208095Y-146073809D01*
X76208095Y-146311904D01*
X76255714Y-146407142D01*
X76303333Y-146454761D01*
X76398571Y-146502380D01*
X76684285Y-146502380D01*
X76779523Y-146454761D01*
X76827142Y-146407142D01*
X80398857Y-156916380D02*
X80732190Y-156440190D01*
X80970285Y-156916380D02*
X80970285Y-155916380D01*
X80589333Y-155916380D01*
X80494095Y-155964000D01*
X80446476Y-156011619D01*
X80398857Y-156106857D01*
X80398857Y-156249714D01*
X80446476Y-156344952D01*
X80494095Y-156392571D01*
X80589333Y-156440190D01*
X80970285Y-156440190D01*
X80017904Y-156011619D02*
X79970285Y-155964000D01*
X79875047Y-155916380D01*
X79636952Y-155916380D01*
X79541714Y-155964000D01*
X79494095Y-156011619D01*
X79446476Y-156106857D01*
X79446476Y-156202095D01*
X79494095Y-156344952D01*
X80065523Y-156916380D01*
X79446476Y-156916380D01*
X79065523Y-156011619D02*
X79017904Y-155964000D01*
X78922666Y-155916380D01*
X78684571Y-155916380D01*
X78589333Y-155964000D01*
X78541714Y-156011619D01*
X78494095Y-156106857D01*
X78494095Y-156202095D01*
X78541714Y-156344952D01*
X79113142Y-156916380D01*
X78494095Y-156916380D01*
X83954857Y-164282380D02*
X84288190Y-163806190D01*
X84526285Y-164282380D02*
X84526285Y-163282380D01*
X84145333Y-163282380D01*
X84050095Y-163330000D01*
X84002476Y-163377619D01*
X83954857Y-163472857D01*
X83954857Y-163615714D01*
X84002476Y-163710952D01*
X84050095Y-163758571D01*
X84145333Y-163806190D01*
X84526285Y-163806190D01*
X83573904Y-163377619D02*
X83526285Y-163330000D01*
X83431047Y-163282380D01*
X83192952Y-163282380D01*
X83097714Y-163330000D01*
X83050095Y-163377619D01*
X83002476Y-163472857D01*
X83002476Y-163568095D01*
X83050095Y-163710952D01*
X83621523Y-164282380D01*
X83002476Y-164282380D01*
X82050095Y-164282380D02*
X82621523Y-164282380D01*
X82335809Y-164282380D02*
X82335809Y-163282380D01*
X82431047Y-163425238D01*
X82526285Y-163520476D01*
X82621523Y-163568095D01*
X83954857Y-166060380D02*
X84288190Y-165584190D01*
X84526285Y-166060380D02*
X84526285Y-165060380D01*
X84145333Y-165060380D01*
X84050095Y-165108000D01*
X84002476Y-165155619D01*
X83954857Y-165250857D01*
X83954857Y-165393714D01*
X84002476Y-165488952D01*
X84050095Y-165536571D01*
X84145333Y-165584190D01*
X84526285Y-165584190D01*
X83573904Y-165155619D02*
X83526285Y-165108000D01*
X83431047Y-165060380D01*
X83192952Y-165060380D01*
X83097714Y-165108000D01*
X83050095Y-165155619D01*
X83002476Y-165250857D01*
X83002476Y-165346095D01*
X83050095Y-165488952D01*
X83621523Y-166060380D01*
X83002476Y-166060380D01*
X82383428Y-165060380D02*
X82288190Y-165060380D01*
X82192952Y-165108000D01*
X82145333Y-165155619D01*
X82097714Y-165250857D01*
X82050095Y-165441333D01*
X82050095Y-165679428D01*
X82097714Y-165869904D01*
X82145333Y-165965142D01*
X82192952Y-166012761D01*
X82288190Y-166060380D01*
X82383428Y-166060380D01*
X82478666Y-166012761D01*
X82526285Y-165965142D01*
X82573904Y-165869904D01*
X82621523Y-165679428D01*
X82621523Y-165441333D01*
X82573904Y-165250857D01*
X82526285Y-165155619D01*
X82478666Y-165108000D01*
X82383428Y-165060380D01*
X75826857Y-147772380D02*
X76160190Y-147296190D01*
X76398285Y-147772380D02*
X76398285Y-146772380D01*
X76017333Y-146772380D01*
X75922095Y-146820000D01*
X75874476Y-146867619D01*
X75826857Y-146962857D01*
X75826857Y-147105714D01*
X75874476Y-147200952D01*
X75922095Y-147248571D01*
X76017333Y-147296190D01*
X76398285Y-147296190D01*
X74874476Y-147772380D02*
X75445904Y-147772380D01*
X75160190Y-147772380D02*
X75160190Y-146772380D01*
X75255428Y-146915238D01*
X75350666Y-147010476D01*
X75445904Y-147058095D01*
X74398285Y-147772380D02*
X74207809Y-147772380D01*
X74112571Y-147724761D01*
X74064952Y-147677142D01*
X73969714Y-147534285D01*
X73922095Y-147343809D01*
X73922095Y-146962857D01*
X73969714Y-146867619D01*
X74017333Y-146820000D01*
X74112571Y-146772380D01*
X74303047Y-146772380D01*
X74398285Y-146820000D01*
X74445904Y-146867619D01*
X74493523Y-146962857D01*
X74493523Y-147200952D01*
X74445904Y-147296190D01*
X74398285Y-147343809D01*
X74303047Y-147391428D01*
X74112571Y-147391428D01*
X74017333Y-147343809D01*
X73969714Y-147296190D01*
X73922095Y-147200952D01*
X72016857Y-150058380D02*
X72350190Y-149582190D01*
X72588285Y-150058380D02*
X72588285Y-149058380D01*
X72207333Y-149058380D01*
X72112095Y-149106000D01*
X72064476Y-149153619D01*
X72016857Y-149248857D01*
X72016857Y-149391714D01*
X72064476Y-149486952D01*
X72112095Y-149534571D01*
X72207333Y-149582190D01*
X72588285Y-149582190D01*
X71064476Y-150058380D02*
X71635904Y-150058380D01*
X71350190Y-150058380D02*
X71350190Y-149058380D01*
X71445428Y-149201238D01*
X71540666Y-149296476D01*
X71635904Y-149344095D01*
X70493047Y-149486952D02*
X70588285Y-149439333D01*
X70635904Y-149391714D01*
X70683523Y-149296476D01*
X70683523Y-149248857D01*
X70635904Y-149153619D01*
X70588285Y-149106000D01*
X70493047Y-149058380D01*
X70302571Y-149058380D01*
X70207333Y-149106000D01*
X70159714Y-149153619D01*
X70112095Y-149248857D01*
X70112095Y-149296476D01*
X70159714Y-149391714D01*
X70207333Y-149439333D01*
X70302571Y-149486952D01*
X70493047Y-149486952D01*
X70588285Y-149534571D01*
X70635904Y-149582190D01*
X70683523Y-149677428D01*
X70683523Y-149867904D01*
X70635904Y-149963142D01*
X70588285Y-150010761D01*
X70493047Y-150058380D01*
X70302571Y-150058380D01*
X70207333Y-150010761D01*
X70159714Y-149963142D01*
X70112095Y-149867904D01*
X70112095Y-149677428D01*
X70159714Y-149582190D01*
X70207333Y-149534571D01*
X70302571Y-149486952D01*
X80144857Y-160980380D02*
X80478190Y-160504190D01*
X80716285Y-160980380D02*
X80716285Y-159980380D01*
X80335333Y-159980380D01*
X80240095Y-160028000D01*
X80192476Y-160075619D01*
X80144857Y-160170857D01*
X80144857Y-160313714D01*
X80192476Y-160408952D01*
X80240095Y-160456571D01*
X80335333Y-160504190D01*
X80716285Y-160504190D01*
X79192476Y-160980380D02*
X79763904Y-160980380D01*
X79478190Y-160980380D02*
X79478190Y-159980380D01*
X79573428Y-160123238D01*
X79668666Y-160218476D01*
X79763904Y-160266095D01*
X78287714Y-159980380D02*
X78763904Y-159980380D01*
X78811523Y-160456571D01*
X78763904Y-160408952D01*
X78668666Y-160361333D01*
X78430571Y-160361333D01*
X78335333Y-160408952D01*
X78287714Y-160456571D01*
X78240095Y-160551809D01*
X78240095Y-160789904D01*
X78287714Y-160885142D01*
X78335333Y-160932761D01*
X78430571Y-160980380D01*
X78668666Y-160980380D01*
X78763904Y-160932761D01*
X78811523Y-160885142D01*
X82176857Y-162504380D02*
X82510190Y-162028190D01*
X82748285Y-162504380D02*
X82748285Y-161504380D01*
X82367333Y-161504380D01*
X82272095Y-161552000D01*
X82224476Y-161599619D01*
X82176857Y-161694857D01*
X82176857Y-161837714D01*
X82224476Y-161932952D01*
X82272095Y-161980571D01*
X82367333Y-162028190D01*
X82748285Y-162028190D01*
X81224476Y-162504380D02*
X81795904Y-162504380D01*
X81510190Y-162504380D02*
X81510190Y-161504380D01*
X81605428Y-161647238D01*
X81700666Y-161742476D01*
X81795904Y-161790095D01*
X80367333Y-161837714D02*
X80367333Y-162504380D01*
X80605428Y-161456761D02*
X80843523Y-162171047D01*
X80224476Y-162171047D01*
X73604380Y-142613142D02*
X73128190Y-142279809D01*
X73604380Y-142041714D02*
X72604380Y-142041714D01*
X72604380Y-142422666D01*
X72652000Y-142517904D01*
X72699619Y-142565523D01*
X72794857Y-142613142D01*
X72937714Y-142613142D01*
X73032952Y-142565523D01*
X73080571Y-142517904D01*
X73128190Y-142422666D01*
X73128190Y-142041714D01*
X73604380Y-143565523D02*
X73604380Y-142994095D01*
X73604380Y-143279809D02*
X72604380Y-143279809D01*
X72747238Y-143184571D01*
X72842476Y-143089333D01*
X72890095Y-142994095D01*
X72604380Y-143898857D02*
X72604380Y-144517904D01*
X72985333Y-144184571D01*
X72985333Y-144327428D01*
X73032952Y-144422666D01*
X73080571Y-144470285D01*
X73175809Y-144517904D01*
X73413904Y-144517904D01*
X73509142Y-144470285D01*
X73556761Y-144422666D01*
X73604380Y-144327428D01*
X73604380Y-144041714D01*
X73556761Y-143946476D01*
X73509142Y-143898857D01*
X81668857Y-140660380D02*
X82002190Y-140184190D01*
X82240285Y-140660380D02*
X82240285Y-139660380D01*
X81859333Y-139660380D01*
X81764095Y-139708000D01*
X81716476Y-139755619D01*
X81668857Y-139850857D01*
X81668857Y-139993714D01*
X81716476Y-140088952D01*
X81764095Y-140136571D01*
X81859333Y-140184190D01*
X82240285Y-140184190D01*
X80716476Y-140660380D02*
X81287904Y-140660380D01*
X81002190Y-140660380D02*
X81002190Y-139660380D01*
X81097428Y-139803238D01*
X81192666Y-139898476D01*
X81287904Y-139946095D01*
X80335523Y-139755619D02*
X80287904Y-139708000D01*
X80192666Y-139660380D01*
X79954571Y-139660380D01*
X79859333Y-139708000D01*
X79811714Y-139755619D01*
X79764095Y-139850857D01*
X79764095Y-139946095D01*
X79811714Y-140088952D01*
X80383142Y-140660380D01*
X79764095Y-140660380D01*
X76832657Y-153723280D02*
X77165990Y-153247090D01*
X77404085Y-153723280D02*
X77404085Y-152723280D01*
X77023133Y-152723280D01*
X76927895Y-152770900D01*
X76880276Y-152818519D01*
X76832657Y-152913757D01*
X76832657Y-153056614D01*
X76880276Y-153151852D01*
X76927895Y-153199471D01*
X77023133Y-153247090D01*
X77404085Y-153247090D01*
X75880276Y-153723280D02*
X76451704Y-153723280D01*
X76165990Y-153723280D02*
X76165990Y-152723280D01*
X76261228Y-152866138D01*
X76356466Y-152961376D01*
X76451704Y-153008995D01*
X74927895Y-153723280D02*
X75499323Y-153723280D01*
X75213609Y-153723280D02*
X75213609Y-152723280D01*
X75308847Y-152866138D01*
X75404085Y-152961376D01*
X75499323Y-153008995D01*
X73794857Y-152852380D02*
X74128190Y-152376190D01*
X74366285Y-152852380D02*
X74366285Y-151852380D01*
X73985333Y-151852380D01*
X73890095Y-151900000D01*
X73842476Y-151947619D01*
X73794857Y-152042857D01*
X73794857Y-152185714D01*
X73842476Y-152280952D01*
X73890095Y-152328571D01*
X73985333Y-152376190D01*
X74366285Y-152376190D01*
X72842476Y-152852380D02*
X73413904Y-152852380D01*
X73128190Y-152852380D02*
X73128190Y-151852380D01*
X73223428Y-151995238D01*
X73318666Y-152090476D01*
X73413904Y-152138095D01*
X72223428Y-151852380D02*
X72128190Y-151852380D01*
X72032952Y-151900000D01*
X71985333Y-151947619D01*
X71937714Y-152042857D01*
X71890095Y-152233333D01*
X71890095Y-152471428D01*
X71937714Y-152661904D01*
X71985333Y-152757142D01*
X72032952Y-152804761D01*
X72128190Y-152852380D01*
X72223428Y-152852380D01*
X72318666Y-152804761D01*
X72366285Y-152757142D01*
X72413904Y-152661904D01*
X72461523Y-152471428D01*
X72461523Y-152233333D01*
X72413904Y-152042857D01*
X72366285Y-151947619D01*
X72318666Y-151900000D01*
X72223428Y-151852380D01*
X54268666Y-151836380D02*
X54602000Y-151360190D01*
X54840095Y-151836380D02*
X54840095Y-150836380D01*
X54459142Y-150836380D01*
X54363904Y-150884000D01*
X54316285Y-150931619D01*
X54268666Y-151026857D01*
X54268666Y-151169714D01*
X54316285Y-151264952D01*
X54363904Y-151312571D01*
X54459142Y-151360190D01*
X54840095Y-151360190D01*
X53792476Y-151836380D02*
X53602000Y-151836380D01*
X53506761Y-151788761D01*
X53459142Y-151741142D01*
X53363904Y-151598285D01*
X53316285Y-151407809D01*
X53316285Y-151026857D01*
X53363904Y-150931619D01*
X53411523Y-150884000D01*
X53506761Y-150836380D01*
X53697238Y-150836380D01*
X53792476Y-150884000D01*
X53840095Y-150931619D01*
X53887714Y-151026857D01*
X53887714Y-151264952D01*
X53840095Y-151360190D01*
X53792476Y-151407809D01*
X53697238Y-151455428D01*
X53506761Y-151455428D01*
X53411523Y-151407809D01*
X53363904Y-151360190D01*
X53316285Y-151264952D01*
X54268666Y-153360380D02*
X54602000Y-152884190D01*
X54840095Y-153360380D02*
X54840095Y-152360380D01*
X54459142Y-152360380D01*
X54363904Y-152408000D01*
X54316285Y-152455619D01*
X54268666Y-152550857D01*
X54268666Y-152693714D01*
X54316285Y-152788952D01*
X54363904Y-152836571D01*
X54459142Y-152884190D01*
X54840095Y-152884190D01*
X53697238Y-152788952D02*
X53792476Y-152741333D01*
X53840095Y-152693714D01*
X53887714Y-152598476D01*
X53887714Y-152550857D01*
X53840095Y-152455619D01*
X53792476Y-152408000D01*
X53697238Y-152360380D01*
X53506761Y-152360380D01*
X53411523Y-152408000D01*
X53363904Y-152455619D01*
X53316285Y-152550857D01*
X53316285Y-152598476D01*
X53363904Y-152693714D01*
X53411523Y-152741333D01*
X53506761Y-152788952D01*
X53697238Y-152788952D01*
X53792476Y-152836571D01*
X53840095Y-152884190D01*
X53887714Y-152979428D01*
X53887714Y-153169904D01*
X53840095Y-153265142D01*
X53792476Y-153312761D01*
X53697238Y-153360380D01*
X53506761Y-153360380D01*
X53411523Y-153312761D01*
X53363904Y-153265142D01*
X53316285Y-153169904D01*
X53316285Y-152979428D01*
X53363904Y-152884190D01*
X53411523Y-152836571D01*
X53506761Y-152788952D01*
X53284380Y-146333333D02*
X52808190Y-146000000D01*
X53284380Y-145761904D02*
X52284380Y-145761904D01*
X52284380Y-146142857D01*
X52332000Y-146238095D01*
X52379619Y-146285714D01*
X52474857Y-146333333D01*
X52617714Y-146333333D01*
X52712952Y-146285714D01*
X52760571Y-146238095D01*
X52808190Y-146142857D01*
X52808190Y-145761904D01*
X52284380Y-147190476D02*
X52284380Y-147000000D01*
X52332000Y-146904761D01*
X52379619Y-146857142D01*
X52522476Y-146761904D01*
X52712952Y-146714285D01*
X53093904Y-146714285D01*
X53189142Y-146761904D01*
X53236761Y-146809523D01*
X53284380Y-146904761D01*
X53284380Y-147095238D01*
X53236761Y-147190476D01*
X53189142Y-147238095D01*
X53093904Y-147285714D01*
X52855809Y-147285714D01*
X52760571Y-147238095D01*
X52712952Y-147190476D01*
X52665333Y-147095238D01*
X52665333Y-146904761D01*
X52712952Y-146809523D01*
X52760571Y-146761904D01*
X52855809Y-146714285D01*
X58078666Y-150058380D02*
X58412000Y-149582190D01*
X58650095Y-150058380D02*
X58650095Y-149058380D01*
X58269142Y-149058380D01*
X58173904Y-149106000D01*
X58126285Y-149153619D01*
X58078666Y-149248857D01*
X58078666Y-149391714D01*
X58126285Y-149486952D01*
X58173904Y-149534571D01*
X58269142Y-149582190D01*
X58650095Y-149582190D01*
X57173904Y-149058380D02*
X57650095Y-149058380D01*
X57697714Y-149534571D01*
X57650095Y-149486952D01*
X57554857Y-149439333D01*
X57316761Y-149439333D01*
X57221523Y-149486952D01*
X57173904Y-149534571D01*
X57126285Y-149629809D01*
X57126285Y-149867904D01*
X57173904Y-149963142D01*
X57221523Y-150010761D01*
X57316761Y-150058380D01*
X57554857Y-150058380D01*
X57650095Y-150010761D01*
X57697714Y-149963142D01*
X57316666Y-147518380D02*
X57650000Y-147042190D01*
X57888095Y-147518380D02*
X57888095Y-146518380D01*
X57507142Y-146518380D01*
X57411904Y-146566000D01*
X57364285Y-146613619D01*
X57316666Y-146708857D01*
X57316666Y-146851714D01*
X57364285Y-146946952D01*
X57411904Y-146994571D01*
X57507142Y-147042190D01*
X57888095Y-147042190D01*
X56983333Y-146518380D02*
X56364285Y-146518380D01*
X56697619Y-146899333D01*
X56554761Y-146899333D01*
X56459523Y-146946952D01*
X56411904Y-146994571D01*
X56364285Y-147089809D01*
X56364285Y-147327904D01*
X56411904Y-147423142D01*
X56459523Y-147470761D01*
X56554761Y-147518380D01*
X56840476Y-147518380D01*
X56935714Y-147470761D01*
X56983333Y-147423142D01*
X54776666Y-138628380D02*
X55110000Y-138152190D01*
X55348095Y-138628380D02*
X55348095Y-137628380D01*
X54967142Y-137628380D01*
X54871904Y-137676000D01*
X54824285Y-137723619D01*
X54776666Y-137818857D01*
X54776666Y-137961714D01*
X54824285Y-138056952D01*
X54871904Y-138104571D01*
X54967142Y-138152190D01*
X55348095Y-138152190D01*
X54395714Y-137723619D02*
X54348095Y-137676000D01*
X54252857Y-137628380D01*
X54014761Y-137628380D01*
X53919523Y-137676000D01*
X53871904Y-137723619D01*
X53824285Y-137818857D01*
X53824285Y-137914095D01*
X53871904Y-138056952D01*
X54443333Y-138628380D01*
X53824285Y-138628380D01*
X63595238Y-143803619D02*
X63690476Y-143756000D01*
X63785714Y-143660761D01*
X63928571Y-143517904D01*
X64023809Y-143470285D01*
X64119047Y-143470285D01*
X64071428Y-143708380D02*
X64166666Y-143660761D01*
X64261904Y-143565523D01*
X64309523Y-143375047D01*
X64309523Y-143041714D01*
X64261904Y-142851238D01*
X64166666Y-142756000D01*
X64071428Y-142708380D01*
X63880952Y-142708380D01*
X63785714Y-142756000D01*
X63690476Y-142851238D01*
X63642857Y-143041714D01*
X63642857Y-143375047D01*
X63690476Y-143565523D01*
X63785714Y-143660761D01*
X63880952Y-143708380D01*
X64071428Y-143708380D01*
X63309523Y-142708380D02*
X62690476Y-142708380D01*
X63023809Y-143089333D01*
X62880952Y-143089333D01*
X62785714Y-143136952D01*
X62738095Y-143184571D01*
X62690476Y-143279809D01*
X62690476Y-143517904D01*
X62738095Y-143613142D01*
X62785714Y-143660761D01*
X62880952Y-143708380D01*
X63166666Y-143708380D01*
X63261904Y-143660761D01*
X63309523Y-143613142D01*
X54451238Y-143549619D02*
X54546476Y-143502000D01*
X54641714Y-143406761D01*
X54784571Y-143263904D01*
X54879809Y-143216285D01*
X54975047Y-143216285D01*
X54927428Y-143454380D02*
X55022666Y-143406761D01*
X55117904Y-143311523D01*
X55165523Y-143121047D01*
X55165523Y-142787714D01*
X55117904Y-142597238D01*
X55022666Y-142502000D01*
X54927428Y-142454380D01*
X54736952Y-142454380D01*
X54641714Y-142502000D01*
X54546476Y-142597238D01*
X54498857Y-142787714D01*
X54498857Y-143121047D01*
X54546476Y-143311523D01*
X54641714Y-143406761D01*
X54736952Y-143454380D01*
X54927428Y-143454380D01*
X54117904Y-142549619D02*
X54070285Y-142502000D01*
X53975047Y-142454380D01*
X53736952Y-142454380D01*
X53641714Y-142502000D01*
X53594095Y-142549619D01*
X53546476Y-142644857D01*
X53546476Y-142740095D01*
X53594095Y-142882952D01*
X54165523Y-143454380D01*
X53546476Y-143454380D01*
X31672380Y-132611904D02*
X30672380Y-132611904D01*
X30672380Y-132850000D01*
X30720000Y-132992857D01*
X30815238Y-133088095D01*
X30910476Y-133135714D01*
X31100952Y-133183333D01*
X31243809Y-133183333D01*
X31434285Y-133135714D01*
X31529523Y-133088095D01*
X31624761Y-132992857D01*
X31672380Y-132850000D01*
X31672380Y-132611904D01*
X31672380Y-134135714D02*
X31672380Y-133564285D01*
X31672380Y-133850000D02*
X30672380Y-133850000D01*
X30815238Y-133754761D01*
X30910476Y-133659523D01*
X30958095Y-133564285D01*
X82645238Y-153455619D02*
X82740476Y-153408000D01*
X82835714Y-153312761D01*
X82978571Y-153169904D01*
X83073809Y-153122285D01*
X83169047Y-153122285D01*
X83121428Y-153360380D02*
X83216666Y-153312761D01*
X83311904Y-153217523D01*
X83359523Y-153027047D01*
X83359523Y-152693714D01*
X83311904Y-152503238D01*
X83216666Y-152408000D01*
X83121428Y-152360380D01*
X82930952Y-152360380D01*
X82835714Y-152408000D01*
X82740476Y-152503238D01*
X82692857Y-152693714D01*
X82692857Y-153027047D01*
X82740476Y-153217523D01*
X82835714Y-153312761D01*
X82930952Y-153360380D01*
X83121428Y-153360380D01*
X81835714Y-152693714D02*
X81835714Y-153360380D01*
X82073809Y-152312761D02*
X82311904Y-153027047D01*
X81692857Y-153027047D01*
X82391238Y-144311619D02*
X82486476Y-144264000D01*
X82581714Y-144168761D01*
X82724571Y-144025904D01*
X82819809Y-143978285D01*
X82915047Y-143978285D01*
X82867428Y-144216380D02*
X82962666Y-144168761D01*
X83057904Y-144073523D01*
X83105523Y-143883047D01*
X83105523Y-143549714D01*
X83057904Y-143359238D01*
X82962666Y-143264000D01*
X82867428Y-143216380D01*
X82676952Y-143216380D01*
X82581714Y-143264000D01*
X82486476Y-143359238D01*
X82438857Y-143549714D01*
X82438857Y-143883047D01*
X82486476Y-144073523D01*
X82581714Y-144168761D01*
X82676952Y-144216380D01*
X82867428Y-144216380D01*
X81534095Y-143216380D02*
X82010285Y-143216380D01*
X82057904Y-143692571D01*
X82010285Y-143644952D01*
X81915047Y-143597333D01*
X81676952Y-143597333D01*
X81581714Y-143644952D01*
X81534095Y-143692571D01*
X81486476Y-143787809D01*
X81486476Y-144025904D01*
X81534095Y-144121142D01*
X81581714Y-144168761D01*
X81676952Y-144216380D01*
X81915047Y-144216380D01*
X82010285Y-144168761D01*
X82057904Y-144121142D01*
X73755238Y-167425619D02*
X73850476Y-167378000D01*
X73945714Y-167282761D01*
X74088571Y-167139904D01*
X74183809Y-167092285D01*
X74279047Y-167092285D01*
X74231428Y-167330380D02*
X74326666Y-167282761D01*
X74421904Y-167187523D01*
X74469523Y-166997047D01*
X74469523Y-166663714D01*
X74421904Y-166473238D01*
X74326666Y-166378000D01*
X74231428Y-166330380D01*
X74040952Y-166330380D01*
X73945714Y-166378000D01*
X73850476Y-166473238D01*
X73802857Y-166663714D01*
X73802857Y-166997047D01*
X73850476Y-167187523D01*
X73945714Y-167282761D01*
X74040952Y-167330380D01*
X74231428Y-167330380D01*
X72945714Y-166330380D02*
X73136190Y-166330380D01*
X73231428Y-166378000D01*
X73279047Y-166425619D01*
X73374285Y-166568476D01*
X73421904Y-166758952D01*
X73421904Y-167139904D01*
X73374285Y-167235142D01*
X73326666Y-167282761D01*
X73231428Y-167330380D01*
X73040952Y-167330380D01*
X72945714Y-167282761D01*
X72898095Y-167235142D01*
X72850476Y-167139904D01*
X72850476Y-166901809D01*
X72898095Y-166806571D01*
X72945714Y-166758952D01*
X73040952Y-166711333D01*
X73231428Y-166711333D01*
X73326666Y-166758952D01*
X73374285Y-166806571D01*
X73421904Y-166901809D01*
M02*
