M48
; DRILL file {KiCad (5.1.2)-1} date 08/06/19 13:37:00
; FORMAT={-:-/ absolute / inch / decimal}
; #@! TF.CreationDate,2019-06-08T13:37:00+05:00
; #@! TF.GenerationSoftware,Kicad,Pcbnew,(5.1.2)-1
; #@! TF.FileFunction,Plated,1,2,PTH
FMAT,2
INCH
T1C0.0295
T2C0.0394
T3C0.0400
T4C0.0709
T5C0.1378
%
G90
G05
T1
X5.335Y-6.937
X5.4137Y-6.937
X5.4925Y-6.937
X5.5712Y-6.937
T2
X3.4Y-4.8
X3.4Y-4.9
X3.4Y-5.0
X3.4Y-5.1
X3.4Y-5.2
X3.4Y-5.3
X3.4Y-5.4
X3.4Y-5.5
X3.4Y-5.6
X3.4Y-5.7
X3.4Y-5.8
X3.4Y-5.9
X3.4Y-6.0
X3.4Y-6.1
X3.4Y-6.2
X3.4Y-6.3
X3.4Y-6.4
X3.4Y-6.5
X3.4Y-6.6
X3.4Y-6.7
X3.5Y-4.8
X3.5Y-4.9
X3.5Y-5.0
X3.5Y-5.1
X3.5Y-5.2
X3.5Y-5.3
X3.5Y-5.4
X3.5Y-5.5
X3.5Y-5.6
X3.5Y-5.7
X3.5Y-5.8
X3.5Y-5.9
X3.5Y-6.0
X3.5Y-6.1
X3.5Y-6.2
X3.5Y-6.3
X3.5Y-6.4
X3.5Y-6.5
X3.5Y-6.6
X3.5Y-6.7
X5.4016Y-5.9724
X3.8Y-6.3
X3.9Y-6.3
X4.0Y-6.3
X4.1Y-6.3
X4.2Y-6.3
X4.3Y-6.3
X4.4Y-6.3
X4.5Y-6.3
X4.6Y-6.3
X4.7Y-6.3
X4.8Y-6.3
X4.9Y-6.3
X5.0Y-6.3
X5.1Y-6.3
X5.2Y-6.3
X5.3Y-6.3
X5.4016Y-5.7559
X1.6Y-4.5
X1.6Y-5.1692
X3.096Y-4.5
X3.096Y-5.1692
T3
X2.0Y-5.5
X2.0Y-5.6
X2.0Y-5.9
X2.3Y-6.6
X2.5Y-5.85
X2.5Y-5.95
X2.6Y-5.5
X2.6Y-5.8
X2.6Y-6.3
X2.6Y-6.4
X2.6Y-6.5
X2.6Y-6.6
T4
X1.4693Y-6.3961
X1.4693Y-6.6126
X1.6346Y-6.3961
X1.6346Y-6.6126
X1.8Y-6.3961
X1.8Y-6.6126
T5
X1.0669Y-4.8039
X1.0669Y-6.2606
X5.5945Y-4.8039
X5.5945Y-6.2606
T0
M30
