M48
; DRILL file {KiCad (5.1.2)-1} date 14/06/19 16:16:53
; FORMAT={-:-/ absolute / inch / decimal}
; #@! TF.CreationDate,2019-06-14T16:16:53+05:00
; #@! TF.GenerationSoftware,Kicad,Pcbnew,(5.1.2)-1
; #@! TF.FileFunction,Plated,1,2,PTH
FMAT,2
INCH
T1C0.0295
T2C0.0394
T3C0.0400
T4C0.0709
T5C0.1378
%
G90
G05
T1
X3.81Y-6.68
X3.8887Y-6.68
X3.9675Y-6.68
X4.0462Y-6.68
T2
X4.74Y-6.1
X4.84Y-6.1
X4.94Y-6.1
X5.04Y-6.1
X5.14Y-6.1
X5.24Y-6.1
X5.34Y-6.1
X5.44Y-6.1
X5.54Y-6.1
X5.64Y-6.1
X5.74Y-6.1
X5.84Y-6.1
X5.94Y-6.1
X6.04Y-6.1
X6.14Y-6.1
X6.24Y-6.1
X6.3416Y-5.5559
X6.3416Y-5.7724
X4.34Y-4.6
X4.34Y-4.7
X4.34Y-4.8
X4.34Y-4.9
X4.34Y-5.0
X4.34Y-5.1
X4.34Y-5.2
X4.34Y-5.3
X4.34Y-5.4
X4.34Y-5.5
X4.34Y-5.6
X4.34Y-5.7
X4.34Y-5.8
X4.34Y-5.9
X4.34Y-6.0
X4.34Y-6.1
X4.34Y-6.2
X4.34Y-6.3
X4.34Y-6.4
X4.34Y-6.5
X4.44Y-4.6
X4.44Y-4.7
X4.44Y-4.8
X4.44Y-4.9
X4.44Y-5.0
X4.44Y-5.1
X4.44Y-5.2
X4.44Y-5.3
X4.44Y-5.4
X4.44Y-5.5
X4.44Y-5.6
X4.44Y-5.7
X4.44Y-5.8
X4.44Y-5.9
X4.44Y-6.0
X4.44Y-6.1
X4.44Y-6.2
X4.44Y-6.3
X4.44Y-6.4
X4.44Y-6.5
X2.54Y-4.3
X2.54Y-4.9692
X4.036Y-4.3
X4.036Y-4.9692
T3
X2.94Y-5.3
X2.94Y-5.4
X2.94Y-5.7
X3.24Y-6.4
X3.44Y-5.65
X3.44Y-5.75
X3.54Y-5.3
X3.54Y-5.6
X3.54Y-6.1
X3.54Y-6.2
X3.54Y-6.3
X3.54Y-6.4
T4
X2.4093Y-6.1961
X2.4093Y-6.4126
X2.5746Y-6.1961
X2.5746Y-6.4126
X2.74Y-6.1961
X2.74Y-6.4126
T5
X2.0069Y-4.6039
X2.0069Y-6.0606
X6.5345Y-4.6039
X6.5345Y-6.0606
T0
M30
