G04 #@! TF.GenerationSoftware,KiCad,Pcbnew,(5.1.2)-1*
G04 #@! TF.CreationDate,2019-06-14T16:17:24+05:00*
G04 #@! TF.ProjectId,evend-adapter,6576656e-642d-4616-9461-707465722e6b,rev?*
G04 #@! TF.SameCoordinates,Original*
G04 #@! TF.FileFunction,Soldermask,Bot*
G04 #@! TF.FilePolarity,Negative*
%FSLAX46Y46*%
G04 Gerber Fmt 4.6, Leading zero omitted, Abs format (unit mm)*
G04 Created by KiCad (PCBNEW (5.1.2)-1) date 2019-06-14 16:17:24*
%MOMM*%
%LPD*%
G04 APERTURE LIST*
%ADD10C,0.100000*%
G04 APERTURE END LIST*
D10*
G36*
X153238643Y-169445326D02*
G01*
X153619207Y-169521025D01*
X154187921Y-169756594D01*
X154699750Y-170098587D01*
X155135024Y-170533861D01*
X155477017Y-171045690D01*
X155712586Y-171614404D01*
X155832678Y-172218147D01*
X155832678Y-172833719D01*
X155712586Y-173437462D01*
X155477017Y-174006176D01*
X155135024Y-174518005D01*
X154699750Y-174953279D01*
X154187921Y-175295272D01*
X153619207Y-175530841D01*
X153317335Y-175590887D01*
X153015465Y-175650933D01*
X152399891Y-175650933D01*
X152098021Y-175590887D01*
X151796149Y-175530841D01*
X151227435Y-175295272D01*
X150715606Y-174953279D01*
X150280332Y-174518005D01*
X149938339Y-174006176D01*
X149702770Y-173437462D01*
X149582678Y-172833719D01*
X149582678Y-172218147D01*
X149702770Y-171614404D01*
X149938339Y-171045690D01*
X150280332Y-170533861D01*
X150715606Y-170098587D01*
X151227435Y-169756594D01*
X151796149Y-169521025D01*
X152176713Y-169445326D01*
X152399891Y-169400933D01*
X153015465Y-169400933D01*
X153238643Y-169445326D01*
X153238643Y-169445326D01*
G37*
G36*
X111126680Y-169445326D02*
G01*
X111507244Y-169521025D01*
X112075958Y-169756594D01*
X112587787Y-170098587D01*
X113023061Y-170533861D01*
X113365054Y-171045690D01*
X113600623Y-171614404D01*
X113720715Y-172218147D01*
X113720715Y-172833719D01*
X113600623Y-173437462D01*
X113365054Y-174006176D01*
X113023061Y-174518005D01*
X112587787Y-174953279D01*
X112075958Y-175295272D01*
X111507244Y-175530841D01*
X111205372Y-175590887D01*
X110903502Y-175650933D01*
X110287928Y-175650933D01*
X109986058Y-175590887D01*
X109684186Y-175530841D01*
X109115472Y-175295272D01*
X108603643Y-174953279D01*
X108168369Y-174518005D01*
X107826376Y-174006176D01*
X107590807Y-173437462D01*
X107470715Y-172833719D01*
X107470715Y-172218147D01*
X107590807Y-171614404D01*
X107826376Y-171045690D01*
X108168369Y-170533861D01*
X108603643Y-170098587D01*
X109115472Y-169756594D01*
X109684186Y-169521025D01*
X110064750Y-169445326D01*
X110287928Y-169400933D01*
X110903502Y-169400933D01*
X111126680Y-169445326D01*
X111126680Y-169445326D01*
G37*
G36*
X69898585Y-168658802D02*
G01*
X70048410Y-168688604D01*
X70330674Y-168805521D01*
X70584705Y-168975259D01*
X70800741Y-169191295D01*
X70970479Y-169445326D01*
X71087396Y-169727590D01*
X71147000Y-170027240D01*
X71147000Y-170332760D01*
X71087396Y-170632410D01*
X70970479Y-170914674D01*
X70800741Y-171168705D01*
X70584705Y-171384741D01*
X70330674Y-171554479D01*
X70048410Y-171671396D01*
X69898585Y-171701198D01*
X69748761Y-171731000D01*
X69443239Y-171731000D01*
X69293415Y-171701198D01*
X69143590Y-171671396D01*
X68861326Y-171554479D01*
X68607295Y-171384741D01*
X68391259Y-171168705D01*
X68221521Y-170914674D01*
X68104604Y-170632410D01*
X68045000Y-170332760D01*
X68045000Y-170027240D01*
X68104604Y-169727590D01*
X68221521Y-169445326D01*
X68391259Y-169191295D01*
X68607295Y-168975259D01*
X68861326Y-168805521D01*
X69143590Y-168688604D01*
X69293415Y-168658802D01*
X69443239Y-168629000D01*
X69748761Y-168629000D01*
X69898585Y-168658802D01*
X69898585Y-168658802D01*
G37*
G36*
X61498585Y-168658802D02*
G01*
X61648410Y-168688604D01*
X61930674Y-168805521D01*
X62184705Y-168975259D01*
X62400741Y-169191295D01*
X62570479Y-169445326D01*
X62687396Y-169727590D01*
X62747000Y-170027240D01*
X62747000Y-170332760D01*
X62687396Y-170632410D01*
X62570479Y-170914674D01*
X62400741Y-171168705D01*
X62184705Y-171384741D01*
X61930674Y-171554479D01*
X61648410Y-171671396D01*
X61498585Y-171701198D01*
X61348761Y-171731000D01*
X61043239Y-171731000D01*
X60893415Y-171701198D01*
X60743590Y-171671396D01*
X60461326Y-171554479D01*
X60207295Y-171384741D01*
X59991259Y-171168705D01*
X59821521Y-170914674D01*
X59704604Y-170632410D01*
X59645000Y-170332760D01*
X59645000Y-170027240D01*
X59704604Y-169727590D01*
X59821521Y-169445326D01*
X59991259Y-169191295D01*
X60207295Y-168975259D01*
X60461326Y-168805521D01*
X60743590Y-168688604D01*
X60893415Y-168658802D01*
X61043239Y-168629000D01*
X61348761Y-168629000D01*
X61498585Y-168658802D01*
X61498585Y-168658802D01*
G37*
G36*
X98901617Y-168780420D02*
G01*
X98992403Y-168807960D01*
X99024335Y-168817646D01*
X99137424Y-168878094D01*
X99236554Y-168959447D01*
X99317906Y-169058575D01*
X99378354Y-169171664D01*
X99384309Y-169191295D01*
X99415580Y-169294382D01*
X99425000Y-169390027D01*
X99425000Y-169953973D01*
X99415580Y-170049618D01*
X99400725Y-170098587D01*
X99378354Y-170172336D01*
X99317906Y-170285425D01*
X99236554Y-170384554D01*
X99137425Y-170465906D01*
X99024336Y-170526354D01*
X98999588Y-170533861D01*
X98901618Y-170563580D01*
X98774000Y-170576149D01*
X98646383Y-170563580D01*
X98548413Y-170533861D01*
X98523665Y-170526354D01*
X98410576Y-170465906D01*
X98311447Y-170384553D01*
X98230094Y-170285425D01*
X98169646Y-170172336D01*
X98147275Y-170098587D01*
X98132420Y-170049618D01*
X98123000Y-169953973D01*
X98123000Y-169390028D01*
X98132420Y-169294383D01*
X98169645Y-169171669D01*
X98169646Y-169171665D01*
X98230094Y-169058576D01*
X98311447Y-168959446D01*
X98410575Y-168878094D01*
X98523664Y-168817646D01*
X98555596Y-168807960D01*
X98646382Y-168780420D01*
X98774000Y-168767851D01*
X98901617Y-168780420D01*
X98901617Y-168780420D01*
G37*
G36*
X102901617Y-168780420D02*
G01*
X102992403Y-168807960D01*
X103024335Y-168817646D01*
X103137424Y-168878094D01*
X103236554Y-168959447D01*
X103317906Y-169058575D01*
X103378354Y-169171664D01*
X103384309Y-169191295D01*
X103415580Y-169294382D01*
X103425000Y-169390027D01*
X103425000Y-169953973D01*
X103415580Y-170049618D01*
X103400725Y-170098587D01*
X103378354Y-170172336D01*
X103317906Y-170285425D01*
X103236554Y-170384554D01*
X103137425Y-170465906D01*
X103024336Y-170526354D01*
X102999588Y-170533861D01*
X102901618Y-170563580D01*
X102774000Y-170576149D01*
X102646383Y-170563580D01*
X102548413Y-170533861D01*
X102523665Y-170526354D01*
X102410576Y-170465906D01*
X102311447Y-170384553D01*
X102230094Y-170285425D01*
X102169646Y-170172336D01*
X102147275Y-170098587D01*
X102132420Y-170049618D01*
X102123000Y-169953973D01*
X102123000Y-169390028D01*
X102132420Y-169294383D01*
X102169645Y-169171669D01*
X102169646Y-169171665D01*
X102230094Y-169058576D01*
X102311447Y-168959446D01*
X102410575Y-168878094D01*
X102523664Y-168817646D01*
X102555596Y-168807960D01*
X102646382Y-168780420D01*
X102774000Y-168767851D01*
X102901617Y-168780420D01*
X102901617Y-168780420D01*
G37*
G36*
X100901617Y-168780420D02*
G01*
X100992403Y-168807960D01*
X101024335Y-168817646D01*
X101137424Y-168878094D01*
X101236554Y-168959447D01*
X101317906Y-169058575D01*
X101378354Y-169171664D01*
X101384309Y-169191295D01*
X101415580Y-169294382D01*
X101425000Y-169390027D01*
X101425000Y-169953973D01*
X101415580Y-170049618D01*
X101400725Y-170098587D01*
X101378354Y-170172336D01*
X101317906Y-170285425D01*
X101236554Y-170384554D01*
X101137425Y-170465906D01*
X101024336Y-170526354D01*
X100999588Y-170533861D01*
X100901618Y-170563580D01*
X100774000Y-170576149D01*
X100646383Y-170563580D01*
X100548413Y-170533861D01*
X100523665Y-170526354D01*
X100410576Y-170465906D01*
X100311447Y-170384553D01*
X100230094Y-170285425D01*
X100169646Y-170172336D01*
X100147275Y-170098587D01*
X100132420Y-170049618D01*
X100123000Y-169953973D01*
X100123000Y-169390028D01*
X100132420Y-169294383D01*
X100169645Y-169171669D01*
X100169646Y-169171665D01*
X100230094Y-169058576D01*
X100311447Y-168959446D01*
X100410575Y-168878094D01*
X100523664Y-168817646D01*
X100555596Y-168807960D01*
X100646382Y-168780420D01*
X100774000Y-168767851D01*
X100901617Y-168780420D01*
X100901617Y-168780420D01*
G37*
G36*
X97425000Y-170573000D02*
G01*
X96123000Y-170573000D01*
X96123000Y-168771000D01*
X97425000Y-168771000D01*
X97425000Y-170573000D01*
X97425000Y-170573000D01*
G37*
G36*
X128867000Y-168881000D02*
G01*
X127165000Y-168881000D01*
X127165000Y-166779000D01*
X128867000Y-166779000D01*
X128867000Y-168881000D01*
X128867000Y-168881000D01*
G37*
G36*
X112886442Y-164205518D02*
G01*
X112952627Y-164212037D01*
X113122466Y-164263557D01*
X113278991Y-164347222D01*
X113308447Y-164371396D01*
X113416186Y-164459814D01*
X113499448Y-164561271D01*
X113528778Y-164597009D01*
X113612443Y-164753534D01*
X113663963Y-164923373D01*
X113681359Y-165100000D01*
X113663963Y-165276627D01*
X113612443Y-165446466D01*
X113528778Y-165602991D01*
X113499448Y-165638729D01*
X113416186Y-165740186D01*
X113314729Y-165823448D01*
X113278991Y-165852778D01*
X113122466Y-165936443D01*
X112952627Y-165987963D01*
X112886443Y-165994481D01*
X112820260Y-166001000D01*
X112731740Y-166001000D01*
X112665557Y-165994481D01*
X112599373Y-165987963D01*
X112429534Y-165936443D01*
X112273009Y-165852778D01*
X112237271Y-165823448D01*
X112135814Y-165740186D01*
X112052552Y-165638729D01*
X112023222Y-165602991D01*
X111939557Y-165446466D01*
X111888037Y-165276627D01*
X111870641Y-165100000D01*
X111888037Y-164923373D01*
X111939557Y-164753534D01*
X112023222Y-164597009D01*
X112052552Y-164561271D01*
X112135814Y-164459814D01*
X112243553Y-164371396D01*
X112273009Y-164347222D01*
X112429534Y-164263557D01*
X112599373Y-164212037D01*
X112665558Y-164205518D01*
X112731740Y-164199000D01*
X112820260Y-164199000D01*
X112886442Y-164205518D01*
X112886442Y-164205518D01*
G37*
G36*
X111137000Y-166001000D02*
G01*
X109335000Y-166001000D01*
X109335000Y-164199000D01*
X111137000Y-164199000D01*
X111137000Y-166001000D01*
X111137000Y-166001000D01*
G37*
G36*
X128867000Y-164881000D02*
G01*
X127165000Y-164881000D01*
X127165000Y-162779000D01*
X128867000Y-162779000D01*
X128867000Y-164881000D01*
X128867000Y-164881000D01*
G37*
G36*
X135471000Y-164849000D02*
G01*
X133769000Y-164849000D01*
X133769000Y-162747000D01*
X135471000Y-162747000D01*
X135471000Y-164849000D01*
X135471000Y-164849000D01*
G37*
G36*
X71147000Y-164431000D02*
G01*
X68045000Y-164431000D01*
X68045000Y-161329000D01*
X71147000Y-161329000D01*
X71147000Y-164431000D01*
X71147000Y-164431000D01*
G37*
G36*
X61498585Y-161358802D02*
G01*
X61648410Y-161388604D01*
X61930674Y-161505521D01*
X62184705Y-161675259D01*
X62400741Y-161891295D01*
X62570479Y-162145326D01*
X62687396Y-162427590D01*
X62747000Y-162727240D01*
X62747000Y-163032760D01*
X62687396Y-163332410D01*
X62570479Y-163614674D01*
X62400741Y-163868705D01*
X62184705Y-164084741D01*
X61930674Y-164254479D01*
X61648410Y-164371396D01*
X61498585Y-164401198D01*
X61348761Y-164431000D01*
X61043239Y-164431000D01*
X60893415Y-164401198D01*
X60743590Y-164371396D01*
X60461326Y-164254479D01*
X60207295Y-164084741D01*
X59991259Y-163868705D01*
X59821521Y-163614674D01*
X59704604Y-163332410D01*
X59645000Y-163032760D01*
X59645000Y-162727240D01*
X59704604Y-162427590D01*
X59821521Y-162145326D01*
X59991259Y-161891295D01*
X60207295Y-161675259D01*
X60461326Y-161505521D01*
X60743590Y-161388604D01*
X60893415Y-161358802D01*
X61043239Y-161329000D01*
X61348761Y-161329000D01*
X61498585Y-161358802D01*
X61498585Y-161358802D01*
G37*
G36*
X65698585Y-161358802D02*
G01*
X65848410Y-161388604D01*
X66130674Y-161505521D01*
X66384705Y-161675259D01*
X66600741Y-161891295D01*
X66770479Y-162145326D01*
X66887396Y-162427590D01*
X66947000Y-162727240D01*
X66947000Y-163032760D01*
X66887396Y-163332410D01*
X66770479Y-163614674D01*
X66600741Y-163868705D01*
X66384705Y-164084741D01*
X66130674Y-164254479D01*
X65848410Y-164371396D01*
X65698585Y-164401198D01*
X65548761Y-164431000D01*
X65243239Y-164431000D01*
X65093415Y-164401198D01*
X64943590Y-164371396D01*
X64661326Y-164254479D01*
X64407295Y-164084741D01*
X64191259Y-163868705D01*
X64021521Y-163614674D01*
X63904604Y-163332410D01*
X63845000Y-163032760D01*
X63845000Y-162727240D01*
X63904604Y-162427590D01*
X64021521Y-162145326D01*
X64191259Y-161891295D01*
X64407295Y-161675259D01*
X64661326Y-161505521D01*
X64943590Y-161388604D01*
X65093415Y-161358802D01*
X65243239Y-161329000D01*
X65548761Y-161329000D01*
X65698585Y-161358802D01*
X65698585Y-161358802D01*
G37*
G36*
X90182778Y-161680547D02*
G01*
X90349224Y-161749491D01*
X90499022Y-161849583D01*
X90626417Y-161976978D01*
X90726509Y-162126776D01*
X90795453Y-162293222D01*
X90830600Y-162469918D01*
X90830600Y-162650082D01*
X90795453Y-162826778D01*
X90726509Y-162993224D01*
X90626417Y-163143022D01*
X90499022Y-163270417D01*
X90349224Y-163370509D01*
X90182778Y-163439453D01*
X90006082Y-163474600D01*
X89825918Y-163474600D01*
X89649222Y-163439453D01*
X89482776Y-163370509D01*
X89332978Y-163270417D01*
X89205583Y-163143022D01*
X89105491Y-162993224D01*
X89036547Y-162826778D01*
X89001400Y-162650082D01*
X89001400Y-162469918D01*
X89036547Y-162293222D01*
X89105491Y-162126776D01*
X89205583Y-161976978D01*
X89332978Y-161849583D01*
X89482776Y-161749491D01*
X89649222Y-161680547D01*
X89825918Y-161645400D01*
X90006082Y-161645400D01*
X90182778Y-161680547D01*
X90182778Y-161680547D01*
G37*
G36*
X82562778Y-161680547D02*
G01*
X82729224Y-161749491D01*
X82879022Y-161849583D01*
X83006417Y-161976978D01*
X83106509Y-162126776D01*
X83175453Y-162293222D01*
X83210600Y-162469918D01*
X83210600Y-162650082D01*
X83175453Y-162826778D01*
X83106509Y-162993224D01*
X83006417Y-163143022D01*
X82879022Y-163270417D01*
X82729224Y-163370509D01*
X82562778Y-163439453D01*
X82386082Y-163474600D01*
X82205918Y-163474600D01*
X82029222Y-163439453D01*
X81862776Y-163370509D01*
X81712978Y-163270417D01*
X81585583Y-163143022D01*
X81485491Y-162993224D01*
X81416547Y-162826778D01*
X81381400Y-162650082D01*
X81381400Y-162469918D01*
X81416547Y-162293222D01*
X81485491Y-162126776D01*
X81585583Y-161976978D01*
X81712978Y-161849583D01*
X81862776Y-161749491D01*
X82029222Y-161680547D01*
X82205918Y-161645400D01*
X82386082Y-161645400D01*
X82562778Y-161680547D01*
X82562778Y-161680547D01*
G37*
G36*
X110346442Y-161665518D02*
G01*
X110412627Y-161672037D01*
X110582466Y-161723557D01*
X110738991Y-161807222D01*
X110774729Y-161836552D01*
X110876186Y-161919814D01*
X110959448Y-162021271D01*
X110988778Y-162057009D01*
X111072443Y-162213534D01*
X111123963Y-162383373D01*
X111141359Y-162560000D01*
X111123963Y-162736627D01*
X111072443Y-162906466D01*
X110988778Y-163062991D01*
X110959448Y-163098729D01*
X110876186Y-163200186D01*
X110790609Y-163270416D01*
X110738991Y-163312778D01*
X110582466Y-163396443D01*
X110412627Y-163447963D01*
X110346442Y-163454482D01*
X110280260Y-163461000D01*
X110191740Y-163461000D01*
X110125558Y-163454482D01*
X110059373Y-163447963D01*
X109889534Y-163396443D01*
X109733009Y-163312778D01*
X109681391Y-163270416D01*
X109595814Y-163200186D01*
X109512552Y-163098729D01*
X109483222Y-163062991D01*
X109399557Y-162906466D01*
X109348037Y-162736627D01*
X109330641Y-162560000D01*
X109348037Y-162383373D01*
X109399557Y-162213534D01*
X109483222Y-162057009D01*
X109512552Y-162021271D01*
X109595814Y-161919814D01*
X109697271Y-161836552D01*
X109733009Y-161807222D01*
X109889534Y-161723557D01*
X110059373Y-161672037D01*
X110125558Y-161665518D01*
X110191740Y-161659000D01*
X110280260Y-161659000D01*
X110346442Y-161665518D01*
X110346442Y-161665518D01*
G37*
G36*
X112886442Y-161665518D02*
G01*
X112952627Y-161672037D01*
X113122466Y-161723557D01*
X113278991Y-161807222D01*
X113314729Y-161836552D01*
X113416186Y-161919814D01*
X113499448Y-162021271D01*
X113528778Y-162057009D01*
X113612443Y-162213534D01*
X113663963Y-162383373D01*
X113681359Y-162560000D01*
X113663963Y-162736627D01*
X113612443Y-162906466D01*
X113528778Y-163062991D01*
X113499448Y-163098729D01*
X113416186Y-163200186D01*
X113330609Y-163270416D01*
X113278991Y-163312778D01*
X113122466Y-163396443D01*
X112952627Y-163447963D01*
X112886442Y-163454482D01*
X112820260Y-163461000D01*
X112731740Y-163461000D01*
X112665558Y-163454482D01*
X112599373Y-163447963D01*
X112429534Y-163396443D01*
X112273009Y-163312778D01*
X112221391Y-163270416D01*
X112135814Y-163200186D01*
X112052552Y-163098729D01*
X112023222Y-163062991D01*
X111939557Y-162906466D01*
X111888037Y-162736627D01*
X111870641Y-162560000D01*
X111888037Y-162383373D01*
X111939557Y-162213534D01*
X112023222Y-162057009D01*
X112052552Y-162021271D01*
X112135814Y-161919814D01*
X112237271Y-161836552D01*
X112273009Y-161807222D01*
X112429534Y-161723557D01*
X112599373Y-161672037D01*
X112665558Y-161665518D01*
X112731740Y-161659000D01*
X112820260Y-161659000D01*
X112886442Y-161665518D01*
X112886442Y-161665518D01*
G37*
G36*
X101593000Y-161090800D02*
G01*
X100591000Y-161090800D01*
X100591000Y-160188800D01*
X101593000Y-160188800D01*
X101593000Y-161090800D01*
X101593000Y-161090800D01*
G37*
G36*
X90182778Y-159140547D02*
G01*
X90349224Y-159209491D01*
X90499022Y-159309583D01*
X90626417Y-159436978D01*
X90726509Y-159586776D01*
X90795453Y-159753222D01*
X90830600Y-159929918D01*
X90830600Y-160110082D01*
X90795453Y-160286778D01*
X90726509Y-160453224D01*
X90626417Y-160603022D01*
X90499022Y-160730417D01*
X90349224Y-160830509D01*
X90182778Y-160899453D01*
X90006082Y-160934600D01*
X89825918Y-160934600D01*
X89649222Y-160899453D01*
X89482776Y-160830509D01*
X89332978Y-160730417D01*
X89205583Y-160603022D01*
X89105491Y-160453224D01*
X89036547Y-160286778D01*
X89001400Y-160110082D01*
X89001400Y-159929918D01*
X89036547Y-159753222D01*
X89105491Y-159586776D01*
X89205583Y-159436978D01*
X89332978Y-159309583D01*
X89482776Y-159209491D01*
X89649222Y-159140547D01*
X89825918Y-159105400D01*
X90006082Y-159105400D01*
X90182778Y-159140547D01*
X90182778Y-159140547D01*
G37*
G36*
X110346442Y-159125518D02*
G01*
X110412627Y-159132037D01*
X110582466Y-159183557D01*
X110738991Y-159267222D01*
X110774729Y-159296552D01*
X110876186Y-159379814D01*
X110959448Y-159481271D01*
X110988778Y-159517009D01*
X111072443Y-159673534D01*
X111123963Y-159843373D01*
X111141359Y-160020000D01*
X111123963Y-160196627D01*
X111072443Y-160366466D01*
X110988778Y-160522991D01*
X110959448Y-160558729D01*
X110876186Y-160660186D01*
X110790609Y-160730416D01*
X110738991Y-160772778D01*
X110582466Y-160856443D01*
X110412627Y-160907963D01*
X110346442Y-160914482D01*
X110280260Y-160921000D01*
X110191740Y-160921000D01*
X110125558Y-160914482D01*
X110059373Y-160907963D01*
X109889534Y-160856443D01*
X109733009Y-160772778D01*
X109681391Y-160730416D01*
X109595814Y-160660186D01*
X109512552Y-160558729D01*
X109483222Y-160522991D01*
X109399557Y-160366466D01*
X109348037Y-160196627D01*
X109330641Y-160020000D01*
X109348037Y-159843373D01*
X109399557Y-159673534D01*
X109483222Y-159517009D01*
X109512552Y-159481271D01*
X109595814Y-159379814D01*
X109697271Y-159296552D01*
X109733009Y-159267222D01*
X109889534Y-159183557D01*
X110059373Y-159132037D01*
X110125558Y-159125518D01*
X110191740Y-159119000D01*
X110280260Y-159119000D01*
X110346442Y-159125518D01*
X110346442Y-159125518D01*
G37*
G36*
X112886442Y-159125518D02*
G01*
X112952627Y-159132037D01*
X113122466Y-159183557D01*
X113278991Y-159267222D01*
X113314729Y-159296552D01*
X113416186Y-159379814D01*
X113499448Y-159481271D01*
X113528778Y-159517009D01*
X113612443Y-159673534D01*
X113663963Y-159843373D01*
X113681359Y-160020000D01*
X113663963Y-160196627D01*
X113612443Y-160366466D01*
X113528778Y-160522991D01*
X113499448Y-160558729D01*
X113416186Y-160660186D01*
X113330609Y-160730416D01*
X113278991Y-160772778D01*
X113122466Y-160856443D01*
X112952627Y-160907963D01*
X112886442Y-160914482D01*
X112820260Y-160921000D01*
X112731740Y-160921000D01*
X112665558Y-160914482D01*
X112599373Y-160907963D01*
X112429534Y-160856443D01*
X112273009Y-160772778D01*
X112221391Y-160730416D01*
X112135814Y-160660186D01*
X112052552Y-160558729D01*
X112023222Y-160522991D01*
X111939557Y-160366466D01*
X111888037Y-160196627D01*
X111870641Y-160020000D01*
X111888037Y-159843373D01*
X111939557Y-159673534D01*
X112023222Y-159517009D01*
X112052552Y-159481271D01*
X112135814Y-159379814D01*
X112237271Y-159296552D01*
X112273009Y-159267222D01*
X112429534Y-159183557D01*
X112599373Y-159132037D01*
X112665558Y-159125518D01*
X112731740Y-159119000D01*
X112820260Y-159119000D01*
X112886442Y-159125518D01*
X112886442Y-159125518D01*
G37*
G36*
X135471000Y-160849000D02*
G01*
X133769000Y-160849000D01*
X133769000Y-158747000D01*
X135471000Y-158747000D01*
X135471000Y-160849000D01*
X135471000Y-160849000D01*
G37*
G36*
X103653000Y-160649200D02*
G01*
X102351000Y-160649200D01*
X102351000Y-159797200D01*
X103653000Y-159797200D01*
X103653000Y-160649200D01*
X103653000Y-160649200D01*
G37*
G36*
X105553000Y-160649200D02*
G01*
X104251000Y-160649200D01*
X104251000Y-159797200D01*
X105553000Y-159797200D01*
X105553000Y-160649200D01*
X105553000Y-160649200D01*
G37*
G36*
X99593000Y-160140800D02*
G01*
X98591000Y-160140800D01*
X98591000Y-159238800D01*
X99593000Y-159238800D01*
X99593000Y-160140800D01*
X99593000Y-160140800D01*
G37*
G36*
X105548000Y-159252200D02*
G01*
X104246000Y-159252200D01*
X104246000Y-158400200D01*
X105548000Y-158400200D01*
X105548000Y-159252200D01*
X105548000Y-159252200D01*
G37*
G36*
X103648000Y-159252200D02*
G01*
X102346000Y-159252200D01*
X102346000Y-158400200D01*
X103648000Y-158400200D01*
X103648000Y-159252200D01*
X103648000Y-159252200D01*
G37*
G36*
X101593000Y-159190800D02*
G01*
X100591000Y-159190800D01*
X100591000Y-158288800D01*
X101593000Y-158288800D01*
X101593000Y-159190800D01*
X101593000Y-159190800D01*
G37*
G36*
X69839353Y-155847020D02*
G01*
X70048410Y-155888604D01*
X70330674Y-156005521D01*
X70584705Y-156175259D01*
X70800741Y-156391295D01*
X70970479Y-156645326D01*
X71087396Y-156927590D01*
X71117198Y-157077415D01*
X71144212Y-157213221D01*
X71147000Y-157227240D01*
X71147000Y-157532760D01*
X71087396Y-157832410D01*
X70970479Y-158114674D01*
X70800741Y-158368705D01*
X70584705Y-158584741D01*
X70330674Y-158754479D01*
X70048410Y-158871396D01*
X69898585Y-158901198D01*
X69748761Y-158931000D01*
X69443239Y-158931000D01*
X69293415Y-158901198D01*
X69143590Y-158871396D01*
X68861326Y-158754479D01*
X68607295Y-158584741D01*
X68391259Y-158368705D01*
X68221521Y-158114674D01*
X68104604Y-157832410D01*
X68045000Y-157532760D01*
X68045000Y-157227240D01*
X68047789Y-157213221D01*
X68074802Y-157077415D01*
X68104604Y-156927590D01*
X68221521Y-156645326D01*
X68391259Y-156391295D01*
X68607295Y-156175259D01*
X68861326Y-156005521D01*
X69143590Y-155888604D01*
X69352647Y-155847020D01*
X69443239Y-155829000D01*
X69748761Y-155829000D01*
X69839353Y-155847020D01*
X69839353Y-155847020D01*
G37*
G36*
X61439353Y-155847020D02*
G01*
X61648410Y-155888604D01*
X61930674Y-156005521D01*
X62184705Y-156175259D01*
X62400741Y-156391295D01*
X62570479Y-156645326D01*
X62687396Y-156927590D01*
X62717198Y-157077415D01*
X62744212Y-157213221D01*
X62747000Y-157227240D01*
X62747000Y-157532760D01*
X62687396Y-157832410D01*
X62570479Y-158114674D01*
X62400741Y-158368705D01*
X62184705Y-158584741D01*
X61930674Y-158754479D01*
X61648410Y-158871396D01*
X61498585Y-158901198D01*
X61348761Y-158931000D01*
X61043239Y-158931000D01*
X60893415Y-158901198D01*
X60743590Y-158871396D01*
X60461326Y-158754479D01*
X60207295Y-158584741D01*
X59991259Y-158368705D01*
X59821521Y-158114674D01*
X59704604Y-157832410D01*
X59645000Y-157532760D01*
X59645000Y-157227240D01*
X59647789Y-157213221D01*
X59674802Y-157077415D01*
X59704604Y-156927590D01*
X59821521Y-156645326D01*
X59991259Y-156391295D01*
X60207295Y-156175259D01*
X60461326Y-156005521D01*
X60743590Y-155888604D01*
X60952647Y-155847020D01*
X61043239Y-155829000D01*
X61348761Y-155829000D01*
X61439353Y-155847020D01*
X61439353Y-155847020D01*
G37*
G36*
X65639353Y-155847020D02*
G01*
X65848410Y-155888604D01*
X66130674Y-156005521D01*
X66384705Y-156175259D01*
X66600741Y-156391295D01*
X66770479Y-156645326D01*
X66887396Y-156927590D01*
X66917198Y-157077415D01*
X66944212Y-157213221D01*
X66947000Y-157227240D01*
X66947000Y-157532760D01*
X66887396Y-157832410D01*
X66770479Y-158114674D01*
X66600741Y-158368705D01*
X66384705Y-158584741D01*
X66130674Y-158754479D01*
X65848410Y-158871396D01*
X65698585Y-158901198D01*
X65548761Y-158931000D01*
X65243239Y-158931000D01*
X65093415Y-158901198D01*
X64943590Y-158871396D01*
X64661326Y-158754479D01*
X64407295Y-158584741D01*
X64191259Y-158368705D01*
X64021521Y-158114674D01*
X63904604Y-157832410D01*
X63845000Y-157532760D01*
X63845000Y-157227240D01*
X63847789Y-157213221D01*
X63874802Y-157077415D01*
X63904604Y-156927590D01*
X64021521Y-156645326D01*
X64191259Y-156391295D01*
X64407295Y-156175259D01*
X64661326Y-156005521D01*
X64943590Y-155888604D01*
X65152647Y-155847020D01*
X65243239Y-155829000D01*
X65548761Y-155829000D01*
X65639353Y-155847020D01*
X65639353Y-155847020D01*
G37*
G36*
X90182778Y-156600547D02*
G01*
X90349224Y-156669491D01*
X90499022Y-156769583D01*
X90626417Y-156896978D01*
X90726509Y-157046776D01*
X90795453Y-157213222D01*
X90830600Y-157389918D01*
X90830600Y-157570082D01*
X90795453Y-157746778D01*
X90726509Y-157913224D01*
X90626417Y-158063022D01*
X90499022Y-158190417D01*
X90349224Y-158290509D01*
X90182778Y-158359453D01*
X90006082Y-158394600D01*
X89825918Y-158394600D01*
X89649222Y-158359453D01*
X89482776Y-158290509D01*
X89332978Y-158190417D01*
X89205583Y-158063022D01*
X89105491Y-157913224D01*
X89036547Y-157746778D01*
X89001400Y-157570082D01*
X89001400Y-157389918D01*
X89036547Y-157213222D01*
X89105491Y-157046776D01*
X89205583Y-156896978D01*
X89332978Y-156769583D01*
X89482776Y-156669491D01*
X89649222Y-156600547D01*
X89825918Y-156565400D01*
X90006082Y-156565400D01*
X90182778Y-156600547D01*
X90182778Y-156600547D01*
G37*
G36*
X112886443Y-156585519D02*
G01*
X112952627Y-156592037D01*
X113122466Y-156643557D01*
X113278991Y-156727222D01*
X113314729Y-156756552D01*
X113416186Y-156839814D01*
X113499448Y-156941271D01*
X113528778Y-156977009D01*
X113612443Y-157133534D01*
X113663963Y-157303373D01*
X113681359Y-157480000D01*
X113663963Y-157656627D01*
X113612443Y-157826466D01*
X113528778Y-157982991D01*
X113499448Y-158018729D01*
X113416186Y-158120186D01*
X113330609Y-158190416D01*
X113278991Y-158232778D01*
X113122466Y-158316443D01*
X112952627Y-158367963D01*
X112886442Y-158374482D01*
X112820260Y-158381000D01*
X112731740Y-158381000D01*
X112665558Y-158374482D01*
X112599373Y-158367963D01*
X112429534Y-158316443D01*
X112273009Y-158232778D01*
X112221391Y-158190416D01*
X112135814Y-158120186D01*
X112052552Y-158018729D01*
X112023222Y-157982991D01*
X111939557Y-157826466D01*
X111888037Y-157656627D01*
X111870641Y-157480000D01*
X111888037Y-157303373D01*
X111939557Y-157133534D01*
X112023222Y-156977009D01*
X112052552Y-156941271D01*
X112135814Y-156839814D01*
X112237271Y-156756552D01*
X112273009Y-156727222D01*
X112429534Y-156643557D01*
X112599373Y-156592037D01*
X112665557Y-156585519D01*
X112731740Y-156579000D01*
X112820260Y-156579000D01*
X112886443Y-156585519D01*
X112886443Y-156585519D01*
G37*
G36*
X110346443Y-156585519D02*
G01*
X110412627Y-156592037D01*
X110582466Y-156643557D01*
X110738991Y-156727222D01*
X110774729Y-156756552D01*
X110876186Y-156839814D01*
X110959448Y-156941271D01*
X110988778Y-156977009D01*
X111072443Y-157133534D01*
X111123963Y-157303373D01*
X111141359Y-157480000D01*
X111123963Y-157656627D01*
X111072443Y-157826466D01*
X110988778Y-157982991D01*
X110959448Y-158018729D01*
X110876186Y-158120186D01*
X110790609Y-158190416D01*
X110738991Y-158232778D01*
X110582466Y-158316443D01*
X110412627Y-158367963D01*
X110346442Y-158374482D01*
X110280260Y-158381000D01*
X110191740Y-158381000D01*
X110125558Y-158374482D01*
X110059373Y-158367963D01*
X109889534Y-158316443D01*
X109733009Y-158232778D01*
X109681391Y-158190416D01*
X109595814Y-158120186D01*
X109512552Y-158018729D01*
X109483222Y-157982991D01*
X109399557Y-157826466D01*
X109348037Y-157656627D01*
X109330641Y-157480000D01*
X109348037Y-157303373D01*
X109399557Y-157133534D01*
X109483222Y-156977009D01*
X109512552Y-156941271D01*
X109595814Y-156839814D01*
X109697271Y-156756552D01*
X109733009Y-156727222D01*
X109889534Y-156643557D01*
X110059373Y-156592037D01*
X110125557Y-156585519D01*
X110191740Y-156579000D01*
X110280260Y-156579000D01*
X110346443Y-156585519D01*
X110346443Y-156585519D01*
G37*
G36*
X101743000Y-157474200D02*
G01*
X100441000Y-157474200D01*
X100441000Y-156622200D01*
X101743000Y-156622200D01*
X101743000Y-157474200D01*
X101743000Y-157474200D01*
G37*
G36*
X103643000Y-157474200D02*
G01*
X102341000Y-157474200D01*
X102341000Y-156622200D01*
X103643000Y-156622200D01*
X103643000Y-157474200D01*
X103643000Y-157474200D01*
G37*
G36*
X97811000Y-157398000D02*
G01*
X96509000Y-157398000D01*
X96509000Y-156546000D01*
X97811000Y-156546000D01*
X97811000Y-157398000D01*
X97811000Y-157398000D01*
G37*
G36*
X99711000Y-157398000D02*
G01*
X98409000Y-157398000D01*
X98409000Y-156546000D01*
X99711000Y-156546000D01*
X99711000Y-157398000D01*
X99711000Y-157398000D01*
G37*
G36*
X166938865Y-150765855D02*
G01*
X167539608Y-151014691D01*
X167539610Y-151014692D01*
X168080265Y-151375946D01*
X168540054Y-151835735D01*
X168901308Y-152376390D01*
X168901309Y-152376392D01*
X169150145Y-152977135D01*
X169277000Y-153614879D01*
X169277000Y-154265121D01*
X169150145Y-154902865D01*
X168991252Y-155286466D01*
X168901308Y-155503610D01*
X168540054Y-156044265D01*
X168080265Y-156504054D01*
X167539610Y-156865308D01*
X167539609Y-156865309D01*
X167539608Y-156865309D01*
X166938865Y-157114145D01*
X166301121Y-157241000D01*
X165650879Y-157241000D01*
X165013135Y-157114145D01*
X164412392Y-156865309D01*
X164412391Y-156865309D01*
X164412390Y-156865308D01*
X163871735Y-156504054D01*
X163411946Y-156044265D01*
X163050692Y-155503610D01*
X162960748Y-155286466D01*
X162801855Y-154902865D01*
X162675000Y-154265121D01*
X162675000Y-153614879D01*
X162801855Y-152977135D01*
X163050691Y-152376392D01*
X163050692Y-152376390D01*
X163411946Y-151835735D01*
X163871735Y-151375946D01*
X164412390Y-151014692D01*
X164412392Y-151014691D01*
X165013135Y-150765855D01*
X165650879Y-150639000D01*
X166301121Y-150639000D01*
X166938865Y-150765855D01*
X166938865Y-150765855D01*
G37*
G36*
X51938865Y-150765855D02*
G01*
X52539608Y-151014691D01*
X52539610Y-151014692D01*
X53080265Y-151375946D01*
X53540054Y-151835735D01*
X53901308Y-152376390D01*
X53901309Y-152376392D01*
X54150145Y-152977135D01*
X54277000Y-153614879D01*
X54277000Y-154265121D01*
X54150145Y-154902865D01*
X53991252Y-155286466D01*
X53901308Y-155503610D01*
X53540054Y-156044265D01*
X53080265Y-156504054D01*
X52539610Y-156865308D01*
X52539609Y-156865309D01*
X52539608Y-156865309D01*
X51938865Y-157114145D01*
X51301121Y-157241000D01*
X50650879Y-157241000D01*
X50013135Y-157114145D01*
X49412392Y-156865309D01*
X49412391Y-156865309D01*
X49412390Y-156865308D01*
X48871735Y-156504054D01*
X48411946Y-156044265D01*
X48050692Y-155503610D01*
X47960748Y-155286466D01*
X47801855Y-154902865D01*
X47675000Y-154265121D01*
X47675000Y-153614879D01*
X47801855Y-152977135D01*
X48050691Y-152376392D01*
X48050692Y-152376390D01*
X48411946Y-151835735D01*
X48871735Y-151375946D01*
X49412390Y-151014692D01*
X49412392Y-151014691D01*
X50013135Y-150765855D01*
X50650879Y-150639000D01*
X51301121Y-150639000D01*
X51938865Y-150765855D01*
X51938865Y-150765855D01*
G37*
G36*
X158653023Y-153400590D02*
G01*
X158753682Y-153431125D01*
X158804013Y-153446392D01*
X158943165Y-153520771D01*
X159065133Y-153620867D01*
X159165229Y-153742835D01*
X159239608Y-153881987D01*
X159239608Y-153881988D01*
X159285410Y-154032977D01*
X159297000Y-154150655D01*
X159297000Y-155729345D01*
X159285410Y-155847023D01*
X159254875Y-155947682D01*
X159239608Y-155998013D01*
X159165230Y-156137164D01*
X159165229Y-156137165D01*
X159065133Y-156259133D01*
X158943164Y-156359229D01*
X158804012Y-156433608D01*
X158753681Y-156448875D01*
X158653022Y-156479410D01*
X158496000Y-156494875D01*
X158338977Y-156479410D01*
X158238318Y-156448875D01*
X158187987Y-156433608D01*
X158048835Y-156359229D01*
X157926867Y-156259133D01*
X157826771Y-156137164D01*
X157777115Y-156044265D01*
X157752392Y-155998012D01*
X157708889Y-155854600D01*
X157706590Y-155847022D01*
X157698863Y-155768570D01*
X157695000Y-155729345D01*
X157695001Y-154150654D01*
X157706591Y-154032979D01*
X157706591Y-154032977D01*
X157752393Y-153881988D01*
X157752393Y-153881987D01*
X157826772Y-153742835D01*
X157926868Y-153620867D01*
X158048836Y-153520771D01*
X158187988Y-153446392D01*
X158238319Y-153431125D01*
X158338978Y-153400590D01*
X158496000Y-153385125D01*
X158653023Y-153400590D01*
X158653023Y-153400590D01*
G37*
G36*
X120553023Y-153400590D02*
G01*
X120653682Y-153431125D01*
X120704013Y-153446392D01*
X120843165Y-153520771D01*
X120965133Y-153620867D01*
X121065229Y-153742835D01*
X121139608Y-153881987D01*
X121139608Y-153881988D01*
X121185410Y-154032977D01*
X121197000Y-154150655D01*
X121197000Y-155729345D01*
X121185410Y-155847023D01*
X121154875Y-155947682D01*
X121139608Y-155998013D01*
X121065230Y-156137164D01*
X121065229Y-156137165D01*
X120965133Y-156259133D01*
X120843164Y-156359229D01*
X120704012Y-156433608D01*
X120653681Y-156448875D01*
X120553022Y-156479410D01*
X120396000Y-156494875D01*
X120238977Y-156479410D01*
X120138318Y-156448875D01*
X120087987Y-156433608D01*
X119948835Y-156359229D01*
X119826867Y-156259133D01*
X119726771Y-156137164D01*
X119677115Y-156044265D01*
X119652392Y-155998012D01*
X119608889Y-155854600D01*
X119606590Y-155847022D01*
X119598863Y-155768570D01*
X119595000Y-155729345D01*
X119595001Y-154150654D01*
X119606591Y-154032979D01*
X119606591Y-154032977D01*
X119652393Y-153881988D01*
X119652393Y-153881987D01*
X119726772Y-153742835D01*
X119826868Y-153620867D01*
X119948836Y-153520771D01*
X120087988Y-153446392D01*
X120138319Y-153431125D01*
X120238978Y-153400590D01*
X120396000Y-153385125D01*
X120553023Y-153400590D01*
X120553023Y-153400590D01*
G37*
G36*
X123093023Y-153400590D02*
G01*
X123193682Y-153431125D01*
X123244013Y-153446392D01*
X123383165Y-153520771D01*
X123505133Y-153620867D01*
X123605229Y-153742835D01*
X123679608Y-153881987D01*
X123679608Y-153881988D01*
X123725410Y-154032977D01*
X123737000Y-154150655D01*
X123737000Y-155729345D01*
X123725410Y-155847023D01*
X123694875Y-155947682D01*
X123679608Y-155998013D01*
X123605230Y-156137164D01*
X123605229Y-156137165D01*
X123505133Y-156259133D01*
X123383164Y-156359229D01*
X123244012Y-156433608D01*
X123193681Y-156448875D01*
X123093022Y-156479410D01*
X122936000Y-156494875D01*
X122778977Y-156479410D01*
X122678318Y-156448875D01*
X122627987Y-156433608D01*
X122488835Y-156359229D01*
X122366867Y-156259133D01*
X122266771Y-156137164D01*
X122217115Y-156044265D01*
X122192392Y-155998012D01*
X122148889Y-155854600D01*
X122146590Y-155847022D01*
X122138863Y-155768570D01*
X122135000Y-155729345D01*
X122135001Y-154150654D01*
X122146591Y-154032979D01*
X122146591Y-154032977D01*
X122192393Y-153881988D01*
X122192393Y-153881987D01*
X122266772Y-153742835D01*
X122366868Y-153620867D01*
X122488836Y-153520771D01*
X122627988Y-153446392D01*
X122678319Y-153431125D01*
X122778978Y-153400590D01*
X122936000Y-153385125D01*
X123093023Y-153400590D01*
X123093023Y-153400590D01*
G37*
G36*
X125633023Y-153400590D02*
G01*
X125733682Y-153431125D01*
X125784013Y-153446392D01*
X125923165Y-153520771D01*
X126045133Y-153620867D01*
X126145229Y-153742835D01*
X126219608Y-153881987D01*
X126219608Y-153881988D01*
X126265410Y-154032977D01*
X126277000Y-154150655D01*
X126277000Y-155729345D01*
X126265410Y-155847023D01*
X126234875Y-155947682D01*
X126219608Y-155998013D01*
X126145230Y-156137164D01*
X126145229Y-156137165D01*
X126045133Y-156259133D01*
X125923164Y-156359229D01*
X125784012Y-156433608D01*
X125733681Y-156448875D01*
X125633022Y-156479410D01*
X125476000Y-156494875D01*
X125318977Y-156479410D01*
X125218318Y-156448875D01*
X125167987Y-156433608D01*
X125028835Y-156359229D01*
X124906867Y-156259133D01*
X124806771Y-156137164D01*
X124757115Y-156044265D01*
X124732392Y-155998012D01*
X124688889Y-155854600D01*
X124686590Y-155847022D01*
X124678863Y-155768570D01*
X124675000Y-155729345D01*
X124675001Y-154150654D01*
X124686591Y-154032979D01*
X124686591Y-154032977D01*
X124732393Y-153881988D01*
X124732393Y-153881987D01*
X124806772Y-153742835D01*
X124906868Y-153620867D01*
X125028836Y-153520771D01*
X125167988Y-153446392D01*
X125218319Y-153431125D01*
X125318978Y-153400590D01*
X125476000Y-153385125D01*
X125633023Y-153400590D01*
X125633023Y-153400590D01*
G37*
G36*
X128173023Y-153400590D02*
G01*
X128273682Y-153431125D01*
X128324013Y-153446392D01*
X128463165Y-153520771D01*
X128585133Y-153620867D01*
X128685229Y-153742835D01*
X128759608Y-153881987D01*
X128759608Y-153881988D01*
X128805410Y-154032977D01*
X128817000Y-154150655D01*
X128817000Y-155729345D01*
X128805410Y-155847023D01*
X128774875Y-155947682D01*
X128759608Y-155998013D01*
X128685230Y-156137164D01*
X128685229Y-156137165D01*
X128585133Y-156259133D01*
X128463164Y-156359229D01*
X128324012Y-156433608D01*
X128273681Y-156448875D01*
X128173022Y-156479410D01*
X128016000Y-156494875D01*
X127858977Y-156479410D01*
X127758318Y-156448875D01*
X127707987Y-156433608D01*
X127568835Y-156359229D01*
X127446867Y-156259133D01*
X127346771Y-156137164D01*
X127297115Y-156044265D01*
X127272392Y-155998012D01*
X127228889Y-155854600D01*
X127226590Y-155847022D01*
X127218863Y-155768570D01*
X127215000Y-155729345D01*
X127215001Y-154150654D01*
X127226591Y-154032979D01*
X127226591Y-154032977D01*
X127272393Y-153881988D01*
X127272393Y-153881987D01*
X127346772Y-153742835D01*
X127446868Y-153620867D01*
X127568836Y-153520771D01*
X127707988Y-153446392D01*
X127758319Y-153431125D01*
X127858978Y-153400590D01*
X128016000Y-153385125D01*
X128173023Y-153400590D01*
X128173023Y-153400590D01*
G37*
G36*
X130713023Y-153400590D02*
G01*
X130813682Y-153431125D01*
X130864013Y-153446392D01*
X131003165Y-153520771D01*
X131125133Y-153620867D01*
X131225229Y-153742835D01*
X131299608Y-153881987D01*
X131299608Y-153881988D01*
X131345410Y-154032977D01*
X131357000Y-154150655D01*
X131357000Y-155729345D01*
X131345410Y-155847023D01*
X131314875Y-155947682D01*
X131299608Y-155998013D01*
X131225230Y-156137164D01*
X131225229Y-156137165D01*
X131125133Y-156259133D01*
X131003164Y-156359229D01*
X130864012Y-156433608D01*
X130813681Y-156448875D01*
X130713022Y-156479410D01*
X130556000Y-156494875D01*
X130398977Y-156479410D01*
X130298318Y-156448875D01*
X130247987Y-156433608D01*
X130108835Y-156359229D01*
X129986867Y-156259133D01*
X129886771Y-156137164D01*
X129837115Y-156044265D01*
X129812392Y-155998012D01*
X129768889Y-155854600D01*
X129766590Y-155847022D01*
X129758863Y-155768570D01*
X129755000Y-155729345D01*
X129755001Y-154150654D01*
X129766591Y-154032979D01*
X129766591Y-154032977D01*
X129812393Y-153881988D01*
X129812393Y-153881987D01*
X129886772Y-153742835D01*
X129986868Y-153620867D01*
X130108836Y-153520771D01*
X130247988Y-153446392D01*
X130298319Y-153431125D01*
X130398978Y-153400590D01*
X130556000Y-153385125D01*
X130713023Y-153400590D01*
X130713023Y-153400590D01*
G37*
G36*
X133253023Y-153400590D02*
G01*
X133353682Y-153431125D01*
X133404013Y-153446392D01*
X133543165Y-153520771D01*
X133665133Y-153620867D01*
X133765229Y-153742835D01*
X133839608Y-153881987D01*
X133839608Y-153881988D01*
X133885410Y-154032977D01*
X133897000Y-154150655D01*
X133897000Y-155729345D01*
X133885410Y-155847023D01*
X133854875Y-155947682D01*
X133839608Y-155998013D01*
X133765230Y-156137164D01*
X133765229Y-156137165D01*
X133665133Y-156259133D01*
X133543164Y-156359229D01*
X133404012Y-156433608D01*
X133353681Y-156448875D01*
X133253022Y-156479410D01*
X133096000Y-156494875D01*
X132938977Y-156479410D01*
X132838318Y-156448875D01*
X132787987Y-156433608D01*
X132648835Y-156359229D01*
X132526867Y-156259133D01*
X132426771Y-156137164D01*
X132377115Y-156044265D01*
X132352392Y-155998012D01*
X132308889Y-155854600D01*
X132306590Y-155847022D01*
X132298863Y-155768570D01*
X132295000Y-155729345D01*
X132295001Y-154150654D01*
X132306591Y-154032979D01*
X132306591Y-154032977D01*
X132352393Y-153881988D01*
X132352393Y-153881987D01*
X132426772Y-153742835D01*
X132526868Y-153620867D01*
X132648836Y-153520771D01*
X132787988Y-153446392D01*
X132838319Y-153431125D01*
X132938978Y-153400590D01*
X133096000Y-153385125D01*
X133253023Y-153400590D01*
X133253023Y-153400590D01*
G37*
G36*
X135793023Y-153400590D02*
G01*
X135893682Y-153431125D01*
X135944013Y-153446392D01*
X136083165Y-153520771D01*
X136205133Y-153620867D01*
X136305229Y-153742835D01*
X136379608Y-153881987D01*
X136379608Y-153881988D01*
X136425410Y-154032977D01*
X136437000Y-154150655D01*
X136437000Y-155729345D01*
X136425410Y-155847023D01*
X136394875Y-155947682D01*
X136379608Y-155998013D01*
X136305230Y-156137164D01*
X136305229Y-156137165D01*
X136205133Y-156259133D01*
X136083164Y-156359229D01*
X135944012Y-156433608D01*
X135893681Y-156448875D01*
X135793022Y-156479410D01*
X135636000Y-156494875D01*
X135478977Y-156479410D01*
X135378318Y-156448875D01*
X135327987Y-156433608D01*
X135188835Y-156359229D01*
X135066867Y-156259133D01*
X134966771Y-156137164D01*
X134917115Y-156044265D01*
X134892392Y-155998012D01*
X134848889Y-155854600D01*
X134846590Y-155847022D01*
X134838863Y-155768570D01*
X134835000Y-155729345D01*
X134835001Y-154150654D01*
X134846591Y-154032979D01*
X134846591Y-154032977D01*
X134892393Y-153881988D01*
X134892393Y-153881987D01*
X134966772Y-153742835D01*
X135066868Y-153620867D01*
X135188836Y-153520771D01*
X135327988Y-153446392D01*
X135378319Y-153431125D01*
X135478978Y-153400590D01*
X135636000Y-153385125D01*
X135793023Y-153400590D01*
X135793023Y-153400590D01*
G37*
G36*
X140873023Y-153400590D02*
G01*
X140973682Y-153431125D01*
X141024013Y-153446392D01*
X141163165Y-153520771D01*
X141285133Y-153620867D01*
X141385229Y-153742835D01*
X141459608Y-153881987D01*
X141459608Y-153881988D01*
X141505410Y-154032977D01*
X141517000Y-154150655D01*
X141517000Y-155729345D01*
X141505410Y-155847023D01*
X141474875Y-155947682D01*
X141459608Y-155998013D01*
X141385230Y-156137164D01*
X141385229Y-156137165D01*
X141285133Y-156259133D01*
X141163164Y-156359229D01*
X141024012Y-156433608D01*
X140973681Y-156448875D01*
X140873022Y-156479410D01*
X140716000Y-156494875D01*
X140558977Y-156479410D01*
X140458318Y-156448875D01*
X140407987Y-156433608D01*
X140268835Y-156359229D01*
X140146867Y-156259133D01*
X140046771Y-156137164D01*
X139997115Y-156044265D01*
X139972392Y-155998012D01*
X139928889Y-155854600D01*
X139926590Y-155847022D01*
X139918863Y-155768570D01*
X139915000Y-155729345D01*
X139915001Y-154150654D01*
X139926591Y-154032979D01*
X139926591Y-154032977D01*
X139972393Y-153881988D01*
X139972393Y-153881987D01*
X140046772Y-153742835D01*
X140146868Y-153620867D01*
X140268836Y-153520771D01*
X140407988Y-153446392D01*
X140458319Y-153431125D01*
X140558978Y-153400590D01*
X140716000Y-153385125D01*
X140873023Y-153400590D01*
X140873023Y-153400590D01*
G37*
G36*
X138333023Y-153400590D02*
G01*
X138433682Y-153431125D01*
X138484013Y-153446392D01*
X138623165Y-153520771D01*
X138745133Y-153620867D01*
X138845229Y-153742835D01*
X138919608Y-153881987D01*
X138919608Y-153881988D01*
X138965410Y-154032977D01*
X138977000Y-154150655D01*
X138977000Y-155729345D01*
X138965410Y-155847023D01*
X138934875Y-155947682D01*
X138919608Y-155998013D01*
X138845230Y-156137164D01*
X138845229Y-156137165D01*
X138745133Y-156259133D01*
X138623164Y-156359229D01*
X138484012Y-156433608D01*
X138433681Y-156448875D01*
X138333022Y-156479410D01*
X138176000Y-156494875D01*
X138018977Y-156479410D01*
X137918318Y-156448875D01*
X137867987Y-156433608D01*
X137728835Y-156359229D01*
X137606867Y-156259133D01*
X137506771Y-156137164D01*
X137457115Y-156044265D01*
X137432392Y-155998012D01*
X137388889Y-155854600D01*
X137386590Y-155847022D01*
X137378863Y-155768570D01*
X137375000Y-155729345D01*
X137375001Y-154150654D01*
X137386591Y-154032979D01*
X137386591Y-154032977D01*
X137432393Y-153881988D01*
X137432393Y-153881987D01*
X137506772Y-153742835D01*
X137606868Y-153620867D01*
X137728836Y-153520771D01*
X137867988Y-153446392D01*
X137918319Y-153431125D01*
X138018978Y-153400590D01*
X138176000Y-153385125D01*
X138333023Y-153400590D01*
X138333023Y-153400590D01*
G37*
G36*
X156113023Y-153400590D02*
G01*
X156213682Y-153431125D01*
X156264013Y-153446392D01*
X156403165Y-153520771D01*
X156525133Y-153620867D01*
X156625229Y-153742835D01*
X156699608Y-153881987D01*
X156699608Y-153881988D01*
X156745410Y-154032977D01*
X156757000Y-154150655D01*
X156757000Y-155729345D01*
X156745410Y-155847023D01*
X156714875Y-155947682D01*
X156699608Y-155998013D01*
X156625230Y-156137164D01*
X156625229Y-156137165D01*
X156525133Y-156259133D01*
X156403164Y-156359229D01*
X156264012Y-156433608D01*
X156213681Y-156448875D01*
X156113022Y-156479410D01*
X155956000Y-156494875D01*
X155798977Y-156479410D01*
X155698318Y-156448875D01*
X155647987Y-156433608D01*
X155508835Y-156359229D01*
X155386867Y-156259133D01*
X155286771Y-156137164D01*
X155237115Y-156044265D01*
X155212392Y-155998012D01*
X155168889Y-155854600D01*
X155166590Y-155847022D01*
X155158863Y-155768570D01*
X155155000Y-155729345D01*
X155155001Y-154150654D01*
X155166591Y-154032979D01*
X155166591Y-154032977D01*
X155212393Y-153881988D01*
X155212393Y-153881987D01*
X155286772Y-153742835D01*
X155386868Y-153620867D01*
X155508836Y-153520771D01*
X155647988Y-153446392D01*
X155698319Y-153431125D01*
X155798978Y-153400590D01*
X155956000Y-153385125D01*
X156113023Y-153400590D01*
X156113023Y-153400590D01*
G37*
G36*
X153573023Y-153400590D02*
G01*
X153673682Y-153431125D01*
X153724013Y-153446392D01*
X153863165Y-153520771D01*
X153985133Y-153620867D01*
X154085229Y-153742835D01*
X154159608Y-153881987D01*
X154159608Y-153881988D01*
X154205410Y-154032977D01*
X154217000Y-154150655D01*
X154217000Y-155729345D01*
X154205410Y-155847023D01*
X154174875Y-155947682D01*
X154159608Y-155998013D01*
X154085230Y-156137164D01*
X154085229Y-156137165D01*
X153985133Y-156259133D01*
X153863164Y-156359229D01*
X153724012Y-156433608D01*
X153673681Y-156448875D01*
X153573022Y-156479410D01*
X153416000Y-156494875D01*
X153258977Y-156479410D01*
X153158318Y-156448875D01*
X153107987Y-156433608D01*
X152968835Y-156359229D01*
X152846867Y-156259133D01*
X152746771Y-156137164D01*
X152697115Y-156044265D01*
X152672392Y-155998012D01*
X152628889Y-155854600D01*
X152626590Y-155847022D01*
X152618863Y-155768570D01*
X152615000Y-155729345D01*
X152615001Y-154150654D01*
X152626591Y-154032979D01*
X152626591Y-154032977D01*
X152672393Y-153881988D01*
X152672393Y-153881987D01*
X152746772Y-153742835D01*
X152846868Y-153620867D01*
X152968836Y-153520771D01*
X153107988Y-153446392D01*
X153158319Y-153431125D01*
X153258978Y-153400590D01*
X153416000Y-153385125D01*
X153573023Y-153400590D01*
X153573023Y-153400590D01*
G37*
G36*
X151033023Y-153400590D02*
G01*
X151133682Y-153431125D01*
X151184013Y-153446392D01*
X151323165Y-153520771D01*
X151445133Y-153620867D01*
X151545229Y-153742835D01*
X151619608Y-153881987D01*
X151619608Y-153881988D01*
X151665410Y-154032977D01*
X151677000Y-154150655D01*
X151677000Y-155729345D01*
X151665410Y-155847023D01*
X151634875Y-155947682D01*
X151619608Y-155998013D01*
X151545230Y-156137164D01*
X151545229Y-156137165D01*
X151445133Y-156259133D01*
X151323164Y-156359229D01*
X151184012Y-156433608D01*
X151133681Y-156448875D01*
X151033022Y-156479410D01*
X150876000Y-156494875D01*
X150718977Y-156479410D01*
X150618318Y-156448875D01*
X150567987Y-156433608D01*
X150428835Y-156359229D01*
X150306867Y-156259133D01*
X150206771Y-156137164D01*
X150157115Y-156044265D01*
X150132392Y-155998012D01*
X150088889Y-155854600D01*
X150086590Y-155847022D01*
X150078863Y-155768570D01*
X150075000Y-155729345D01*
X150075001Y-154150654D01*
X150086591Y-154032979D01*
X150086591Y-154032977D01*
X150132393Y-153881988D01*
X150132393Y-153881987D01*
X150206772Y-153742835D01*
X150306868Y-153620867D01*
X150428836Y-153520771D01*
X150567988Y-153446392D01*
X150618319Y-153431125D01*
X150718978Y-153400590D01*
X150876000Y-153385125D01*
X151033023Y-153400590D01*
X151033023Y-153400590D01*
G37*
G36*
X148493023Y-153400590D02*
G01*
X148593682Y-153431125D01*
X148644013Y-153446392D01*
X148783165Y-153520771D01*
X148905133Y-153620867D01*
X149005229Y-153742835D01*
X149079608Y-153881987D01*
X149079608Y-153881988D01*
X149125410Y-154032977D01*
X149137000Y-154150655D01*
X149137000Y-155729345D01*
X149125410Y-155847023D01*
X149094875Y-155947682D01*
X149079608Y-155998013D01*
X149005230Y-156137164D01*
X149005229Y-156137165D01*
X148905133Y-156259133D01*
X148783164Y-156359229D01*
X148644012Y-156433608D01*
X148593681Y-156448875D01*
X148493022Y-156479410D01*
X148336000Y-156494875D01*
X148178977Y-156479410D01*
X148078318Y-156448875D01*
X148027987Y-156433608D01*
X147888835Y-156359229D01*
X147766867Y-156259133D01*
X147666771Y-156137164D01*
X147617115Y-156044265D01*
X147592392Y-155998012D01*
X147548889Y-155854600D01*
X147546590Y-155847022D01*
X147538863Y-155768570D01*
X147535000Y-155729345D01*
X147535001Y-154150654D01*
X147546591Y-154032979D01*
X147546591Y-154032977D01*
X147592393Y-153881988D01*
X147592393Y-153881987D01*
X147666772Y-153742835D01*
X147766868Y-153620867D01*
X147888836Y-153520771D01*
X148027988Y-153446392D01*
X148078319Y-153431125D01*
X148178978Y-153400590D01*
X148336000Y-153385125D01*
X148493023Y-153400590D01*
X148493023Y-153400590D01*
G37*
G36*
X145953023Y-153400590D02*
G01*
X146053682Y-153431125D01*
X146104013Y-153446392D01*
X146243165Y-153520771D01*
X146365133Y-153620867D01*
X146465229Y-153742835D01*
X146539608Y-153881987D01*
X146539608Y-153881988D01*
X146585410Y-154032977D01*
X146597000Y-154150655D01*
X146597000Y-155729345D01*
X146585410Y-155847023D01*
X146554875Y-155947682D01*
X146539608Y-155998013D01*
X146465230Y-156137164D01*
X146465229Y-156137165D01*
X146365133Y-156259133D01*
X146243164Y-156359229D01*
X146104012Y-156433608D01*
X146053681Y-156448875D01*
X145953022Y-156479410D01*
X145796000Y-156494875D01*
X145638977Y-156479410D01*
X145538318Y-156448875D01*
X145487987Y-156433608D01*
X145348835Y-156359229D01*
X145226867Y-156259133D01*
X145126771Y-156137164D01*
X145077115Y-156044265D01*
X145052392Y-155998012D01*
X145008889Y-155854600D01*
X145006590Y-155847022D01*
X144998863Y-155768570D01*
X144995000Y-155729345D01*
X144995001Y-154150654D01*
X145006591Y-154032979D01*
X145006591Y-154032977D01*
X145052393Y-153881988D01*
X145052393Y-153881987D01*
X145126772Y-153742835D01*
X145226868Y-153620867D01*
X145348836Y-153520771D01*
X145487988Y-153446392D01*
X145538319Y-153431125D01*
X145638978Y-153400590D01*
X145796000Y-153385125D01*
X145953023Y-153400590D01*
X145953023Y-153400590D01*
G37*
G36*
X143413023Y-153400590D02*
G01*
X143513682Y-153431125D01*
X143564013Y-153446392D01*
X143703165Y-153520771D01*
X143825133Y-153620867D01*
X143925229Y-153742835D01*
X143999608Y-153881987D01*
X143999608Y-153881988D01*
X144045410Y-154032977D01*
X144057000Y-154150655D01*
X144057000Y-155729345D01*
X144045410Y-155847023D01*
X144014875Y-155947682D01*
X143999608Y-155998013D01*
X143925230Y-156137164D01*
X143925229Y-156137165D01*
X143825133Y-156259133D01*
X143703164Y-156359229D01*
X143564012Y-156433608D01*
X143513681Y-156448875D01*
X143413022Y-156479410D01*
X143256000Y-156494875D01*
X143098977Y-156479410D01*
X142998318Y-156448875D01*
X142947987Y-156433608D01*
X142808835Y-156359229D01*
X142686867Y-156259133D01*
X142586771Y-156137164D01*
X142537115Y-156044265D01*
X142512392Y-155998012D01*
X142468889Y-155854600D01*
X142466590Y-155847022D01*
X142458863Y-155768570D01*
X142455000Y-155729345D01*
X142455001Y-154150654D01*
X142466591Y-154032979D01*
X142466591Y-154032977D01*
X142512393Y-153881988D01*
X142512393Y-153881987D01*
X142586772Y-153742835D01*
X142686868Y-153620867D01*
X142808836Y-153520771D01*
X142947988Y-153446392D01*
X142998319Y-153431125D01*
X143098978Y-153400590D01*
X143256000Y-153385125D01*
X143413023Y-153400590D01*
X143413023Y-153400590D01*
G37*
G36*
X90182778Y-154060547D02*
G01*
X90349224Y-154129491D01*
X90499022Y-154229583D01*
X90626417Y-154356978D01*
X90726509Y-154506776D01*
X90795453Y-154673222D01*
X90830600Y-154849918D01*
X90830600Y-155030082D01*
X90795453Y-155206778D01*
X90726509Y-155373224D01*
X90626417Y-155523022D01*
X90499022Y-155650417D01*
X90349224Y-155750509D01*
X90182778Y-155819453D01*
X90006082Y-155854600D01*
X89825918Y-155854600D01*
X89649222Y-155819453D01*
X89482776Y-155750509D01*
X89332978Y-155650417D01*
X89205583Y-155523022D01*
X89105491Y-155373224D01*
X89036547Y-155206778D01*
X89001400Y-155030082D01*
X89001400Y-154849918D01*
X89036547Y-154673222D01*
X89105491Y-154506776D01*
X89205583Y-154356978D01*
X89332978Y-154229583D01*
X89482776Y-154129491D01*
X89649222Y-154060547D01*
X89825918Y-154025400D01*
X90006082Y-154025400D01*
X90182778Y-154060547D01*
X90182778Y-154060547D01*
G37*
G36*
X112886442Y-154045518D02*
G01*
X112952627Y-154052037D01*
X113122466Y-154103557D01*
X113278991Y-154187222D01*
X113314729Y-154216552D01*
X113416186Y-154299814D01*
X113499448Y-154401271D01*
X113528778Y-154437009D01*
X113612443Y-154593534D01*
X113663963Y-154763373D01*
X113681359Y-154940000D01*
X113663963Y-155116627D01*
X113612443Y-155286466D01*
X113528778Y-155442991D01*
X113499448Y-155478729D01*
X113416186Y-155580186D01*
X113330609Y-155650416D01*
X113278991Y-155692778D01*
X113122466Y-155776443D01*
X112952627Y-155827963D01*
X112886442Y-155834482D01*
X112820260Y-155841000D01*
X112731740Y-155841000D01*
X112665558Y-155834482D01*
X112599373Y-155827963D01*
X112429534Y-155776443D01*
X112273009Y-155692778D01*
X112221391Y-155650416D01*
X112135814Y-155580186D01*
X112052552Y-155478729D01*
X112023222Y-155442991D01*
X111939557Y-155286466D01*
X111888037Y-155116627D01*
X111870641Y-154940000D01*
X111888037Y-154763373D01*
X111939557Y-154593534D01*
X112023222Y-154437009D01*
X112052552Y-154401271D01*
X112135814Y-154299814D01*
X112237271Y-154216552D01*
X112273009Y-154187222D01*
X112429534Y-154103557D01*
X112599373Y-154052037D01*
X112665558Y-154045518D01*
X112731740Y-154039000D01*
X112820260Y-154039000D01*
X112886442Y-154045518D01*
X112886442Y-154045518D01*
G37*
G36*
X110346442Y-154045518D02*
G01*
X110412627Y-154052037D01*
X110582466Y-154103557D01*
X110738991Y-154187222D01*
X110774729Y-154216552D01*
X110876186Y-154299814D01*
X110959448Y-154401271D01*
X110988778Y-154437009D01*
X111072443Y-154593534D01*
X111123963Y-154763373D01*
X111141359Y-154940000D01*
X111123963Y-155116627D01*
X111072443Y-155286466D01*
X110988778Y-155442991D01*
X110959448Y-155478729D01*
X110876186Y-155580186D01*
X110790609Y-155650416D01*
X110738991Y-155692778D01*
X110582466Y-155776443D01*
X110412627Y-155827963D01*
X110346442Y-155834482D01*
X110280260Y-155841000D01*
X110191740Y-155841000D01*
X110125558Y-155834482D01*
X110059373Y-155827963D01*
X109889534Y-155776443D01*
X109733009Y-155692778D01*
X109681391Y-155650416D01*
X109595814Y-155580186D01*
X109512552Y-155478729D01*
X109483222Y-155442991D01*
X109399557Y-155286466D01*
X109348037Y-155116627D01*
X109330641Y-154940000D01*
X109348037Y-154763373D01*
X109399557Y-154593534D01*
X109483222Y-154437009D01*
X109512552Y-154401271D01*
X109595814Y-154299814D01*
X109697271Y-154216552D01*
X109733009Y-154187222D01*
X109889534Y-154103557D01*
X110059373Y-154052037D01*
X110125558Y-154045518D01*
X110191740Y-154039000D01*
X110280260Y-154039000D01*
X110346442Y-154045518D01*
X110346442Y-154045518D01*
G37*
G36*
X87111000Y-155791000D02*
G01*
X85609000Y-155791000D01*
X85609000Y-154089000D01*
X87111000Y-154089000D01*
X87111000Y-155791000D01*
X87111000Y-155791000D01*
G37*
G36*
X83111000Y-155791000D02*
G01*
X81609000Y-155791000D01*
X81609000Y-154089000D01*
X83111000Y-154089000D01*
X83111000Y-155791000D01*
X83111000Y-155791000D01*
G37*
G36*
X99777000Y-155696200D02*
G01*
X98475000Y-155696200D01*
X98475000Y-154844200D01*
X99777000Y-154844200D01*
X99777000Y-155696200D01*
X99777000Y-155696200D01*
G37*
G36*
X101677000Y-155696200D02*
G01*
X100375000Y-155696200D01*
X100375000Y-154844200D01*
X101677000Y-154844200D01*
X101677000Y-155696200D01*
X101677000Y-155696200D01*
G37*
G36*
X101811000Y-154013000D02*
G01*
X100309000Y-154013000D01*
X100309000Y-152311000D01*
X101811000Y-152311000D01*
X101811000Y-154013000D01*
X101811000Y-154013000D01*
G37*
G36*
X97811000Y-154013000D02*
G01*
X96309000Y-154013000D01*
X96309000Y-152311000D01*
X97811000Y-152311000D01*
X97811000Y-154013000D01*
X97811000Y-154013000D01*
G37*
G36*
X110346443Y-151505519D02*
G01*
X110412627Y-151512037D01*
X110582466Y-151563557D01*
X110738991Y-151647222D01*
X110774729Y-151676552D01*
X110876186Y-151759814D01*
X110959448Y-151861271D01*
X110988778Y-151897009D01*
X111072443Y-152053534D01*
X111123963Y-152223373D01*
X111141359Y-152400000D01*
X111123963Y-152576627D01*
X111072443Y-152746466D01*
X110988778Y-152902991D01*
X110959448Y-152938729D01*
X110876186Y-153040186D01*
X110774729Y-153123448D01*
X110738991Y-153152778D01*
X110582466Y-153236443D01*
X110412627Y-153287963D01*
X110346443Y-153294481D01*
X110280260Y-153301000D01*
X110191740Y-153301000D01*
X110125557Y-153294481D01*
X110059373Y-153287963D01*
X109889534Y-153236443D01*
X109733009Y-153152778D01*
X109697271Y-153123448D01*
X109595814Y-153040186D01*
X109512552Y-152938729D01*
X109483222Y-152902991D01*
X109399557Y-152746466D01*
X109348037Y-152576627D01*
X109330641Y-152400000D01*
X109348037Y-152223373D01*
X109399557Y-152053534D01*
X109483222Y-151897009D01*
X109512552Y-151861271D01*
X109595814Y-151759814D01*
X109697271Y-151676552D01*
X109733009Y-151647222D01*
X109889534Y-151563557D01*
X110059373Y-151512037D01*
X110125557Y-151505519D01*
X110191740Y-151499000D01*
X110280260Y-151499000D01*
X110346443Y-151505519D01*
X110346443Y-151505519D01*
G37*
G36*
X112886443Y-151505519D02*
G01*
X112952627Y-151512037D01*
X113122466Y-151563557D01*
X113278991Y-151647222D01*
X113314729Y-151676552D01*
X113416186Y-151759814D01*
X113499448Y-151861271D01*
X113528778Y-151897009D01*
X113612443Y-152053534D01*
X113663963Y-152223373D01*
X113681359Y-152400000D01*
X113663963Y-152576627D01*
X113612443Y-152746466D01*
X113528778Y-152902991D01*
X113499448Y-152938729D01*
X113416186Y-153040186D01*
X113314729Y-153123448D01*
X113278991Y-153152778D01*
X113122466Y-153236443D01*
X112952627Y-153287963D01*
X112886443Y-153294481D01*
X112820260Y-153301000D01*
X112731740Y-153301000D01*
X112665557Y-153294481D01*
X112599373Y-153287963D01*
X112429534Y-153236443D01*
X112273009Y-153152778D01*
X112237271Y-153123448D01*
X112135814Y-153040186D01*
X112052552Y-152938729D01*
X112023222Y-152902991D01*
X111939557Y-152746466D01*
X111888037Y-152576627D01*
X111870641Y-152400000D01*
X111888037Y-152223373D01*
X111939557Y-152053534D01*
X112023222Y-151897009D01*
X112052552Y-151861271D01*
X112135814Y-151759814D01*
X112237271Y-151676552D01*
X112273009Y-151647222D01*
X112429534Y-151563557D01*
X112599373Y-151512037D01*
X112665557Y-151505519D01*
X112731740Y-151499000D01*
X112820260Y-151499000D01*
X112886443Y-151505519D01*
X112886443Y-151505519D01*
G37*
G36*
X101677000Y-151556000D02*
G01*
X100375000Y-151556000D01*
X100375000Y-150704000D01*
X101677000Y-150704000D01*
X101677000Y-151556000D01*
X101677000Y-151556000D01*
G37*
G36*
X99777000Y-151556000D02*
G01*
X98475000Y-151556000D01*
X98475000Y-150704000D01*
X99777000Y-150704000D01*
X99777000Y-151556000D01*
X99777000Y-151556000D01*
G37*
G36*
X112886443Y-148965519D02*
G01*
X112952627Y-148972037D01*
X113122466Y-149023557D01*
X113278991Y-149107222D01*
X113314729Y-149136552D01*
X113416186Y-149219814D01*
X113499448Y-149321271D01*
X113528778Y-149357009D01*
X113612443Y-149513534D01*
X113663963Y-149683373D01*
X113681359Y-149860000D01*
X113663963Y-150036627D01*
X113612443Y-150206466D01*
X113528778Y-150362991D01*
X113499448Y-150398729D01*
X113416186Y-150500186D01*
X113314729Y-150583448D01*
X113278991Y-150612778D01*
X113122466Y-150696443D01*
X112952627Y-150747963D01*
X112886443Y-150754481D01*
X112820260Y-150761000D01*
X112731740Y-150761000D01*
X112665557Y-150754481D01*
X112599373Y-150747963D01*
X112429534Y-150696443D01*
X112273009Y-150612778D01*
X112237271Y-150583448D01*
X112135814Y-150500186D01*
X112052552Y-150398729D01*
X112023222Y-150362991D01*
X111939557Y-150206466D01*
X111888037Y-150036627D01*
X111870641Y-149860000D01*
X111888037Y-149683373D01*
X111939557Y-149513534D01*
X112023222Y-149357009D01*
X112052552Y-149321271D01*
X112135814Y-149219814D01*
X112237271Y-149136552D01*
X112273009Y-149107222D01*
X112429534Y-149023557D01*
X112599373Y-148972037D01*
X112665557Y-148965519D01*
X112731740Y-148959000D01*
X112820260Y-148959000D01*
X112886443Y-148965519D01*
X112886443Y-148965519D01*
G37*
G36*
X110346443Y-148965519D02*
G01*
X110412627Y-148972037D01*
X110582466Y-149023557D01*
X110738991Y-149107222D01*
X110774729Y-149136552D01*
X110876186Y-149219814D01*
X110959448Y-149321271D01*
X110988778Y-149357009D01*
X111072443Y-149513534D01*
X111123963Y-149683373D01*
X111141359Y-149860000D01*
X111123963Y-150036627D01*
X111072443Y-150206466D01*
X110988778Y-150362991D01*
X110959448Y-150398729D01*
X110876186Y-150500186D01*
X110774729Y-150583448D01*
X110738991Y-150612778D01*
X110582466Y-150696443D01*
X110412627Y-150747963D01*
X110346443Y-150754481D01*
X110280260Y-150761000D01*
X110191740Y-150761000D01*
X110125557Y-150754481D01*
X110059373Y-150747963D01*
X109889534Y-150696443D01*
X109733009Y-150612778D01*
X109697271Y-150583448D01*
X109595814Y-150500186D01*
X109512552Y-150398729D01*
X109483222Y-150362991D01*
X109399557Y-150206466D01*
X109348037Y-150036627D01*
X109330641Y-149860000D01*
X109348037Y-149683373D01*
X109399557Y-149513534D01*
X109483222Y-149357009D01*
X109512552Y-149321271D01*
X109595814Y-149219814D01*
X109697271Y-149136552D01*
X109733009Y-149107222D01*
X109889534Y-149023557D01*
X110059373Y-148972037D01*
X110125557Y-148965519D01*
X110191740Y-148959000D01*
X110280260Y-148959000D01*
X110346443Y-148965519D01*
X110346443Y-148965519D01*
G37*
G36*
X93525000Y-150203000D02*
G01*
X92023000Y-150203000D01*
X92023000Y-148501000D01*
X93525000Y-148501000D01*
X93525000Y-150203000D01*
X93525000Y-150203000D01*
G37*
G36*
X97525000Y-150203000D02*
G01*
X96023000Y-150203000D01*
X96023000Y-148501000D01*
X97525000Y-148501000D01*
X97525000Y-150203000D01*
X97525000Y-150203000D01*
G37*
G36*
X101666800Y-149866900D02*
G01*
X100364800Y-149866900D01*
X100364800Y-149014900D01*
X101666800Y-149014900D01*
X101666800Y-149866900D01*
X101666800Y-149866900D01*
G37*
G36*
X99766800Y-149866900D02*
G01*
X98464800Y-149866900D01*
X98464800Y-149014900D01*
X99766800Y-149014900D01*
X99766800Y-149866900D01*
X99766800Y-149866900D01*
G37*
G36*
X104273500Y-149849700D02*
G01*
X103371500Y-149849700D01*
X103371500Y-148847700D01*
X104273500Y-148847700D01*
X104273500Y-149849700D01*
X104273500Y-149849700D01*
G37*
G36*
X110346442Y-146425518D02*
G01*
X110412627Y-146432037D01*
X110582466Y-146483557D01*
X110738991Y-146567222D01*
X110774729Y-146596552D01*
X110876186Y-146679814D01*
X110959448Y-146781271D01*
X110988778Y-146817009D01*
X110988779Y-146817011D01*
X111048881Y-146929452D01*
X111072443Y-146973534D01*
X111123963Y-147143373D01*
X111141359Y-147320000D01*
X111123963Y-147496627D01*
X111072443Y-147666466D01*
X110988778Y-147822991D01*
X110966858Y-147849700D01*
X110876186Y-147960186D01*
X110774729Y-148043448D01*
X110738991Y-148072778D01*
X110582466Y-148156443D01*
X110412627Y-148207963D01*
X110346442Y-148214482D01*
X110280260Y-148221000D01*
X110191740Y-148221000D01*
X110125558Y-148214482D01*
X110059373Y-148207963D01*
X109889534Y-148156443D01*
X109733009Y-148072778D01*
X109697271Y-148043448D01*
X109595814Y-147960186D01*
X109505142Y-147849700D01*
X109483222Y-147822991D01*
X109399557Y-147666466D01*
X109348037Y-147496627D01*
X109330641Y-147320000D01*
X109348037Y-147143373D01*
X109399557Y-146973534D01*
X109423120Y-146929452D01*
X109483221Y-146817011D01*
X109483222Y-146817009D01*
X109512552Y-146781271D01*
X109595814Y-146679814D01*
X109697271Y-146596552D01*
X109733009Y-146567222D01*
X109889534Y-146483557D01*
X110059373Y-146432037D01*
X110125558Y-146425518D01*
X110191740Y-146419000D01*
X110280260Y-146419000D01*
X110346442Y-146425518D01*
X110346442Y-146425518D01*
G37*
G36*
X112886442Y-146425518D02*
G01*
X112952627Y-146432037D01*
X113122466Y-146483557D01*
X113278991Y-146567222D01*
X113314729Y-146596552D01*
X113416186Y-146679814D01*
X113499448Y-146781271D01*
X113528778Y-146817009D01*
X113528779Y-146817011D01*
X113588881Y-146929452D01*
X113612443Y-146973534D01*
X113663963Y-147143373D01*
X113681359Y-147320000D01*
X113663963Y-147496627D01*
X113612443Y-147666466D01*
X113528778Y-147822991D01*
X113506858Y-147849700D01*
X113416186Y-147960186D01*
X113314729Y-148043448D01*
X113278991Y-148072778D01*
X113122466Y-148156443D01*
X112952627Y-148207963D01*
X112886442Y-148214482D01*
X112820260Y-148221000D01*
X112731740Y-148221000D01*
X112665558Y-148214482D01*
X112599373Y-148207963D01*
X112429534Y-148156443D01*
X112273009Y-148072778D01*
X112237271Y-148043448D01*
X112135814Y-147960186D01*
X112045142Y-147849700D01*
X112023222Y-147822991D01*
X111939557Y-147666466D01*
X111888037Y-147496627D01*
X111870641Y-147320000D01*
X111888037Y-147143373D01*
X111939557Y-146973534D01*
X111963120Y-146929452D01*
X112023221Y-146817011D01*
X112023222Y-146817009D01*
X112052552Y-146781271D01*
X112135814Y-146679814D01*
X112237271Y-146596552D01*
X112273009Y-146567222D01*
X112429534Y-146483557D01*
X112599373Y-146432037D01*
X112665558Y-146425518D01*
X112731740Y-146419000D01*
X112820260Y-146419000D01*
X112886442Y-146425518D01*
X112886442Y-146425518D01*
G37*
G36*
X161378585Y-145098802D02*
G01*
X161528410Y-145128604D01*
X161810674Y-145245521D01*
X162064705Y-145415259D01*
X162280741Y-145631295D01*
X162450479Y-145885326D01*
X162567396Y-146167590D01*
X162567396Y-146167591D01*
X162617405Y-146419000D01*
X162627000Y-146467240D01*
X162627000Y-146772760D01*
X162567396Y-147072410D01*
X162450479Y-147354674D01*
X162280741Y-147608705D01*
X162064705Y-147824741D01*
X161810674Y-147994479D01*
X161528410Y-148111396D01*
X161378585Y-148141198D01*
X161228761Y-148171000D01*
X160923239Y-148171000D01*
X160773415Y-148141198D01*
X160623590Y-148111396D01*
X160341326Y-147994479D01*
X160087295Y-147824741D01*
X159871259Y-147608705D01*
X159701521Y-147354674D01*
X159584604Y-147072410D01*
X159525000Y-146772760D01*
X159525000Y-146467240D01*
X159534596Y-146419000D01*
X159584604Y-146167591D01*
X159584604Y-146167590D01*
X159701521Y-145885326D01*
X159871259Y-145631295D01*
X160087295Y-145415259D01*
X160341326Y-145245521D01*
X160623590Y-145128604D01*
X160773415Y-145098802D01*
X160923239Y-145069000D01*
X161228761Y-145069000D01*
X161378585Y-145098802D01*
X161378585Y-145098802D01*
G37*
G36*
X105223500Y-147849700D02*
G01*
X104321500Y-147849700D01*
X104321500Y-146847700D01*
X105223500Y-146847700D01*
X105223500Y-147849700D01*
X105223500Y-147849700D01*
G37*
G36*
X103323500Y-147849700D02*
G01*
X102421500Y-147849700D01*
X102421500Y-146847700D01*
X103323500Y-146847700D01*
X103323500Y-147849700D01*
X103323500Y-147849700D01*
G37*
G36*
X99777000Y-147746000D02*
G01*
X98475000Y-147746000D01*
X98475000Y-146894000D01*
X99777000Y-146894000D01*
X99777000Y-147746000D01*
X99777000Y-147746000D01*
G37*
G36*
X101677000Y-147746000D02*
G01*
X100375000Y-147746000D01*
X100375000Y-146894000D01*
X101677000Y-146894000D01*
X101677000Y-147746000D01*
X101677000Y-147746000D01*
G37*
G36*
X87642778Y-145170547D02*
G01*
X87809224Y-145239491D01*
X87959022Y-145339583D01*
X88086417Y-145466978D01*
X88186509Y-145616776D01*
X88255453Y-145783222D01*
X88290600Y-145959918D01*
X88290600Y-146140082D01*
X88255453Y-146316778D01*
X88186509Y-146483224D01*
X88086417Y-146633022D01*
X87959022Y-146760417D01*
X87809224Y-146860509D01*
X87642778Y-146929453D01*
X87466082Y-146964600D01*
X87285918Y-146964600D01*
X87109222Y-146929453D01*
X86942776Y-146860509D01*
X86792978Y-146760417D01*
X86665583Y-146633022D01*
X86565491Y-146483224D01*
X86496547Y-146316778D01*
X86461400Y-146140082D01*
X86461400Y-145959918D01*
X86496547Y-145783222D01*
X86565491Y-145616776D01*
X86665583Y-145466978D01*
X86792978Y-145339583D01*
X86942776Y-145239491D01*
X87109222Y-145170547D01*
X87285918Y-145135400D01*
X87466082Y-145135400D01*
X87642778Y-145170547D01*
X87642778Y-145170547D01*
G37*
G36*
X84725000Y-146476000D02*
G01*
X83423000Y-146476000D01*
X83423000Y-145624000D01*
X84725000Y-145624000D01*
X84725000Y-146476000D01*
X84725000Y-146476000D01*
G37*
G36*
X82825000Y-146476000D02*
G01*
X81523000Y-146476000D01*
X81523000Y-145624000D01*
X82825000Y-145624000D01*
X82825000Y-146476000D01*
X82825000Y-146476000D01*
G37*
G36*
X97885800Y-146193000D02*
G01*
X97033800Y-146193000D01*
X97033800Y-144891000D01*
X97885800Y-144891000D01*
X97885800Y-146193000D01*
X97885800Y-146193000D01*
G37*
G36*
X99524100Y-146193000D02*
G01*
X98672100Y-146193000D01*
X98672100Y-144891000D01*
X99524100Y-144891000D01*
X99524100Y-146193000D01*
X99524100Y-146193000D01*
G37*
G36*
X74942778Y-143900547D02*
G01*
X75109224Y-143969491D01*
X75259022Y-144069583D01*
X75386417Y-144196978D01*
X75486509Y-144346776D01*
X75555453Y-144513222D01*
X75590600Y-144689918D01*
X75590600Y-144870082D01*
X75555453Y-145046778D01*
X75486509Y-145213224D01*
X75386417Y-145363022D01*
X75259022Y-145490417D01*
X75109224Y-145590509D01*
X74942778Y-145659453D01*
X74766082Y-145694600D01*
X74585918Y-145694600D01*
X74409222Y-145659453D01*
X74242776Y-145590509D01*
X74092978Y-145490417D01*
X73965583Y-145363022D01*
X73865491Y-145213224D01*
X73796547Y-145046778D01*
X73761400Y-144870082D01*
X73761400Y-144689918D01*
X73796547Y-144513222D01*
X73865491Y-144346776D01*
X73965583Y-144196978D01*
X74092978Y-144069583D01*
X74242776Y-143969491D01*
X74409222Y-143900547D01*
X74585918Y-143865400D01*
X74766082Y-143865400D01*
X74942778Y-143900547D01*
X74942778Y-143900547D01*
G37*
G36*
X110346443Y-143885519D02*
G01*
X110412627Y-143892037D01*
X110582466Y-143943557D01*
X110738991Y-144027222D01*
X110774729Y-144056552D01*
X110876186Y-144139814D01*
X110942333Y-144220416D01*
X110988778Y-144277009D01*
X110988779Y-144277011D01*
X111048881Y-144389452D01*
X111072443Y-144433534D01*
X111123963Y-144603373D01*
X111141359Y-144780000D01*
X111123963Y-144956627D01*
X111089875Y-145069000D01*
X111072442Y-145126468D01*
X111030611Y-145204728D01*
X110988778Y-145282991D01*
X110959448Y-145318729D01*
X110876186Y-145420186D01*
X110790609Y-145490416D01*
X110738991Y-145532778D01*
X110582466Y-145616443D01*
X110412627Y-145667963D01*
X110346443Y-145674481D01*
X110280260Y-145681000D01*
X110191740Y-145681000D01*
X110125557Y-145674481D01*
X110059373Y-145667963D01*
X109889534Y-145616443D01*
X109733009Y-145532778D01*
X109681391Y-145490416D01*
X109595814Y-145420186D01*
X109512552Y-145318729D01*
X109483222Y-145282991D01*
X109441390Y-145204729D01*
X109399558Y-145126468D01*
X109382125Y-145069000D01*
X109348037Y-144956627D01*
X109330641Y-144780000D01*
X109348037Y-144603373D01*
X109399557Y-144433534D01*
X109423120Y-144389452D01*
X109483221Y-144277011D01*
X109483222Y-144277009D01*
X109529667Y-144220416D01*
X109595814Y-144139814D01*
X109697271Y-144056552D01*
X109733009Y-144027222D01*
X109889534Y-143943557D01*
X110059373Y-143892037D01*
X110125557Y-143885519D01*
X110191740Y-143879000D01*
X110280260Y-143879000D01*
X110346443Y-143885519D01*
X110346443Y-143885519D01*
G37*
G36*
X112886443Y-143885519D02*
G01*
X112952627Y-143892037D01*
X113122466Y-143943557D01*
X113278991Y-144027222D01*
X113314729Y-144056552D01*
X113416186Y-144139814D01*
X113482333Y-144220416D01*
X113528778Y-144277009D01*
X113528779Y-144277011D01*
X113588881Y-144389452D01*
X113612443Y-144433534D01*
X113663963Y-144603373D01*
X113681359Y-144780000D01*
X113663963Y-144956627D01*
X113629875Y-145069000D01*
X113612442Y-145126468D01*
X113570611Y-145204728D01*
X113528778Y-145282991D01*
X113499448Y-145318729D01*
X113416186Y-145420186D01*
X113330609Y-145490416D01*
X113278991Y-145532778D01*
X113122466Y-145616443D01*
X112952627Y-145667963D01*
X112886443Y-145674481D01*
X112820260Y-145681000D01*
X112731740Y-145681000D01*
X112665557Y-145674481D01*
X112599373Y-145667963D01*
X112429534Y-145616443D01*
X112273009Y-145532778D01*
X112221391Y-145490416D01*
X112135814Y-145420186D01*
X112052552Y-145318729D01*
X112023222Y-145282991D01*
X111981390Y-145204729D01*
X111939558Y-145126468D01*
X111922125Y-145069000D01*
X111888037Y-144956627D01*
X111870641Y-144780000D01*
X111888037Y-144603373D01*
X111939557Y-144433534D01*
X111963120Y-144389452D01*
X112023221Y-144277011D01*
X112023222Y-144277009D01*
X112069667Y-144220416D01*
X112135814Y-144139814D01*
X112237271Y-144056552D01*
X112273009Y-144027222D01*
X112429534Y-143943557D01*
X112599373Y-143892037D01*
X112665557Y-143885519D01*
X112731740Y-143879000D01*
X112820260Y-143879000D01*
X112886443Y-143885519D01*
X112886443Y-143885519D01*
G37*
G36*
X107399000Y-145224600D02*
G01*
X105897000Y-145224600D01*
X105897000Y-143522600D01*
X107399000Y-143522600D01*
X107399000Y-145224600D01*
X107399000Y-145224600D01*
G37*
G36*
X103399000Y-145224600D02*
G01*
X101897000Y-145224600D01*
X101897000Y-143522600D01*
X103399000Y-143522600D01*
X103399000Y-145224600D01*
X103399000Y-145224600D01*
G37*
G36*
X84725000Y-144698000D02*
G01*
X83423000Y-144698000D01*
X83423000Y-143846000D01*
X84725000Y-143846000D01*
X84725000Y-144698000D01*
X84725000Y-144698000D01*
G37*
G36*
X82825000Y-144698000D02*
G01*
X81523000Y-144698000D01*
X81523000Y-143846000D01*
X82825000Y-143846000D01*
X82825000Y-144698000D01*
X82825000Y-144698000D01*
G37*
G36*
X80661000Y-144698000D02*
G01*
X79359000Y-144698000D01*
X79359000Y-143846000D01*
X80661000Y-143846000D01*
X80661000Y-144698000D01*
X80661000Y-144698000D01*
G37*
G36*
X78761000Y-144698000D02*
G01*
X77459000Y-144698000D01*
X77459000Y-143846000D01*
X78761000Y-143846000D01*
X78761000Y-144698000D01*
X78761000Y-144698000D01*
G37*
G36*
X87642778Y-142630547D02*
G01*
X87809224Y-142699491D01*
X87959022Y-142799583D01*
X88086417Y-142926978D01*
X88186509Y-143076776D01*
X88255453Y-143243222D01*
X88290600Y-143419918D01*
X88290600Y-143600082D01*
X88255453Y-143776778D01*
X88186509Y-143943224D01*
X88086417Y-144093022D01*
X87959022Y-144220417D01*
X87809224Y-144320509D01*
X87642778Y-144389453D01*
X87466082Y-144424600D01*
X87285918Y-144424600D01*
X87109222Y-144389453D01*
X86942776Y-144320509D01*
X86792978Y-144220417D01*
X86665583Y-144093022D01*
X86565491Y-143943224D01*
X86496547Y-143776778D01*
X86461400Y-143600082D01*
X86461400Y-143419918D01*
X86496547Y-143243222D01*
X86565491Y-143076776D01*
X86665583Y-142926978D01*
X86792978Y-142799583D01*
X86942776Y-142699491D01*
X87109222Y-142630547D01*
X87285918Y-142595400D01*
X87466082Y-142595400D01*
X87642778Y-142630547D01*
X87642778Y-142630547D01*
G37*
G36*
X97885800Y-144293000D02*
G01*
X97033800Y-144293000D01*
X97033800Y-142991000D01*
X97885800Y-142991000D01*
X97885800Y-144293000D01*
X97885800Y-144293000D01*
G37*
G36*
X99524100Y-144293000D02*
G01*
X98672100Y-144293000D01*
X98672100Y-142991000D01*
X99524100Y-142991000D01*
X99524100Y-144293000D01*
X99524100Y-144293000D01*
G37*
G36*
X90182778Y-141360547D02*
G01*
X90349224Y-141429491D01*
X90499022Y-141529583D01*
X90626417Y-141656978D01*
X90726509Y-141806776D01*
X90795453Y-141973222D01*
X90830600Y-142149918D01*
X90830600Y-142330082D01*
X90795453Y-142506778D01*
X90726509Y-142673224D01*
X90626417Y-142823022D01*
X90499022Y-142950417D01*
X90349224Y-143050509D01*
X90182778Y-143119453D01*
X90006082Y-143154600D01*
X89825918Y-143154600D01*
X89649222Y-143119453D01*
X89482776Y-143050509D01*
X89332978Y-142950417D01*
X89205583Y-142823022D01*
X89105491Y-142673224D01*
X89036547Y-142506778D01*
X89001400Y-142330082D01*
X89001400Y-142149918D01*
X89036547Y-141973222D01*
X89105491Y-141806776D01*
X89205583Y-141656978D01*
X89332978Y-141529583D01*
X89482776Y-141429491D01*
X89649222Y-141360547D01*
X89825918Y-141325400D01*
X90006082Y-141325400D01*
X90182778Y-141360547D01*
X90182778Y-141360547D01*
G37*
G36*
X110346442Y-141345518D02*
G01*
X110412627Y-141352037D01*
X110582466Y-141403557D01*
X110738991Y-141487222D01*
X110774729Y-141516552D01*
X110876186Y-141599814D01*
X110959448Y-141701271D01*
X110988778Y-141737009D01*
X111072443Y-141893534D01*
X111123963Y-142063373D01*
X111141359Y-142240000D01*
X111123963Y-142416627D01*
X111072443Y-142586466D01*
X111072442Y-142586468D01*
X111030611Y-142664728D01*
X110988778Y-142742991D01*
X110959448Y-142778729D01*
X110876186Y-142880186D01*
X110790609Y-142950416D01*
X110738991Y-142992778D01*
X110582466Y-143076443D01*
X110412627Y-143127963D01*
X110346443Y-143134481D01*
X110280260Y-143141000D01*
X110191740Y-143141000D01*
X110125557Y-143134481D01*
X110059373Y-143127963D01*
X109889534Y-143076443D01*
X109733009Y-142992778D01*
X109681391Y-142950416D01*
X109595814Y-142880186D01*
X109512552Y-142778729D01*
X109483222Y-142742991D01*
X109441389Y-142664728D01*
X109399558Y-142586468D01*
X109399557Y-142586466D01*
X109348037Y-142416627D01*
X109330641Y-142240000D01*
X109348037Y-142063373D01*
X109399557Y-141893534D01*
X109483222Y-141737009D01*
X109512552Y-141701271D01*
X109595814Y-141599814D01*
X109697271Y-141516552D01*
X109733009Y-141487222D01*
X109889534Y-141403557D01*
X110059373Y-141352037D01*
X110125558Y-141345518D01*
X110191740Y-141339000D01*
X110280260Y-141339000D01*
X110346442Y-141345518D01*
X110346442Y-141345518D01*
G37*
G36*
X112886442Y-141345518D02*
G01*
X112952627Y-141352037D01*
X113122466Y-141403557D01*
X113278991Y-141487222D01*
X113314729Y-141516552D01*
X113416186Y-141599814D01*
X113499448Y-141701271D01*
X113528778Y-141737009D01*
X113612443Y-141893534D01*
X113663963Y-142063373D01*
X113681359Y-142240000D01*
X113663963Y-142416627D01*
X113612443Y-142586466D01*
X113612442Y-142586468D01*
X113570611Y-142664728D01*
X113528778Y-142742991D01*
X113499448Y-142778729D01*
X113416186Y-142880186D01*
X113330609Y-142950416D01*
X113278991Y-142992778D01*
X113122466Y-143076443D01*
X112952627Y-143127963D01*
X112886443Y-143134481D01*
X112820260Y-143141000D01*
X112731740Y-143141000D01*
X112665557Y-143134481D01*
X112599373Y-143127963D01*
X112429534Y-143076443D01*
X112273009Y-142992778D01*
X112221391Y-142950416D01*
X112135814Y-142880186D01*
X112052552Y-142778729D01*
X112023222Y-142742991D01*
X111981389Y-142664728D01*
X111939558Y-142586468D01*
X111939557Y-142586466D01*
X111888037Y-142416627D01*
X111870641Y-142240000D01*
X111888037Y-142063373D01*
X111939557Y-141893534D01*
X112023222Y-141737009D01*
X112052552Y-141701271D01*
X112135814Y-141599814D01*
X112237271Y-141516552D01*
X112273009Y-141487222D01*
X112429534Y-141403557D01*
X112599373Y-141352037D01*
X112665558Y-141345518D01*
X112731740Y-141339000D01*
X112820260Y-141339000D01*
X112886442Y-141345518D01*
X112886442Y-141345518D01*
G37*
G36*
X78552000Y-143021000D02*
G01*
X77700000Y-143021000D01*
X77700000Y-141719000D01*
X78552000Y-141719000D01*
X78552000Y-143021000D01*
X78552000Y-143021000D01*
G37*
G36*
X161378585Y-139598802D02*
G01*
X161528410Y-139628604D01*
X161810674Y-139745521D01*
X162064705Y-139915259D01*
X162280741Y-140131295D01*
X162450479Y-140385326D01*
X162567396Y-140667590D01*
X162627000Y-140967240D01*
X162627000Y-141272760D01*
X162567396Y-141572410D01*
X162450479Y-141854674D01*
X162280741Y-142108705D01*
X162064705Y-142324741D01*
X161810674Y-142494479D01*
X161528410Y-142611396D01*
X161432131Y-142630547D01*
X161228761Y-142671000D01*
X160923239Y-142671000D01*
X160719869Y-142630547D01*
X160623590Y-142611396D01*
X160341326Y-142494479D01*
X160087295Y-142324741D01*
X159871259Y-142108705D01*
X159701521Y-141854674D01*
X159584604Y-141572410D01*
X159525000Y-141272760D01*
X159525000Y-140967240D01*
X159584604Y-140667590D01*
X159701521Y-140385326D01*
X159871259Y-140131295D01*
X160087295Y-139915259D01*
X160341326Y-139745521D01*
X160623590Y-139628604D01*
X160773415Y-139598802D01*
X160923239Y-139569000D01*
X161228761Y-139569000D01*
X161378585Y-139598802D01*
X161378585Y-139598802D01*
G37*
G36*
X78552000Y-141121000D02*
G01*
X77700000Y-141121000D01*
X77700000Y-139819000D01*
X78552000Y-139819000D01*
X78552000Y-141121000D01*
X78552000Y-141121000D01*
G37*
G36*
X80666000Y-140846000D02*
G01*
X79364000Y-140846000D01*
X79364000Y-139994000D01*
X80666000Y-139994000D01*
X80666000Y-140846000D01*
X80666000Y-140846000D01*
G37*
G36*
X82566000Y-140846000D02*
G01*
X81264000Y-140846000D01*
X81264000Y-139994000D01*
X82566000Y-139994000D01*
X82566000Y-140846000D01*
X82566000Y-140846000D01*
G37*
G36*
X110346442Y-138805518D02*
G01*
X110412627Y-138812037D01*
X110582466Y-138863557D01*
X110738991Y-138947222D01*
X110774729Y-138976552D01*
X110876186Y-139059814D01*
X110959448Y-139161271D01*
X110988778Y-139197009D01*
X111072443Y-139353534D01*
X111123963Y-139523373D01*
X111141359Y-139700000D01*
X111123963Y-139876627D01*
X111072443Y-140046466D01*
X110988778Y-140202991D01*
X110959448Y-140238729D01*
X110876186Y-140340186D01*
X110774729Y-140423448D01*
X110738991Y-140452778D01*
X110582466Y-140536443D01*
X110412627Y-140587963D01*
X110346442Y-140594482D01*
X110280260Y-140601000D01*
X110191740Y-140601000D01*
X110125558Y-140594482D01*
X110059373Y-140587963D01*
X109889534Y-140536443D01*
X109733009Y-140452778D01*
X109697271Y-140423448D01*
X109595814Y-140340186D01*
X109512552Y-140238729D01*
X109483222Y-140202991D01*
X109399557Y-140046466D01*
X109348037Y-139876627D01*
X109330641Y-139700000D01*
X109348037Y-139523373D01*
X109399557Y-139353534D01*
X109483222Y-139197009D01*
X109512552Y-139161271D01*
X109595814Y-139059814D01*
X109697271Y-138976552D01*
X109733009Y-138947222D01*
X109889534Y-138863557D01*
X110059373Y-138812037D01*
X110125558Y-138805518D01*
X110191740Y-138799000D01*
X110280260Y-138799000D01*
X110346442Y-138805518D01*
X110346442Y-138805518D01*
G37*
G36*
X112886442Y-138805518D02*
G01*
X112952627Y-138812037D01*
X113122466Y-138863557D01*
X113278991Y-138947222D01*
X113314729Y-138976552D01*
X113416186Y-139059814D01*
X113499448Y-139161271D01*
X113528778Y-139197009D01*
X113612443Y-139353534D01*
X113663963Y-139523373D01*
X113681359Y-139700000D01*
X113663963Y-139876627D01*
X113612443Y-140046466D01*
X113528778Y-140202991D01*
X113499448Y-140238729D01*
X113416186Y-140340186D01*
X113314729Y-140423448D01*
X113278991Y-140452778D01*
X113122466Y-140536443D01*
X112952627Y-140587963D01*
X112886442Y-140594482D01*
X112820260Y-140601000D01*
X112731740Y-140601000D01*
X112665558Y-140594482D01*
X112599373Y-140587963D01*
X112429534Y-140536443D01*
X112273009Y-140452778D01*
X112237271Y-140423448D01*
X112135814Y-140340186D01*
X112052552Y-140238729D01*
X112023222Y-140202991D01*
X111939557Y-140046466D01*
X111888037Y-139876627D01*
X111870641Y-139700000D01*
X111888037Y-139523373D01*
X111939557Y-139353534D01*
X112023222Y-139197009D01*
X112052552Y-139161271D01*
X112135814Y-139059814D01*
X112237271Y-138976552D01*
X112273009Y-138947222D01*
X112429534Y-138863557D01*
X112599373Y-138812037D01*
X112665558Y-138805518D01*
X112731740Y-138799000D01*
X112820260Y-138799000D01*
X112886442Y-138805518D01*
X112886442Y-138805518D01*
G37*
G36*
X103968700Y-140312000D02*
G01*
X103066700Y-140312000D01*
X103066700Y-139310000D01*
X103968700Y-139310000D01*
X103968700Y-140312000D01*
X103968700Y-140312000D01*
G37*
G36*
X101283300Y-140240300D02*
G01*
X99981300Y-140240300D01*
X99981300Y-139388300D01*
X101283300Y-139388300D01*
X101283300Y-140240300D01*
X101283300Y-140240300D01*
G37*
G36*
X99383300Y-140240300D02*
G01*
X98081300Y-140240300D01*
X98081300Y-139388300D01*
X99383300Y-139388300D01*
X99383300Y-140240300D01*
X99383300Y-140240300D01*
G37*
G36*
X95910500Y-140063400D02*
G01*
X94208500Y-140063400D01*
X94208500Y-138561400D01*
X95910500Y-138561400D01*
X95910500Y-140063400D01*
X95910500Y-140063400D01*
G37*
G36*
X80476200Y-139448400D02*
G01*
X79574200Y-139448400D01*
X79574200Y-138446400D01*
X80476200Y-138446400D01*
X80476200Y-139448400D01*
X80476200Y-139448400D01*
G37*
G36*
X82376200Y-139448400D02*
G01*
X81474200Y-139448400D01*
X81474200Y-138446400D01*
X82376200Y-138446400D01*
X82376200Y-139448400D01*
X82376200Y-139448400D01*
G37*
G36*
X84085500Y-139439000D02*
G01*
X83183500Y-139439000D01*
X83183500Y-138437000D01*
X84085500Y-138437000D01*
X84085500Y-139439000D01*
X84085500Y-139439000D01*
G37*
G36*
X85985500Y-139439000D02*
G01*
X85083500Y-139439000D01*
X85083500Y-138437000D01*
X85985500Y-138437000D01*
X85985500Y-139439000D01*
X85985500Y-139439000D01*
G37*
G36*
X99357900Y-138513100D02*
G01*
X98055900Y-138513100D01*
X98055900Y-137661100D01*
X99357900Y-137661100D01*
X99357900Y-138513100D01*
X99357900Y-138513100D01*
G37*
G36*
X101257900Y-138513100D02*
G01*
X99955900Y-138513100D01*
X99955900Y-137661100D01*
X101257900Y-137661100D01*
X101257900Y-138513100D01*
X101257900Y-138513100D01*
G37*
G36*
X103018700Y-138312000D02*
G01*
X102116700Y-138312000D01*
X102116700Y-137310000D01*
X103018700Y-137310000D01*
X103018700Y-138312000D01*
X103018700Y-138312000D01*
G37*
G36*
X104918700Y-138312000D02*
G01*
X104016700Y-138312000D01*
X104016700Y-137310000D01*
X104918700Y-137310000D01*
X104918700Y-138312000D01*
X104918700Y-138312000D01*
G37*
G36*
X74942778Y-136280547D02*
G01*
X75109224Y-136349491D01*
X75259022Y-136449583D01*
X75386417Y-136576978D01*
X75486509Y-136726776D01*
X75555453Y-136893222D01*
X75590600Y-137069918D01*
X75590600Y-137250082D01*
X75555453Y-137426778D01*
X75486509Y-137593224D01*
X75386417Y-137743022D01*
X75259022Y-137870417D01*
X75109224Y-137970509D01*
X74942778Y-138039453D01*
X74766082Y-138074600D01*
X74585918Y-138074600D01*
X74409222Y-138039453D01*
X74242776Y-137970509D01*
X74092978Y-137870417D01*
X73965583Y-137743022D01*
X73865491Y-137593224D01*
X73796547Y-137426778D01*
X73761400Y-137250082D01*
X73761400Y-137069918D01*
X73796547Y-136893222D01*
X73865491Y-136726776D01*
X73965583Y-136576978D01*
X74092978Y-136449583D01*
X74242776Y-136349491D01*
X74409222Y-136280547D01*
X74585918Y-136245400D01*
X74766082Y-136245400D01*
X74942778Y-136280547D01*
X74942778Y-136280547D01*
G37*
G36*
X112886443Y-136265519D02*
G01*
X112952627Y-136272037D01*
X113122466Y-136323557D01*
X113278991Y-136407222D01*
X113314729Y-136436552D01*
X113416186Y-136519814D01*
X113499448Y-136621271D01*
X113528778Y-136657009D01*
X113612443Y-136813534D01*
X113663963Y-136983373D01*
X113681359Y-137160000D01*
X113663963Y-137336627D01*
X113612443Y-137506466D01*
X113528778Y-137662991D01*
X113499448Y-137698729D01*
X113416186Y-137800186D01*
X113330609Y-137870416D01*
X113278991Y-137912778D01*
X113122466Y-137996443D01*
X112952627Y-138047963D01*
X112886442Y-138054482D01*
X112820260Y-138061000D01*
X112731740Y-138061000D01*
X112665558Y-138054482D01*
X112599373Y-138047963D01*
X112429534Y-137996443D01*
X112273009Y-137912778D01*
X112221391Y-137870416D01*
X112135814Y-137800186D01*
X112052552Y-137698729D01*
X112023222Y-137662991D01*
X111939557Y-137506466D01*
X111888037Y-137336627D01*
X111870641Y-137160000D01*
X111888037Y-136983373D01*
X111939557Y-136813534D01*
X112023222Y-136657009D01*
X112052552Y-136621271D01*
X112135814Y-136519814D01*
X112237271Y-136436552D01*
X112273009Y-136407222D01*
X112429534Y-136323557D01*
X112599373Y-136272037D01*
X112665557Y-136265519D01*
X112731740Y-136259000D01*
X112820260Y-136259000D01*
X112886443Y-136265519D01*
X112886443Y-136265519D01*
G37*
G36*
X110346443Y-136265519D02*
G01*
X110412627Y-136272037D01*
X110582466Y-136323557D01*
X110738991Y-136407222D01*
X110774729Y-136436552D01*
X110876186Y-136519814D01*
X110959448Y-136621271D01*
X110988778Y-136657009D01*
X111072443Y-136813534D01*
X111123963Y-136983373D01*
X111141359Y-137160000D01*
X111123963Y-137336627D01*
X111072443Y-137506466D01*
X110988778Y-137662991D01*
X110959448Y-137698729D01*
X110876186Y-137800186D01*
X110790609Y-137870416D01*
X110738991Y-137912778D01*
X110582466Y-137996443D01*
X110412627Y-138047963D01*
X110346442Y-138054482D01*
X110280260Y-138061000D01*
X110191740Y-138061000D01*
X110125558Y-138054482D01*
X110059373Y-138047963D01*
X109889534Y-137996443D01*
X109733009Y-137912778D01*
X109681391Y-137870416D01*
X109595814Y-137800186D01*
X109512552Y-137698729D01*
X109483222Y-137662991D01*
X109399557Y-137506466D01*
X109348037Y-137336627D01*
X109330641Y-137160000D01*
X109348037Y-136983373D01*
X109399557Y-136813534D01*
X109483222Y-136657009D01*
X109512552Y-136621271D01*
X109595814Y-136519814D01*
X109697271Y-136436552D01*
X109733009Y-136407222D01*
X109889534Y-136323557D01*
X110059373Y-136272037D01*
X110125557Y-136265519D01*
X110191740Y-136259000D01*
X110280260Y-136259000D01*
X110346443Y-136265519D01*
X110346443Y-136265519D01*
G37*
G36*
X81426200Y-137448400D02*
G01*
X80524200Y-137448400D01*
X80524200Y-136446400D01*
X81426200Y-136446400D01*
X81426200Y-137448400D01*
X81426200Y-137448400D01*
G37*
G36*
X85035500Y-137439000D02*
G01*
X84133500Y-137439000D01*
X84133500Y-136437000D01*
X85035500Y-136437000D01*
X85035500Y-137439000D01*
X85035500Y-137439000D01*
G37*
G36*
X117437000Y-137371000D02*
G01*
X115735000Y-137371000D01*
X115735000Y-135869000D01*
X117437000Y-135869000D01*
X117437000Y-137371000D01*
X117437000Y-137371000D01*
G37*
G36*
X101270600Y-136912900D02*
G01*
X99968600Y-136912900D01*
X99968600Y-136060900D01*
X101270600Y-136060900D01*
X101270600Y-136912900D01*
X101270600Y-136912900D01*
G37*
G36*
X99370600Y-136912900D02*
G01*
X98068600Y-136912900D01*
X98068600Y-136060900D01*
X99370600Y-136060900D01*
X99370600Y-136912900D01*
X99370600Y-136912900D01*
G37*
G36*
X103016600Y-136767100D02*
G01*
X102164600Y-136767100D01*
X102164600Y-135465100D01*
X103016600Y-135465100D01*
X103016600Y-136767100D01*
X103016600Y-136767100D01*
G37*
G36*
X95910500Y-136063400D02*
G01*
X94208500Y-136063400D01*
X94208500Y-134561400D01*
X95910500Y-134561400D01*
X95910500Y-136063400D01*
X95910500Y-136063400D01*
G37*
G36*
X75590600Y-135534600D02*
G01*
X73761400Y-135534600D01*
X73761400Y-133705400D01*
X75590600Y-133705400D01*
X75590600Y-135534600D01*
X75590600Y-135534600D01*
G37*
G36*
X90830600Y-135534600D02*
G01*
X89001400Y-135534600D01*
X89001400Y-133705400D01*
X90830600Y-133705400D01*
X90830600Y-135534600D01*
X90830600Y-135534600D01*
G37*
G36*
X112886443Y-133725519D02*
G01*
X112952627Y-133732037D01*
X113122466Y-133783557D01*
X113278991Y-133867222D01*
X113314729Y-133896552D01*
X113416186Y-133979814D01*
X113499448Y-134081271D01*
X113528778Y-134117009D01*
X113612443Y-134273534D01*
X113663963Y-134443373D01*
X113681359Y-134620000D01*
X113663963Y-134796627D01*
X113612443Y-134966466D01*
X113528778Y-135122991D01*
X113499448Y-135158729D01*
X113416186Y-135260186D01*
X113314729Y-135343448D01*
X113278991Y-135372778D01*
X113122466Y-135456443D01*
X112952627Y-135507963D01*
X112886443Y-135514481D01*
X112820260Y-135521000D01*
X112731740Y-135521000D01*
X112665557Y-135514481D01*
X112599373Y-135507963D01*
X112429534Y-135456443D01*
X112273009Y-135372778D01*
X112237271Y-135343448D01*
X112135814Y-135260186D01*
X112052552Y-135158729D01*
X112023222Y-135122991D01*
X111939557Y-134966466D01*
X111888037Y-134796627D01*
X111870641Y-134620000D01*
X111888037Y-134443373D01*
X111939557Y-134273534D01*
X112023222Y-134117009D01*
X112052552Y-134081271D01*
X112135814Y-133979814D01*
X112237271Y-133896552D01*
X112273009Y-133867222D01*
X112429534Y-133783557D01*
X112599373Y-133732037D01*
X112665557Y-133725519D01*
X112731740Y-133719000D01*
X112820260Y-133719000D01*
X112886443Y-133725519D01*
X112886443Y-133725519D01*
G37*
G36*
X110346443Y-133725519D02*
G01*
X110412627Y-133732037D01*
X110582466Y-133783557D01*
X110738991Y-133867222D01*
X110774729Y-133896552D01*
X110876186Y-133979814D01*
X110959448Y-134081271D01*
X110988778Y-134117009D01*
X111072443Y-134273534D01*
X111123963Y-134443373D01*
X111141359Y-134620000D01*
X111123963Y-134796627D01*
X111072443Y-134966466D01*
X110988778Y-135122991D01*
X110959448Y-135158729D01*
X110876186Y-135260186D01*
X110774729Y-135343448D01*
X110738991Y-135372778D01*
X110582466Y-135456443D01*
X110412627Y-135507963D01*
X110346443Y-135514481D01*
X110280260Y-135521000D01*
X110191740Y-135521000D01*
X110125557Y-135514481D01*
X110059373Y-135507963D01*
X109889534Y-135456443D01*
X109733009Y-135372778D01*
X109697271Y-135343448D01*
X109595814Y-135260186D01*
X109512552Y-135158729D01*
X109483222Y-135122991D01*
X109399557Y-134966466D01*
X109348037Y-134796627D01*
X109330641Y-134620000D01*
X109348037Y-134443373D01*
X109399557Y-134273534D01*
X109483222Y-134117009D01*
X109512552Y-134081271D01*
X109595814Y-133979814D01*
X109697271Y-133896552D01*
X109733009Y-133867222D01*
X109889534Y-133783557D01*
X110059373Y-133732037D01*
X110125557Y-133725519D01*
X110191740Y-133719000D01*
X110280260Y-133719000D01*
X110346443Y-133725519D01*
X110346443Y-133725519D01*
G37*
G36*
X84861500Y-135085000D02*
G01*
X83159500Y-135085000D01*
X83159500Y-133583000D01*
X84861500Y-133583000D01*
X84861500Y-135085000D01*
X84861500Y-135085000D01*
G37*
G36*
X80402000Y-135046000D02*
G01*
X79100000Y-135046000D01*
X79100000Y-134194000D01*
X80402000Y-134194000D01*
X80402000Y-135046000D01*
X80402000Y-135046000D01*
G37*
G36*
X78502000Y-135046000D02*
G01*
X77200000Y-135046000D01*
X77200000Y-134194000D01*
X78502000Y-134194000D01*
X78502000Y-135046000D01*
X78502000Y-135046000D01*
G37*
G36*
X103016600Y-134867100D02*
G01*
X102164600Y-134867100D01*
X102164600Y-133565100D01*
X103016600Y-133565100D01*
X103016600Y-134867100D01*
X103016600Y-134867100D01*
G37*
G36*
X117437000Y-133371000D02*
G01*
X115735000Y-133371000D01*
X115735000Y-131869000D01*
X117437000Y-131869000D01*
X117437000Y-133371000D01*
X117437000Y-133371000D01*
G37*
G36*
X110346442Y-131185518D02*
G01*
X110412627Y-131192037D01*
X110582466Y-131243557D01*
X110738991Y-131327222D01*
X110774729Y-131356552D01*
X110876186Y-131439814D01*
X110959448Y-131541271D01*
X110988778Y-131577009D01*
X111072443Y-131733534D01*
X111123963Y-131903373D01*
X111141359Y-132080000D01*
X111123963Y-132256627D01*
X111072443Y-132426466D01*
X110988778Y-132582991D01*
X110959448Y-132618729D01*
X110876186Y-132720186D01*
X110774729Y-132803448D01*
X110738991Y-132832778D01*
X110582466Y-132916443D01*
X110412627Y-132967963D01*
X110346443Y-132974481D01*
X110280260Y-132981000D01*
X110191740Y-132981000D01*
X110125557Y-132974481D01*
X110059373Y-132967963D01*
X109889534Y-132916443D01*
X109733009Y-132832778D01*
X109697271Y-132803448D01*
X109595814Y-132720186D01*
X109512552Y-132618729D01*
X109483222Y-132582991D01*
X109399557Y-132426466D01*
X109348037Y-132256627D01*
X109330641Y-132080000D01*
X109348037Y-131903373D01*
X109399557Y-131733534D01*
X109483222Y-131577009D01*
X109512552Y-131541271D01*
X109595814Y-131439814D01*
X109697271Y-131356552D01*
X109733009Y-131327222D01*
X109889534Y-131243557D01*
X110059373Y-131192037D01*
X110125558Y-131185518D01*
X110191740Y-131179000D01*
X110280260Y-131179000D01*
X110346442Y-131185518D01*
X110346442Y-131185518D01*
G37*
G36*
X112886442Y-131185518D02*
G01*
X112952627Y-131192037D01*
X113122466Y-131243557D01*
X113278991Y-131327222D01*
X113314729Y-131356552D01*
X113416186Y-131439814D01*
X113499448Y-131541271D01*
X113528778Y-131577009D01*
X113612443Y-131733534D01*
X113663963Y-131903373D01*
X113681359Y-132080000D01*
X113663963Y-132256627D01*
X113612443Y-132426466D01*
X113528778Y-132582991D01*
X113499448Y-132618729D01*
X113416186Y-132720186D01*
X113314729Y-132803448D01*
X113278991Y-132832778D01*
X113122466Y-132916443D01*
X112952627Y-132967963D01*
X112886443Y-132974481D01*
X112820260Y-132981000D01*
X112731740Y-132981000D01*
X112665557Y-132974481D01*
X112599373Y-132967963D01*
X112429534Y-132916443D01*
X112273009Y-132832778D01*
X112237271Y-132803448D01*
X112135814Y-132720186D01*
X112052552Y-132618729D01*
X112023222Y-132582991D01*
X111939557Y-132426466D01*
X111888037Y-132256627D01*
X111870641Y-132080000D01*
X111888037Y-131903373D01*
X111939557Y-131733534D01*
X112023222Y-131577009D01*
X112052552Y-131541271D01*
X112135814Y-131439814D01*
X112237271Y-131356552D01*
X112273009Y-131327222D01*
X112429534Y-131243557D01*
X112599373Y-131192037D01*
X112665558Y-131185518D01*
X112731740Y-131179000D01*
X112820260Y-131179000D01*
X112886442Y-131185518D01*
X112886442Y-131185518D01*
G37*
G36*
X84861500Y-131085000D02*
G01*
X83159500Y-131085000D01*
X83159500Y-129583000D01*
X84861500Y-129583000D01*
X84861500Y-131085000D01*
X84861500Y-131085000D01*
G37*
G36*
X110346443Y-128645519D02*
G01*
X110412627Y-128652037D01*
X110582466Y-128703557D01*
X110738991Y-128787222D01*
X110774729Y-128816552D01*
X110876186Y-128899814D01*
X110959448Y-129001271D01*
X110988778Y-129037009D01*
X111072443Y-129193534D01*
X111123963Y-129363373D01*
X111141359Y-129540000D01*
X111123963Y-129716627D01*
X111072443Y-129886466D01*
X110988778Y-130042991D01*
X110959448Y-130078729D01*
X110876186Y-130180186D01*
X110774729Y-130263448D01*
X110738991Y-130292778D01*
X110582466Y-130376443D01*
X110412627Y-130427963D01*
X110346443Y-130434481D01*
X110280260Y-130441000D01*
X110191740Y-130441000D01*
X110125557Y-130434481D01*
X110059373Y-130427963D01*
X109889534Y-130376443D01*
X109733009Y-130292778D01*
X109697271Y-130263448D01*
X109595814Y-130180186D01*
X109512552Y-130078729D01*
X109483222Y-130042991D01*
X109399557Y-129886466D01*
X109348037Y-129716627D01*
X109330641Y-129540000D01*
X109348037Y-129363373D01*
X109399557Y-129193534D01*
X109483222Y-129037009D01*
X109512552Y-129001271D01*
X109595814Y-128899814D01*
X109697271Y-128816552D01*
X109733009Y-128787222D01*
X109889534Y-128703557D01*
X110059373Y-128652037D01*
X110125557Y-128645519D01*
X110191740Y-128639000D01*
X110280260Y-128639000D01*
X110346443Y-128645519D01*
X110346443Y-128645519D01*
G37*
G36*
X112886443Y-128645519D02*
G01*
X112952627Y-128652037D01*
X113122466Y-128703557D01*
X113278991Y-128787222D01*
X113314729Y-128816552D01*
X113416186Y-128899814D01*
X113499448Y-129001271D01*
X113528778Y-129037009D01*
X113612443Y-129193534D01*
X113663963Y-129363373D01*
X113681359Y-129540000D01*
X113663963Y-129716627D01*
X113612443Y-129886466D01*
X113528778Y-130042991D01*
X113499448Y-130078729D01*
X113416186Y-130180186D01*
X113314729Y-130263448D01*
X113278991Y-130292778D01*
X113122466Y-130376443D01*
X112952627Y-130427963D01*
X112886443Y-130434481D01*
X112820260Y-130441000D01*
X112731740Y-130441000D01*
X112665557Y-130434481D01*
X112599373Y-130427963D01*
X112429534Y-130376443D01*
X112273009Y-130292778D01*
X112237271Y-130263448D01*
X112135814Y-130180186D01*
X112052552Y-130078729D01*
X112023222Y-130042991D01*
X111939557Y-129886466D01*
X111888037Y-129716627D01*
X111870641Y-129540000D01*
X111888037Y-129363373D01*
X111939557Y-129193534D01*
X112023222Y-129037009D01*
X112052552Y-129001271D01*
X112135814Y-128899814D01*
X112237271Y-128816552D01*
X112273009Y-128787222D01*
X112429534Y-128703557D01*
X112599373Y-128652037D01*
X112665557Y-128645519D01*
X112731740Y-128639000D01*
X112820260Y-128639000D01*
X112886443Y-128645519D01*
X112886443Y-128645519D01*
G37*
G36*
X57747000Y-130321000D02*
G01*
X56045000Y-130321000D01*
X56045000Y-129219000D01*
X57747000Y-129219000D01*
X57747000Y-130321000D01*
X57747000Y-130321000D01*
G37*
G36*
X110346443Y-126105519D02*
G01*
X110412627Y-126112037D01*
X110582466Y-126163557D01*
X110738991Y-126247222D01*
X110774729Y-126276552D01*
X110876186Y-126359814D01*
X110959448Y-126461271D01*
X110988778Y-126497009D01*
X111072443Y-126653534D01*
X111123963Y-126823373D01*
X111141359Y-127000000D01*
X111123963Y-127176627D01*
X111072443Y-127346466D01*
X110988778Y-127502991D01*
X110959448Y-127538729D01*
X110876186Y-127640186D01*
X110774729Y-127723448D01*
X110738991Y-127752778D01*
X110582466Y-127836443D01*
X110412627Y-127887963D01*
X110346442Y-127894482D01*
X110280260Y-127901000D01*
X110191740Y-127901000D01*
X110125558Y-127894482D01*
X110059373Y-127887963D01*
X109889534Y-127836443D01*
X109733009Y-127752778D01*
X109697271Y-127723448D01*
X109595814Y-127640186D01*
X109512552Y-127538729D01*
X109483222Y-127502991D01*
X109399557Y-127346466D01*
X109348037Y-127176627D01*
X109330641Y-127000000D01*
X109348037Y-126823373D01*
X109399557Y-126653534D01*
X109483222Y-126497009D01*
X109512552Y-126461271D01*
X109595814Y-126359814D01*
X109697271Y-126276552D01*
X109733009Y-126247222D01*
X109889534Y-126163557D01*
X110059373Y-126112037D01*
X110125557Y-126105519D01*
X110191740Y-126099000D01*
X110280260Y-126099000D01*
X110346443Y-126105519D01*
X110346443Y-126105519D01*
G37*
G36*
X112886443Y-126105519D02*
G01*
X112952627Y-126112037D01*
X113122466Y-126163557D01*
X113278991Y-126247222D01*
X113314729Y-126276552D01*
X113416186Y-126359814D01*
X113499448Y-126461271D01*
X113528778Y-126497009D01*
X113612443Y-126653534D01*
X113663963Y-126823373D01*
X113681359Y-127000000D01*
X113663963Y-127176627D01*
X113612443Y-127346466D01*
X113528778Y-127502991D01*
X113499448Y-127538729D01*
X113416186Y-127640186D01*
X113314729Y-127723448D01*
X113278991Y-127752778D01*
X113122466Y-127836443D01*
X112952627Y-127887963D01*
X112886442Y-127894482D01*
X112820260Y-127901000D01*
X112731740Y-127901000D01*
X112665558Y-127894482D01*
X112599373Y-127887963D01*
X112429534Y-127836443D01*
X112273009Y-127752778D01*
X112237271Y-127723448D01*
X112135814Y-127640186D01*
X112052552Y-127538729D01*
X112023222Y-127502991D01*
X111939557Y-127346466D01*
X111888037Y-127176627D01*
X111870641Y-127000000D01*
X111888037Y-126823373D01*
X111939557Y-126653534D01*
X112023222Y-126497009D01*
X112052552Y-126461271D01*
X112135814Y-126359814D01*
X112237271Y-126276552D01*
X112273009Y-126247222D01*
X112429534Y-126163557D01*
X112599373Y-126112037D01*
X112665557Y-126105519D01*
X112731740Y-126099000D01*
X112820260Y-126099000D01*
X112886443Y-126105519D01*
X112886443Y-126105519D01*
G37*
G36*
X57747000Y-127321000D02*
G01*
X56045000Y-127321000D01*
X56045000Y-126219000D01*
X57747000Y-126219000D01*
X57747000Y-127321000D01*
X57747000Y-127321000D01*
G37*
G36*
X102820964Y-125207069D02*
G01*
X103012233Y-125286295D01*
X103012235Y-125286296D01*
X103027421Y-125296443D01*
X103184373Y-125401315D01*
X103330765Y-125547707D01*
X103445785Y-125719847D01*
X103525011Y-125911116D01*
X103565400Y-126114164D01*
X103565400Y-126321196D01*
X103525011Y-126524244D01*
X103471458Y-126653532D01*
X103445784Y-126715515D01*
X103330765Y-126887653D01*
X103184373Y-127034045D01*
X103012235Y-127149064D01*
X103012234Y-127149065D01*
X103012233Y-127149065D01*
X102820964Y-127228291D01*
X102617916Y-127268680D01*
X102410884Y-127268680D01*
X102207836Y-127228291D01*
X102016567Y-127149065D01*
X102016566Y-127149065D01*
X102016565Y-127149064D01*
X101844427Y-127034045D01*
X101698035Y-126887653D01*
X101583016Y-126715515D01*
X101557342Y-126653532D01*
X101503789Y-126524244D01*
X101463400Y-126321196D01*
X101463400Y-126114164D01*
X101503789Y-125911116D01*
X101583015Y-125719847D01*
X101698035Y-125547707D01*
X101844427Y-125401315D01*
X102001379Y-125296443D01*
X102016565Y-125286296D01*
X102016567Y-125286295D01*
X102207836Y-125207069D01*
X102410884Y-125166680D01*
X102617916Y-125166680D01*
X102820964Y-125207069D01*
X102820964Y-125207069D01*
G37*
G36*
X64822564Y-125207069D02*
G01*
X65013833Y-125286295D01*
X65013835Y-125286296D01*
X65029021Y-125296443D01*
X65185973Y-125401315D01*
X65332365Y-125547707D01*
X65447385Y-125719847D01*
X65526611Y-125911116D01*
X65567000Y-126114164D01*
X65567000Y-126321196D01*
X65526611Y-126524244D01*
X65473058Y-126653532D01*
X65447384Y-126715515D01*
X65332365Y-126887653D01*
X65185973Y-127034045D01*
X65013835Y-127149064D01*
X65013834Y-127149065D01*
X65013833Y-127149065D01*
X64822564Y-127228291D01*
X64619516Y-127268680D01*
X64412484Y-127268680D01*
X64209436Y-127228291D01*
X64018167Y-127149065D01*
X64018166Y-127149065D01*
X64018165Y-127149064D01*
X63846027Y-127034045D01*
X63699635Y-126887653D01*
X63584616Y-126715515D01*
X63558942Y-126653532D01*
X63505389Y-126524244D01*
X63465000Y-126321196D01*
X63465000Y-126114164D01*
X63505389Y-125911116D01*
X63584615Y-125719847D01*
X63699635Y-125547707D01*
X63846027Y-125401315D01*
X64002979Y-125296443D01*
X64018165Y-125286296D01*
X64018167Y-125286295D01*
X64209436Y-125207069D01*
X64412484Y-125166680D01*
X64619516Y-125166680D01*
X64822564Y-125207069D01*
X64822564Y-125207069D01*
G37*
G36*
X110346442Y-123565518D02*
G01*
X110412627Y-123572037D01*
X110582466Y-123623557D01*
X110738991Y-123707222D01*
X110774729Y-123736552D01*
X110876186Y-123819814D01*
X110959448Y-123921271D01*
X110988778Y-123957009D01*
X111072443Y-124113534D01*
X111123963Y-124283373D01*
X111141359Y-124460000D01*
X111123963Y-124636627D01*
X111072443Y-124806466D01*
X110988778Y-124962991D01*
X110959448Y-124998729D01*
X110876186Y-125100186D01*
X110774729Y-125183448D01*
X110738991Y-125212778D01*
X110738989Y-125212779D01*
X110601452Y-125286295D01*
X110582466Y-125296443D01*
X110412627Y-125347963D01*
X110346442Y-125354482D01*
X110280260Y-125361000D01*
X110191740Y-125361000D01*
X110125558Y-125354482D01*
X110059373Y-125347963D01*
X109889534Y-125296443D01*
X109870549Y-125286295D01*
X109733011Y-125212779D01*
X109733009Y-125212778D01*
X109697271Y-125183448D01*
X109595814Y-125100186D01*
X109512552Y-124998729D01*
X109483222Y-124962991D01*
X109399557Y-124806466D01*
X109348037Y-124636627D01*
X109330641Y-124460000D01*
X109348037Y-124283373D01*
X109399557Y-124113534D01*
X109483222Y-123957009D01*
X109512552Y-123921271D01*
X109595814Y-123819814D01*
X109697271Y-123736552D01*
X109733009Y-123707222D01*
X109889534Y-123623557D01*
X110059373Y-123572037D01*
X110125558Y-123565518D01*
X110191740Y-123559000D01*
X110280260Y-123559000D01*
X110346442Y-123565518D01*
X110346442Y-123565518D01*
G37*
G36*
X112886442Y-123565518D02*
G01*
X112952627Y-123572037D01*
X113122466Y-123623557D01*
X113278991Y-123707222D01*
X113314729Y-123736552D01*
X113416186Y-123819814D01*
X113499448Y-123921271D01*
X113528778Y-123957009D01*
X113612443Y-124113534D01*
X113663963Y-124283373D01*
X113681359Y-124460000D01*
X113663963Y-124636627D01*
X113612443Y-124806466D01*
X113528778Y-124962991D01*
X113499448Y-124998729D01*
X113416186Y-125100186D01*
X113314729Y-125183448D01*
X113278991Y-125212778D01*
X113278989Y-125212779D01*
X113141452Y-125286295D01*
X113122466Y-125296443D01*
X112952627Y-125347963D01*
X112886442Y-125354482D01*
X112820260Y-125361000D01*
X112731740Y-125361000D01*
X112665558Y-125354482D01*
X112599373Y-125347963D01*
X112429534Y-125296443D01*
X112410549Y-125286295D01*
X112273011Y-125212779D01*
X112273009Y-125212778D01*
X112237271Y-125183448D01*
X112135814Y-125100186D01*
X112052552Y-124998729D01*
X112023222Y-124962991D01*
X111939557Y-124806466D01*
X111888037Y-124636627D01*
X111870641Y-124460000D01*
X111888037Y-124283373D01*
X111939557Y-124113534D01*
X112023222Y-123957009D01*
X112052552Y-123921271D01*
X112135814Y-123819814D01*
X112237271Y-123736552D01*
X112273009Y-123707222D01*
X112429534Y-123623557D01*
X112599373Y-123572037D01*
X112665558Y-123565518D01*
X112731740Y-123559000D01*
X112820260Y-123559000D01*
X112886442Y-123565518D01*
X112886442Y-123565518D01*
G37*
G36*
X110346442Y-121025518D02*
G01*
X110412627Y-121032037D01*
X110582466Y-121083557D01*
X110738991Y-121167222D01*
X110774729Y-121196552D01*
X110876186Y-121279814D01*
X110959448Y-121381271D01*
X110988778Y-121417009D01*
X111072443Y-121573534D01*
X111123963Y-121743373D01*
X111141359Y-121920000D01*
X111123963Y-122096627D01*
X111072443Y-122266466D01*
X110988778Y-122422991D01*
X110959448Y-122458729D01*
X110876186Y-122560186D01*
X110774729Y-122643448D01*
X110738991Y-122672778D01*
X110582466Y-122756443D01*
X110412627Y-122807963D01*
X110346443Y-122814481D01*
X110280260Y-122821000D01*
X110191740Y-122821000D01*
X110125557Y-122814481D01*
X110059373Y-122807963D01*
X109889534Y-122756443D01*
X109733009Y-122672778D01*
X109697271Y-122643448D01*
X109595814Y-122560186D01*
X109512552Y-122458729D01*
X109483222Y-122422991D01*
X109399557Y-122266466D01*
X109348037Y-122096627D01*
X109330641Y-121920000D01*
X109348037Y-121743373D01*
X109399557Y-121573534D01*
X109483222Y-121417009D01*
X109512552Y-121381271D01*
X109595814Y-121279814D01*
X109697271Y-121196552D01*
X109733009Y-121167222D01*
X109889534Y-121083557D01*
X110059373Y-121032037D01*
X110125558Y-121025518D01*
X110191740Y-121019000D01*
X110280260Y-121019000D01*
X110346442Y-121025518D01*
X110346442Y-121025518D01*
G37*
G36*
X112886442Y-121025518D02*
G01*
X112952627Y-121032037D01*
X113122466Y-121083557D01*
X113278991Y-121167222D01*
X113314729Y-121196552D01*
X113416186Y-121279814D01*
X113499448Y-121381271D01*
X113528778Y-121417009D01*
X113612443Y-121573534D01*
X113663963Y-121743373D01*
X113681359Y-121920000D01*
X113663963Y-122096627D01*
X113612443Y-122266466D01*
X113528778Y-122422991D01*
X113499448Y-122458729D01*
X113416186Y-122560186D01*
X113314729Y-122643448D01*
X113278991Y-122672778D01*
X113122466Y-122756443D01*
X112952627Y-122807963D01*
X112886443Y-122814481D01*
X112820260Y-122821000D01*
X112731740Y-122821000D01*
X112665557Y-122814481D01*
X112599373Y-122807963D01*
X112429534Y-122756443D01*
X112273009Y-122672778D01*
X112237271Y-122643448D01*
X112135814Y-122560186D01*
X112052552Y-122458729D01*
X112023222Y-122422991D01*
X111939557Y-122266466D01*
X111888037Y-122096627D01*
X111870641Y-121920000D01*
X111888037Y-121743373D01*
X111939557Y-121573534D01*
X112023222Y-121417009D01*
X112052552Y-121381271D01*
X112135814Y-121279814D01*
X112237271Y-121196552D01*
X112273009Y-121167222D01*
X112429534Y-121083557D01*
X112599373Y-121032037D01*
X112665558Y-121025518D01*
X112731740Y-121019000D01*
X112820260Y-121019000D01*
X112886442Y-121025518D01*
X112886442Y-121025518D01*
G37*
G36*
X110346442Y-118485518D02*
G01*
X110412627Y-118492037D01*
X110582466Y-118543557D01*
X110738991Y-118627222D01*
X110774729Y-118656552D01*
X110876186Y-118739814D01*
X110959448Y-118841271D01*
X110988778Y-118877009D01*
X111072443Y-119033534D01*
X111123963Y-119203373D01*
X111141359Y-119380000D01*
X111123963Y-119556627D01*
X111072443Y-119726466D01*
X110988778Y-119882991D01*
X110959448Y-119918729D01*
X110876186Y-120020186D01*
X110774729Y-120103448D01*
X110738991Y-120132778D01*
X110582466Y-120216443D01*
X110412627Y-120267963D01*
X110346442Y-120274482D01*
X110280260Y-120281000D01*
X110191740Y-120281000D01*
X110125558Y-120274482D01*
X110059373Y-120267963D01*
X109889534Y-120216443D01*
X109733009Y-120132778D01*
X109697271Y-120103448D01*
X109595814Y-120020186D01*
X109512552Y-119918729D01*
X109483222Y-119882991D01*
X109399557Y-119726466D01*
X109348037Y-119556627D01*
X109330641Y-119380000D01*
X109348037Y-119203373D01*
X109399557Y-119033534D01*
X109483222Y-118877009D01*
X109512552Y-118841271D01*
X109595814Y-118739814D01*
X109697271Y-118656552D01*
X109733009Y-118627222D01*
X109889534Y-118543557D01*
X110059373Y-118492037D01*
X110125558Y-118485518D01*
X110191740Y-118479000D01*
X110280260Y-118479000D01*
X110346442Y-118485518D01*
X110346442Y-118485518D01*
G37*
G36*
X112886442Y-118485518D02*
G01*
X112952627Y-118492037D01*
X113122466Y-118543557D01*
X113278991Y-118627222D01*
X113314729Y-118656552D01*
X113416186Y-118739814D01*
X113499448Y-118841271D01*
X113528778Y-118877009D01*
X113612443Y-119033534D01*
X113663963Y-119203373D01*
X113681359Y-119380000D01*
X113663963Y-119556627D01*
X113612443Y-119726466D01*
X113528778Y-119882991D01*
X113499448Y-119918729D01*
X113416186Y-120020186D01*
X113314729Y-120103448D01*
X113278991Y-120132778D01*
X113122466Y-120216443D01*
X112952627Y-120267963D01*
X112886442Y-120274482D01*
X112820260Y-120281000D01*
X112731740Y-120281000D01*
X112665558Y-120274482D01*
X112599373Y-120267963D01*
X112429534Y-120216443D01*
X112273009Y-120132778D01*
X112237271Y-120103448D01*
X112135814Y-120020186D01*
X112052552Y-119918729D01*
X112023222Y-119882991D01*
X111939557Y-119726466D01*
X111888037Y-119556627D01*
X111870641Y-119380000D01*
X111888037Y-119203373D01*
X111939557Y-119033534D01*
X112023222Y-118877009D01*
X112052552Y-118841271D01*
X112135814Y-118739814D01*
X112237271Y-118656552D01*
X112273009Y-118627222D01*
X112429534Y-118543557D01*
X112599373Y-118492037D01*
X112665558Y-118485518D01*
X112731740Y-118479000D01*
X112820260Y-118479000D01*
X112886442Y-118485518D01*
X112886442Y-118485518D01*
G37*
G36*
X51938865Y-113765855D02*
G01*
X52539608Y-114014691D01*
X52539610Y-114014692D01*
X53080265Y-114375946D01*
X53540054Y-114835735D01*
X53901308Y-115376390D01*
X53901309Y-115376392D01*
X54150145Y-115977135D01*
X54277000Y-116614879D01*
X54277000Y-117265121D01*
X54150145Y-117902865D01*
X53911502Y-118479000D01*
X53901308Y-118503610D01*
X53540054Y-119044265D01*
X53080265Y-119504054D01*
X52539610Y-119865308D01*
X52539609Y-119865309D01*
X52539608Y-119865309D01*
X51938865Y-120114145D01*
X51301121Y-120241000D01*
X50650879Y-120241000D01*
X50013135Y-120114145D01*
X49412392Y-119865309D01*
X49412391Y-119865309D01*
X49412390Y-119865308D01*
X48871735Y-119504054D01*
X48411946Y-119044265D01*
X48050692Y-118503610D01*
X48040498Y-118479000D01*
X47801855Y-117902865D01*
X47675000Y-117265121D01*
X47675000Y-116614879D01*
X47801855Y-115977135D01*
X48050691Y-115376392D01*
X48050692Y-115376390D01*
X48411946Y-114835735D01*
X48871735Y-114375946D01*
X49412390Y-114014692D01*
X49412392Y-114014691D01*
X50013135Y-113765855D01*
X50650879Y-113639000D01*
X51301121Y-113639000D01*
X51938865Y-113765855D01*
X51938865Y-113765855D01*
G37*
G36*
X166938865Y-113765855D02*
G01*
X167539608Y-114014691D01*
X167539610Y-114014692D01*
X168080265Y-114375946D01*
X168540054Y-114835735D01*
X168901308Y-115376390D01*
X168901309Y-115376392D01*
X169150145Y-115977135D01*
X169277000Y-116614879D01*
X169277000Y-117265121D01*
X169150145Y-117902865D01*
X168911502Y-118479000D01*
X168901308Y-118503610D01*
X168540054Y-119044265D01*
X168080265Y-119504054D01*
X167539610Y-119865308D01*
X167539609Y-119865309D01*
X167539608Y-119865309D01*
X166938865Y-120114145D01*
X166301121Y-120241000D01*
X165650879Y-120241000D01*
X165013135Y-120114145D01*
X164412392Y-119865309D01*
X164412391Y-119865309D01*
X164412390Y-119865308D01*
X163871735Y-119504054D01*
X163411946Y-119044265D01*
X163050692Y-118503610D01*
X163040498Y-118479000D01*
X162801855Y-117902865D01*
X162675000Y-117265121D01*
X162675000Y-116614879D01*
X162801855Y-115977135D01*
X163050691Y-115376392D01*
X163050692Y-115376390D01*
X163411946Y-114835735D01*
X163871735Y-114375946D01*
X164412390Y-114014692D01*
X164412392Y-114014691D01*
X165013135Y-113765855D01*
X165650879Y-113639000D01*
X166301121Y-113639000D01*
X166938865Y-113765855D01*
X166938865Y-113765855D01*
G37*
G36*
X112886442Y-115945518D02*
G01*
X112952627Y-115952037D01*
X113122466Y-116003557D01*
X113278991Y-116087222D01*
X113314729Y-116116552D01*
X113416186Y-116199814D01*
X113499448Y-116301271D01*
X113528778Y-116337009D01*
X113612443Y-116493534D01*
X113663963Y-116663373D01*
X113681359Y-116840000D01*
X113663963Y-117016627D01*
X113612443Y-117186466D01*
X113528778Y-117342991D01*
X113499448Y-117378729D01*
X113416186Y-117480186D01*
X113314729Y-117563448D01*
X113278991Y-117592778D01*
X113122466Y-117676443D01*
X112952627Y-117727963D01*
X112886442Y-117734482D01*
X112820260Y-117741000D01*
X112731740Y-117741000D01*
X112665558Y-117734482D01*
X112599373Y-117727963D01*
X112429534Y-117676443D01*
X112273009Y-117592778D01*
X112237271Y-117563448D01*
X112135814Y-117480186D01*
X112052552Y-117378729D01*
X112023222Y-117342991D01*
X111939557Y-117186466D01*
X111888037Y-117016627D01*
X111870641Y-116840000D01*
X111888037Y-116663373D01*
X111939557Y-116493534D01*
X112023222Y-116337009D01*
X112052552Y-116301271D01*
X112135814Y-116199814D01*
X112237271Y-116116552D01*
X112273009Y-116087222D01*
X112429534Y-116003557D01*
X112599373Y-115952037D01*
X112665558Y-115945518D01*
X112731740Y-115939000D01*
X112820260Y-115939000D01*
X112886442Y-115945518D01*
X112886442Y-115945518D01*
G37*
G36*
X110346442Y-115945518D02*
G01*
X110412627Y-115952037D01*
X110582466Y-116003557D01*
X110738991Y-116087222D01*
X110774729Y-116116552D01*
X110876186Y-116199814D01*
X110959448Y-116301271D01*
X110988778Y-116337009D01*
X111072443Y-116493534D01*
X111123963Y-116663373D01*
X111141359Y-116840000D01*
X111123963Y-117016627D01*
X111072443Y-117186466D01*
X110988778Y-117342991D01*
X110959448Y-117378729D01*
X110876186Y-117480186D01*
X110774729Y-117563448D01*
X110738991Y-117592778D01*
X110582466Y-117676443D01*
X110412627Y-117727963D01*
X110346442Y-117734482D01*
X110280260Y-117741000D01*
X110191740Y-117741000D01*
X110125558Y-117734482D01*
X110059373Y-117727963D01*
X109889534Y-117676443D01*
X109733009Y-117592778D01*
X109697271Y-117563448D01*
X109595814Y-117480186D01*
X109512552Y-117378729D01*
X109483222Y-117342991D01*
X109399557Y-117186466D01*
X109348037Y-117016627D01*
X109330641Y-116840000D01*
X109348037Y-116663373D01*
X109399557Y-116493534D01*
X109483222Y-116337009D01*
X109512552Y-116301271D01*
X109595814Y-116199814D01*
X109697271Y-116116552D01*
X109733009Y-116087222D01*
X109889534Y-116003557D01*
X110059373Y-115952037D01*
X110125558Y-115945518D01*
X110191740Y-115939000D01*
X110280260Y-115939000D01*
X110346442Y-115945518D01*
X110346442Y-115945518D01*
G37*
G36*
X111205372Y-106349017D02*
G01*
X111507244Y-106409063D01*
X112075958Y-106644632D01*
X112587787Y-106986625D01*
X113023061Y-107421899D01*
X113365054Y-107933728D01*
X113600623Y-108502442D01*
X113720715Y-109106185D01*
X113720715Y-109721757D01*
X113600623Y-110325500D01*
X113365054Y-110894214D01*
X113023061Y-111406043D01*
X112587787Y-111841317D01*
X112075958Y-112183310D01*
X111507244Y-112418879D01*
X111205372Y-112478925D01*
X110903502Y-112538971D01*
X110287928Y-112538971D01*
X109986058Y-112478925D01*
X109684186Y-112418879D01*
X109115472Y-112183310D01*
X108603643Y-111841317D01*
X108168369Y-111406043D01*
X107826376Y-110894214D01*
X107590807Y-110325500D01*
X107470715Y-109721757D01*
X107470715Y-109106185D01*
X107590807Y-108502442D01*
X107826376Y-107933728D01*
X108168369Y-107421899D01*
X108603643Y-106986625D01*
X109115472Y-106644632D01*
X109684186Y-106409063D01*
X110287928Y-106288971D01*
X110903502Y-106288971D01*
X111205372Y-106349017D01*
X111205372Y-106349017D01*
G37*
G36*
X153317335Y-106349017D02*
G01*
X153619207Y-106409063D01*
X154187921Y-106644632D01*
X154699750Y-106986625D01*
X155135024Y-107421899D01*
X155477017Y-107933728D01*
X155712586Y-108502442D01*
X155832678Y-109106185D01*
X155832678Y-109721757D01*
X155712586Y-110325500D01*
X155477017Y-110894214D01*
X155135024Y-111406043D01*
X154699750Y-111841317D01*
X154187921Y-112183310D01*
X153619207Y-112418879D01*
X153317335Y-112478925D01*
X153015465Y-112538971D01*
X152399891Y-112538971D01*
X152098021Y-112478925D01*
X151796149Y-112418879D01*
X151227435Y-112183310D01*
X150715606Y-111841317D01*
X150280332Y-111406043D01*
X149938339Y-110894214D01*
X149702770Y-110325500D01*
X149582678Y-109721757D01*
X149582678Y-109106185D01*
X149702770Y-108502442D01*
X149938339Y-107933728D01*
X150280332Y-107421899D01*
X150715606Y-106986625D01*
X151227435Y-106644632D01*
X151796149Y-106409063D01*
X152399891Y-106288971D01*
X153015465Y-106288971D01*
X153317335Y-106349017D01*
X153317335Y-106349017D01*
G37*
G36*
X64822564Y-108209389D02*
G01*
X65013833Y-108288615D01*
X65013835Y-108288616D01*
X65185973Y-108403635D01*
X65332365Y-108550027D01*
X65447385Y-108722167D01*
X65526611Y-108913436D01*
X65567000Y-109116484D01*
X65567000Y-109323516D01*
X65526611Y-109526564D01*
X65447385Y-109717833D01*
X65447384Y-109717835D01*
X65332365Y-109889973D01*
X65185973Y-110036365D01*
X65013835Y-110151384D01*
X65013834Y-110151385D01*
X65013833Y-110151385D01*
X64822564Y-110230611D01*
X64619516Y-110271000D01*
X64412484Y-110271000D01*
X64209436Y-110230611D01*
X64018167Y-110151385D01*
X64018166Y-110151385D01*
X64018165Y-110151384D01*
X63846027Y-110036365D01*
X63699635Y-109889973D01*
X63584616Y-109717835D01*
X63584615Y-109717833D01*
X63505389Y-109526564D01*
X63465000Y-109323516D01*
X63465000Y-109116484D01*
X63505389Y-108913436D01*
X63584615Y-108722167D01*
X63699635Y-108550027D01*
X63846027Y-108403635D01*
X64018165Y-108288616D01*
X64018167Y-108288615D01*
X64209436Y-108209389D01*
X64412484Y-108169000D01*
X64619516Y-108169000D01*
X64822564Y-108209389D01*
X64822564Y-108209389D01*
G37*
G36*
X102820964Y-108209389D02*
G01*
X103012233Y-108288615D01*
X103012235Y-108288616D01*
X103184373Y-108403635D01*
X103330765Y-108550027D01*
X103445785Y-108722167D01*
X103525011Y-108913436D01*
X103565400Y-109116484D01*
X103565400Y-109323516D01*
X103525011Y-109526564D01*
X103445785Y-109717833D01*
X103445784Y-109717835D01*
X103330765Y-109889973D01*
X103184373Y-110036365D01*
X103012235Y-110151384D01*
X103012234Y-110151385D01*
X103012233Y-110151385D01*
X102820964Y-110230611D01*
X102617916Y-110271000D01*
X102410884Y-110271000D01*
X102207836Y-110230611D01*
X102016567Y-110151385D01*
X102016566Y-110151385D01*
X102016565Y-110151384D01*
X101844427Y-110036365D01*
X101698035Y-109889973D01*
X101583016Y-109717835D01*
X101583015Y-109717833D01*
X101503789Y-109526564D01*
X101463400Y-109323516D01*
X101463400Y-109116484D01*
X101503789Y-108913436D01*
X101583015Y-108722167D01*
X101698035Y-108550027D01*
X101844427Y-108403635D01*
X102016565Y-108288616D01*
X102016567Y-108288615D01*
X102207836Y-108209389D01*
X102410884Y-108169000D01*
X102617916Y-108169000D01*
X102820964Y-108209389D01*
X102820964Y-108209389D01*
G37*
M02*
