G04 #@! TF.GenerationSoftware,KiCad,Pcbnew,(5.1.2)-1*
G04 #@! TF.CreationDate,2019-06-14T16:17:24+05:00*
G04 #@! TF.ProjectId,evend-adapter,6576656e-642d-4616-9461-707465722e6b,rev?*
G04 #@! TF.SameCoordinates,Original*
G04 #@! TF.FileFunction,Copper,L2,Bot*
G04 #@! TF.FilePolarity,Positive*
%FSLAX46Y46*%
G04 Gerber Fmt 4.6, Leading zero omitted, Abs format (unit mm)*
G04 Created by KiCad (PCBNEW (5.1.2)-1) date 2019-06-14 16:17:24*
%MOMM*%
%LPD*%
G04 APERTURE LIST*
%ADD10O,1.500000X3.000000*%
%ADD11C,6.500000*%
%ADD12R,1.600000X2.000000*%
%ADD13R,1.600000X1.400000*%
%ADD14R,1.400000X1.600000*%
%ADD15R,1.600000X1.000000*%
%ADD16O,1.700000X1.700000*%
%ADD17R,1.700000X1.700000*%
%ADD18R,1.200000X1.700000*%
%ADD19O,1.200000X1.700000*%
%ADD20C,1.727200*%
%ADD21R,1.727200X1.727200*%
%ADD22R,1.200000X0.750000*%
%ADD23C,3.000000*%
%ADD24R,0.750000X1.200000*%
%ADD25R,0.800000X0.900000*%
%ADD26R,3.000000X3.000000*%
%ADD27R,0.900000X0.800000*%
%ADD28C,2.000000*%
%ADD29C,0.500000*%
%ADD30C,1.000000*%
%ADD31C,0.400000*%
%ADD32C,0.250000*%
G04 APERTURE END LIST*
D10*
X158496000Y-154940000D03*
X155956000Y-154940000D03*
X153416000Y-154940000D03*
X150876000Y-154940000D03*
X148336000Y-154940000D03*
X145796000Y-154940000D03*
X143256000Y-154940000D03*
X140716000Y-154940000D03*
X138176000Y-154940000D03*
X135636000Y-154940000D03*
X133096000Y-154940000D03*
X130556000Y-154940000D03*
X128016000Y-154940000D03*
X125476000Y-154940000D03*
X122936000Y-154940000D03*
X120396000Y-154940000D03*
D11*
X50976000Y-153940000D03*
X50976000Y-116940000D03*
X165976000Y-153940000D03*
X165976000Y-116940000D03*
D12*
X134620000Y-163798000D03*
X134620000Y-159798000D03*
X128016000Y-163830000D03*
X128016000Y-167830000D03*
D13*
X116586000Y-136620000D03*
X116586000Y-132620000D03*
D14*
X102648000Y-144373600D03*
X106648000Y-144373600D03*
X97060000Y-153162000D03*
X101060000Y-153162000D03*
D13*
X84010500Y-130334000D03*
X84010500Y-134334000D03*
D15*
X56896000Y-126770000D03*
X56896000Y-129770000D03*
D14*
X86360000Y-154940000D03*
X82360000Y-154940000D03*
X96774000Y-149352000D03*
X92774000Y-149352000D03*
D13*
X95059500Y-135312400D03*
X95059500Y-139312400D03*
D16*
X112776000Y-160020000D03*
X110236000Y-162560000D03*
X110236000Y-147320000D03*
X112776000Y-147320000D03*
X112776000Y-162560000D03*
X110236000Y-160020000D03*
X112776000Y-165100000D03*
D17*
X110236000Y-165100000D03*
D16*
X110236000Y-137160000D03*
X112776000Y-137160000D03*
X110236000Y-152400000D03*
X112776000Y-152400000D03*
X110236000Y-132080000D03*
X112776000Y-132080000D03*
X110236000Y-149860000D03*
X112776000Y-149860000D03*
X110236000Y-154940000D03*
X112776000Y-154940000D03*
X110236000Y-142240000D03*
X112776000Y-142240000D03*
X110236000Y-119380000D03*
X112776000Y-119380000D03*
X110236000Y-124460000D03*
X112776000Y-124460000D03*
X110236000Y-121920000D03*
X112776000Y-121920000D03*
X110236000Y-144780000D03*
X112776000Y-144780000D03*
X110236000Y-127000000D03*
X112776000Y-127000000D03*
X110236000Y-157480000D03*
X112776000Y-157480000D03*
X110236000Y-129540000D03*
X112776000Y-129540000D03*
X110236000Y-139700000D03*
X112776000Y-139700000D03*
X110236000Y-134620000D03*
X112776000Y-134620000D03*
X110236000Y-116840000D03*
X112776000Y-116840000D03*
D18*
X96774000Y-169672000D03*
D19*
X98774000Y-169672000D03*
X100774000Y-169672000D03*
X102774000Y-169672000D03*
D20*
X82296000Y-162560000D03*
X87376000Y-146050000D03*
X87376000Y-143510000D03*
X74676000Y-144780000D03*
D21*
X74676000Y-134620000D03*
D20*
X74676000Y-137160000D03*
D21*
X89916000Y-134620000D03*
D20*
X89916000Y-142240000D03*
X89916000Y-157480000D03*
X89916000Y-154940000D03*
X89916000Y-160020000D03*
X89916000Y-162560000D03*
D22*
X98719600Y-136486900D03*
X100619600Y-136486900D03*
D23*
X161076000Y-146620000D03*
X161076000Y-141120000D03*
D22*
X99060000Y-156972000D03*
X97160000Y-156972000D03*
X98732300Y-139814300D03*
X100632300Y-139814300D03*
X99126000Y-151130000D03*
X101026000Y-151130000D03*
X104897000Y-158826200D03*
X102997000Y-158826200D03*
X104902000Y-160223200D03*
X103002000Y-160223200D03*
D24*
X99098100Y-143642000D03*
X99098100Y-145542000D03*
X97459800Y-143642000D03*
X97459800Y-145542000D03*
D22*
X99126000Y-155270200D03*
X101026000Y-155270200D03*
X101092000Y-157048200D03*
X102992000Y-157048200D03*
X98706900Y-138087100D03*
X100606900Y-138087100D03*
D24*
X102590600Y-136116100D03*
X102590600Y-134216100D03*
D22*
X101015800Y-149440900D03*
X99115800Y-149440900D03*
X101026000Y-147320000D03*
X99126000Y-147320000D03*
X82174000Y-146050000D03*
X84074000Y-146050000D03*
X82174000Y-144272000D03*
X84074000Y-144272000D03*
D24*
X78126000Y-142370000D03*
X78126000Y-140470000D03*
D22*
X80010000Y-144272000D03*
X78110000Y-144272000D03*
X80015000Y-140420000D03*
X81915000Y-140420000D03*
X77851000Y-134620000D03*
X79751000Y-134620000D03*
D25*
X85534500Y-138938000D03*
X83634500Y-138938000D03*
X84584500Y-136938000D03*
X81925200Y-138947400D03*
X80025200Y-138947400D03*
X80975200Y-136947400D03*
D26*
X69596000Y-162880000D03*
D23*
X65396000Y-162880000D03*
X61196000Y-162880000D03*
X69596000Y-157380000D03*
X65396000Y-157380000D03*
X61196000Y-157380000D03*
D25*
X102872500Y-147348700D03*
X104772500Y-147348700D03*
X103822500Y-149348700D03*
X102567700Y-137811000D03*
X104467700Y-137811000D03*
X103517700Y-139811000D03*
D27*
X101092000Y-158739800D03*
X101092000Y-160639800D03*
X99092000Y-159689800D03*
D28*
X64516000Y-126217680D03*
X64516000Y-109220000D03*
X102514400Y-109220000D03*
X102514400Y-126217680D03*
D29*
X87376000Y-146050000D02*
X84074000Y-146050000D01*
X98774000Y-169672000D02*
X98774000Y-171022000D01*
X98774000Y-171022000D02*
X98523999Y-171272001D01*
X98523999Y-171272001D02*
X91997186Y-171272001D01*
X91997186Y-171272001D02*
X83909988Y-163184803D01*
X83909988Y-163184803D02*
X83909988Y-151911783D01*
X83909988Y-147014988D02*
X83909988Y-163184803D01*
X84074000Y-146925000D02*
X84074000Y-146050000D01*
X83984012Y-147014988D02*
X84074000Y-146925000D01*
X83909988Y-147014988D02*
X83984012Y-147014988D01*
X84836000Y-143510000D02*
X84074000Y-144272000D01*
X87376000Y-143510000D02*
X84836000Y-143510000D01*
X88597314Y-143510000D02*
X89408000Y-144320686D01*
X87376000Y-143510000D02*
X88597314Y-143510000D01*
X89408000Y-144320686D02*
X89408000Y-148336000D01*
X84909999Y-162770585D02*
X91811414Y-169672000D01*
X89408000Y-148336000D02*
X89408000Y-149041998D01*
X91811414Y-169672000D02*
X95674000Y-169672000D01*
X89408000Y-149041998D02*
X84909999Y-153539999D01*
X84909999Y-153539999D02*
X84909999Y-162770585D01*
X95674000Y-169672000D02*
X96774000Y-169672000D01*
D30*
X107696000Y-134620000D02*
X105156000Y-132080000D01*
X110236000Y-134620000D02*
X107696000Y-134620000D01*
X105156000Y-128859280D02*
X105156000Y-132080000D01*
X102514400Y-126217680D02*
X105156000Y-128859280D01*
D31*
X109982000Y-154686000D02*
X110236000Y-154940000D01*
X99098100Y-147292100D02*
X99126000Y-147320000D01*
D29*
X99126000Y-145569900D02*
X99098100Y-145542000D01*
X99126000Y-147320000D02*
X99126000Y-145569900D01*
X99098100Y-145542000D02*
X100698600Y-145542000D01*
X102997000Y-157053200D02*
X102992000Y-157048200D01*
X102997000Y-158826200D02*
X102997000Y-157053200D01*
X101715600Y-134216100D02*
X102590600Y-134216100D01*
X100619600Y-135312100D02*
X101715600Y-134216100D01*
X100619600Y-136486900D02*
X100619600Y-135312100D01*
X105156000Y-132525700D02*
X105156000Y-132080000D01*
X103465600Y-134216100D02*
X105156000Y-132525700D01*
X102590600Y-134216100D02*
X103465600Y-134216100D01*
D30*
X61196000Y-129537680D02*
X64516000Y-126217680D01*
X61196000Y-157380000D02*
X61196000Y-129537680D01*
X125476000Y-156940000D02*
X122396000Y-160020000D01*
X125476000Y-154940000D02*
X125476000Y-156940000D01*
D29*
X130556000Y-154190000D02*
X130556000Y-154940000D01*
X125476000Y-154940000D02*
X125476000Y-154190000D01*
D30*
X130556000Y-154190000D02*
X130476000Y-154110000D01*
X125476000Y-152940000D02*
X126496000Y-151920000D01*
X125476000Y-154940000D02*
X125476000Y-152940000D01*
X130556000Y-152908000D02*
X130556000Y-154940000D01*
X129568000Y-151920000D02*
X130556000Y-152908000D01*
X126496000Y-151920000D02*
X129568000Y-151920000D01*
X61196000Y-157380000D02*
X63795000Y-159979000D01*
X79715000Y-159979000D02*
X82296000Y-162560000D01*
X65396000Y-162880000D02*
X65396000Y-160056000D01*
X79715000Y-159979000D02*
X63795000Y-159979000D01*
X122396000Y-160020000D02*
X112776000Y-160020000D01*
X130556000Y-154940000D02*
X130556000Y-159766000D01*
X158750000Y-159766000D02*
X130556000Y-159766000D01*
D29*
X101098600Y-145542000D02*
X102267000Y-144373600D01*
X99098100Y-145542000D02*
X101098600Y-145542000D01*
X101479600Y-145542000D02*
X102648000Y-144373600D01*
X99098100Y-145542000D02*
X101479600Y-145542000D01*
X102992000Y-155834000D02*
X102992000Y-157048200D01*
X103886000Y-154940000D02*
X103378000Y-155448000D01*
X103854000Y-154972000D02*
X103378000Y-155448000D01*
X103378000Y-155448000D02*
X102992000Y-155834000D01*
X106648000Y-154718000D02*
X106426000Y-154940000D01*
X106648000Y-144373600D02*
X106648000Y-154718000D01*
X110236000Y-154940000D02*
X106426000Y-154940000D01*
X106426000Y-154940000D02*
X103886000Y-154940000D01*
D30*
X91036697Y-172522011D02*
X82296000Y-163781314D01*
X82296000Y-163781314D02*
X82296000Y-162560000D01*
X100781989Y-171029989D02*
X100781989Y-172522011D01*
D29*
X100774000Y-171022000D02*
X100781989Y-171029989D01*
D30*
X100774000Y-169672000D02*
X100774000Y-171022000D01*
X91036697Y-172522011D02*
X100781989Y-172522011D01*
D29*
X161076000Y-146620000D02*
X161076000Y-147026000D01*
D30*
X161076000Y-148042000D02*
X161076000Y-146620000D01*
X160274000Y-148844000D02*
X161076000Y-148042000D01*
X158750000Y-159766000D02*
X160274000Y-158242000D01*
X160274000Y-158242000D02*
X160274000Y-148844000D01*
D29*
X78076000Y-142420000D02*
X78126000Y-142370000D01*
X71926000Y-142370000D02*
X78126000Y-142370000D01*
X69596000Y-157380000D02*
X69596000Y-144700000D01*
X69596000Y-144700000D02*
X71926000Y-142370000D01*
X78126000Y-144256000D02*
X78110000Y-144272000D01*
X78126000Y-142370000D02*
X78126000Y-144256000D01*
X65396000Y-157380000D02*
X65396000Y-140822798D01*
X65396000Y-140822798D02*
X74884808Y-131333990D01*
X87642750Y-133218521D02*
X87642750Y-135423952D01*
X75884798Y-130334000D02*
X74884808Y-131333990D01*
X84010500Y-130334000D02*
X75884798Y-130334000D01*
X85310500Y-130334000D02*
X84010500Y-130334000D01*
X87642750Y-135423952D02*
X87642750Y-132666250D01*
X88981199Y-136762401D02*
X87642750Y-135423952D01*
X97344099Y-136762401D02*
X88981199Y-136762401D01*
X97619600Y-136486900D02*
X97344099Y-136762401D01*
X87642750Y-132666250D02*
X85310500Y-130334000D01*
X98719600Y-136486900D02*
X97619600Y-136486900D01*
D31*
X81925200Y-138997400D02*
X81925200Y-138947400D01*
D29*
X81934600Y-138938000D02*
X81925200Y-138947400D01*
X83634500Y-138938000D02*
X81934600Y-138938000D01*
X81925200Y-140409800D02*
X81915000Y-140420000D01*
X81925200Y-138947400D02*
X81925200Y-140409800D01*
X79751000Y-135723200D02*
X80975200Y-136947400D01*
X79751000Y-134620000D02*
X79751000Y-135723200D01*
X85534500Y-138938000D02*
X85534500Y-137988000D01*
X85534500Y-137988000D02*
X86360000Y-137162500D01*
X86360000Y-137162500D02*
X86360000Y-133350000D01*
X86360000Y-133350000D02*
X85344000Y-132334000D01*
X85344000Y-132334000D02*
X80772000Y-132334000D01*
X79751000Y-133355000D02*
X79751000Y-134620000D01*
X80772000Y-132334000D02*
X79751000Y-133355000D01*
X101054700Y-147348700D02*
X101026000Y-147320000D01*
X102872500Y-147348700D02*
X101054700Y-147348700D01*
X101015800Y-147330200D02*
X101026000Y-147320000D01*
X101015800Y-149440900D02*
X101015800Y-147330200D01*
X102590600Y-137788100D02*
X102567700Y-137811000D01*
X102590600Y-136116100D02*
X102590600Y-137788100D01*
X102291600Y-138087100D02*
X102567700Y-137811000D01*
X100606900Y-138087100D02*
X102291600Y-138087100D01*
X101026000Y-156982200D02*
X101092000Y-157048200D01*
X101026000Y-155270200D02*
X101026000Y-156982200D01*
X99098100Y-143417000D02*
X99098100Y-143642000D01*
X99098100Y-143642000D02*
X97459800Y-143642000D01*
X101516100Y-141224000D02*
X99098100Y-143642000D01*
X107509919Y-141224000D02*
X101516100Y-141224000D01*
X109033919Y-139700000D02*
X107509919Y-141224000D01*
X110236000Y-139700000D02*
X109033919Y-139700000D01*
X104902000Y-158831200D02*
X104897000Y-158826200D01*
X104902000Y-160223200D02*
X104902000Y-158831200D01*
X109033919Y-157480000D02*
X110236000Y-157480000D01*
X105368200Y-157480000D02*
X109033919Y-157480000D01*
X104897000Y-157951200D02*
X105368200Y-157480000D01*
X104897000Y-158826200D02*
X104897000Y-157951200D01*
D31*
X102997000Y-160228200D02*
X103002000Y-160223200D01*
D29*
X82360000Y-154940000D02*
X82360000Y-152464000D01*
X82360000Y-152464000D02*
X74676000Y-144780000D01*
X103002000Y-161098200D02*
X103002000Y-160223200D01*
X98926588Y-165173612D02*
X103002000Y-161098200D01*
X88727253Y-165173612D02*
X98926588Y-165173612D01*
X86360000Y-162806358D02*
X88727253Y-165173612D01*
X86360000Y-154940000D02*
X86360000Y-162806358D01*
D31*
X56896000Y-126770000D02*
X57196000Y-126770000D01*
D30*
X56896000Y-124900000D02*
X64516000Y-117280000D01*
X56896000Y-126770000D02*
X56896000Y-124900000D01*
X64516000Y-117280000D02*
X64516000Y-109220000D01*
D29*
X74676000Y-134620000D02*
X77851000Y-134620000D01*
D31*
X74496000Y-137160000D02*
X74676000Y-137160000D01*
D29*
X75897314Y-137160000D02*
X74676000Y-137160000D01*
X75916000Y-137160000D02*
X75897314Y-137160000D01*
X78126000Y-139370000D02*
X75916000Y-137160000D01*
X78126000Y-140470000D02*
X78126000Y-139370000D01*
X91186000Y-157480000D02*
X89916000Y-157480000D01*
X95323999Y-153342001D02*
X91186000Y-157480000D01*
X95323999Y-147902801D02*
X95323999Y-153342001D01*
X97459800Y-145767000D02*
X95323999Y-147902801D01*
X97459800Y-145542000D02*
X97459800Y-145767000D01*
X103822500Y-150298700D02*
X103822500Y-149348700D01*
X103822500Y-152082100D02*
X103822500Y-150298700D01*
X102768000Y-153136600D02*
X103822500Y-152082100D01*
X101568000Y-153136600D02*
X102768000Y-153136600D01*
X101026000Y-152594600D02*
X101568000Y-153136600D01*
X101026000Y-151130000D02*
X101026000Y-152594600D01*
X100635600Y-139811000D02*
X100632300Y-139814300D01*
X103517700Y-139811000D02*
X100635600Y-139811000D01*
X100632300Y-139814300D02*
X100632300Y-140689300D01*
X96484799Y-142291999D02*
X94323988Y-144452810D01*
X99029601Y-142291999D02*
X96484799Y-142291999D01*
X100632300Y-140689300D02*
X99029601Y-142291999D01*
X94323988Y-144452810D02*
X94323988Y-152056012D01*
X91440000Y-154940000D02*
X89916000Y-154940000D01*
X94323988Y-152056012D02*
X91440000Y-154940000D01*
D31*
X90246200Y-162229800D02*
X89916000Y-162560000D01*
D29*
X92786200Y-159689800D02*
X89916000Y-162560000D01*
X97160000Y-156972000D02*
X97160000Y-159644000D01*
X99092000Y-159689800D02*
X97205800Y-159689800D01*
X97205800Y-159689800D02*
X92786200Y-159689800D01*
X120189990Y-150669990D02*
X130825990Y-150669990D01*
X133096000Y-152940000D02*
X133096000Y-154940000D01*
X130825990Y-150669990D02*
X133096000Y-152940000D01*
X120189990Y-150669990D02*
X117602000Y-153257980D01*
X117602000Y-154940000D02*
X115062000Y-157480000D01*
X117602000Y-153257980D02*
X117602000Y-154940000D01*
X112776000Y-157480000D02*
X115062000Y-157480000D01*
D32*
X95059500Y-139712400D02*
X95059500Y-139737400D01*
D29*
X112916000Y-137020000D02*
X112776000Y-137160000D01*
X116586000Y-132195000D02*
X114468001Y-130077001D01*
X116586000Y-132220000D02*
X116586000Y-132195000D01*
X114468001Y-130077001D02*
X114468001Y-116163999D01*
X114468001Y-116163999D02*
X113544001Y-115239999D01*
X113544001Y-115239999D02*
X109467999Y-115239999D01*
X100288999Y-129657901D02*
X100288999Y-124418999D01*
X95059500Y-134887400D02*
X100288999Y-129657901D01*
X95059500Y-134912400D02*
X95059500Y-134887400D01*
X109467999Y-115239999D02*
X100288999Y-124418999D01*
X90408011Y-144388889D02*
X95059500Y-139737400D01*
X90408011Y-149459216D02*
X90408011Y-144388889D01*
X88302399Y-151564827D02*
X90408011Y-149459216D01*
X88302399Y-163334529D02*
X88302399Y-151564827D01*
X89141471Y-164173601D02*
X88302399Y-163334529D01*
X98458199Y-164173601D02*
X89141471Y-164173601D01*
X101092000Y-161539800D02*
X98458199Y-164173601D01*
X101092000Y-160639800D02*
X101092000Y-161539800D01*
X116046000Y-137160000D02*
X116586000Y-136620000D01*
X112776000Y-137160000D02*
X116046000Y-137160000D01*
D31*
X110226600Y-137150600D02*
X110236000Y-137160000D01*
D29*
X105118700Y-137160000D02*
X104467700Y-137811000D01*
X110236000Y-137160000D02*
X105118700Y-137160000D01*
D31*
X110236000Y-142240000D02*
X108966000Y-142240000D01*
D29*
X109033919Y-142240000D02*
X110236000Y-142240000D01*
X105725598Y-142240000D02*
X109033919Y-142240000D01*
X104772500Y-143193098D02*
X105725598Y-142240000D01*
X104772500Y-147348700D02*
X104772500Y-143193098D01*
X135636000Y-154940000D02*
X135636000Y-153924000D01*
X135636000Y-152940000D02*
X135636000Y-154940000D01*
X132365979Y-149669979D02*
X135636000Y-152940000D01*
X119036621Y-149669979D02*
X132365979Y-149669979D01*
X113766600Y-154940000D02*
X119036621Y-149669979D01*
X112776000Y-154940000D02*
X113766600Y-154940000D01*
X138176000Y-152940000D02*
X138176000Y-154940000D01*
X133826000Y-148590000D02*
X138176000Y-152940000D01*
X118364000Y-148590000D02*
X133826000Y-148590000D01*
X114554000Y-152400000D02*
X118364000Y-148590000D01*
X112776000Y-152400000D02*
X114554000Y-152400000D01*
X153416000Y-154940000D02*
X153416000Y-154190000D01*
X145256000Y-144780000D02*
X144780000Y-144780000D01*
X153416000Y-152940000D02*
X145256000Y-144780000D01*
X153416000Y-154940000D02*
X153416000Y-152940000D01*
X144780000Y-144780000D02*
X112776000Y-144780000D01*
X150876000Y-154940000D02*
X150876000Y-154190000D01*
X145256000Y-147320000D02*
X144018000Y-147320000D01*
X150876000Y-152940000D02*
X145256000Y-147320000D01*
X150876000Y-154940000D02*
X150876000Y-152940000D01*
X112776000Y-147320000D02*
X144018000Y-147320000D01*
X155956000Y-154940000D02*
X155956000Y-154190000D01*
X155956000Y-152908000D02*
X142748000Y-139700000D01*
X155956000Y-154940000D02*
X155956000Y-152908000D01*
X142748000Y-139700000D02*
X112776000Y-139700000D01*
X158496000Y-153162000D02*
X139954000Y-134620000D01*
X158496000Y-154940000D02*
X158496000Y-153162000D01*
X112776000Y-134620000D02*
X139954000Y-134620000D01*
D30*
X68361000Y-166115000D02*
X59181000Y-166115000D01*
X69596000Y-164880000D02*
X68361000Y-166115000D01*
X69596000Y-162880000D02*
X69596000Y-164880000D01*
X56896000Y-163830000D02*
X56896000Y-129770000D01*
X59181000Y-166115000D02*
X56896000Y-163830000D01*
D31*
X92392500Y-149313900D02*
X92367500Y-149313900D01*
D29*
X79996000Y-138976600D02*
X80025200Y-138947400D01*
X97180100Y-149440900D02*
X96989600Y-149250400D01*
X99115800Y-149440900D02*
X97180100Y-149440900D01*
X99115800Y-151119800D02*
X99126000Y-151130000D01*
X99115800Y-149440900D02*
X99115800Y-151119800D01*
X99126000Y-151130000D02*
X99126000Y-155270200D01*
X98706900Y-139788900D02*
X98732300Y-139814300D01*
X98706900Y-138087100D02*
X98706900Y-139788900D01*
X97548269Y-139814300D02*
X97632300Y-139814300D01*
X80025200Y-140409800D02*
X80015000Y-140420000D01*
X80025200Y-138947400D02*
X80025200Y-140409800D01*
X79926000Y-140509000D02*
X80015000Y-140420000D01*
X88694686Y-142240000D02*
X88324686Y-141870000D01*
X89916000Y-142240000D02*
X88694686Y-142240000D01*
X99060000Y-155336200D02*
X99126000Y-155270200D01*
X99060000Y-156972000D02*
X99060000Y-155336200D01*
X97632300Y-139814300D02*
X98732300Y-139814300D01*
X97407602Y-139814300D02*
X97632300Y-139814300D01*
X92774000Y-144447902D02*
X94099951Y-143121951D01*
X92774000Y-149352000D02*
X92774000Y-144447902D01*
X94099951Y-143121951D02*
X97407602Y-139814300D01*
X97606900Y-138087100D02*
X98706900Y-138087100D01*
X97382199Y-137862399D02*
X97606900Y-138087100D01*
X93072287Y-137862399D02*
X97382199Y-137862399D01*
X89916000Y-141018686D02*
X93072287Y-137862399D01*
X89916000Y-142240000D02*
X89916000Y-141018686D01*
X80010000Y-144272000D02*
X82174000Y-144272000D01*
X82174000Y-144272000D02*
X82174000Y-146050000D01*
X80010000Y-140425000D02*
X80015000Y-140420000D01*
X80126000Y-141870000D02*
X80010000Y-141986000D01*
X88324686Y-141870000D02*
X80126000Y-141870000D01*
X80010000Y-144272000D02*
X80010000Y-141986000D01*
X80010000Y-141986000D02*
X80010000Y-140425000D01*
D30*
X89916000Y-121818400D02*
X89916000Y-134620000D01*
X115824000Y-125730000D02*
X118110000Y-128016000D01*
X161076000Y-141120000D02*
X150518000Y-141120000D01*
X137414000Y-128016000D02*
X118110000Y-128016000D01*
X150518000Y-141120000D02*
X137414000Y-128016000D01*
X161076000Y-141120000D02*
X163830000Y-143874000D01*
X163830000Y-143874000D02*
X163830000Y-147574000D01*
X161975999Y-159460001D02*
X153606000Y-167830000D01*
X161975999Y-149428001D02*
X161975999Y-159460001D01*
X163830000Y-147574000D02*
X161975999Y-149428001D01*
X153606000Y-167830000D02*
X128016000Y-167830000D01*
X102514400Y-113131600D02*
X102514400Y-109220000D01*
X115810990Y-114794990D02*
X114147600Y-113131600D01*
X115810990Y-125716990D02*
X115810990Y-114794990D01*
D29*
X115824000Y-125730000D02*
X115810990Y-125716990D01*
D30*
X98602800Y-113131600D02*
X89916000Y-121818400D01*
D29*
X102514400Y-113080800D02*
X102463600Y-113131600D01*
X102514400Y-109220000D02*
X102514400Y-113080800D01*
D30*
X114147600Y-113131600D02*
X102463600Y-113131600D01*
X102463600Y-113131600D02*
X98602800Y-113131600D01*
D29*
X84010500Y-136364000D02*
X84584500Y-136938000D01*
X84010500Y-134734000D02*
X84010500Y-136364000D01*
D31*
X90259600Y-160020000D02*
X89916000Y-160020000D01*
D29*
X97143000Y-153136600D02*
X90259600Y-160020000D01*
D31*
X97168000Y-153136600D02*
X97143000Y-153136600D01*
D29*
X128016000Y-154940000D02*
X128016000Y-155690000D01*
X128048000Y-163798000D02*
X128016000Y-163830000D01*
D30*
X134620000Y-163798000D02*
X128048000Y-163798000D01*
X128016000Y-163830000D02*
X128016000Y-154940000D01*
D29*
X128016000Y-163830000D02*
X126716000Y-163830000D01*
D30*
X103874000Y-169672000D02*
X106160000Y-167386000D01*
X102774000Y-169672000D02*
X103874000Y-169672000D01*
X125730000Y-163830000D02*
X122174000Y-167386000D01*
X128016000Y-163830000D02*
X125730000Y-163830000D01*
X106160000Y-167386000D02*
X122174000Y-167386000D01*
M02*
